<?xml version="1.0" encoding="UTF-8" standalone="no"?>
<!-- Created with Inkscape (http://www.inkscape.org/) -->
<svg
   xmlns:svg="http://www.w3.org/2000/svg"
   xmlns="http://www.w3.org/2000/svg"
   version="1.0"
   width="33.234001cm"
   height="20.391001cm"
   viewBox="0.066 0.921 33.3 21.312"
   id="svg2">
  <defs
     id="defs121" />
  <line
     x1="12.5"
     y1="2.779"
     x2="12.5"
     y2="4.9000001"
     stroke="#000000"
     stroke-width="0.100"
     id="line4"
     style="stroke:#000000;stroke-width:0.1" />
  <polygon
     points="12.1,4.9 12.5,5.7 12.9,4.9 12.1,4.9 "
     id="polygon6"
     style="fill:#000000;stroke:none;stroke-width:0.1" />
  <path
     d="M 11.333,0.971 L 13.667,0.971 C 13.989,0.971 14.25,1.376 14.25,1.875 C 14.25,2.374 13.989,2.779 13.667,2.779 L 11.333,2.779 C 11.011,2.779 10.75,2.374 10.75,1.875 C 10.75,1.376 11.011,0.971 11.333,0.971"
     id="path8"
     style="fill:#d9d9d9;stroke:none;stroke-width:0.1" />
  <path
     d="M 11.333,0.971 L 13.667,0.971 C 13.989,0.971 14.25,1.376 14.25,1.875 C 14.25,2.374 13.989,2.779 13.667,2.779 L 11.333,2.779 C 11.011,2.779 10.75,2.374 10.75,1.875 C 10.75,1.376 11.011,0.971 11.333,0.971"
     id="path10"
     style="fill:none;stroke:#000000;stroke-width:0.1" />
  <text
     x="11.799"
     y="2.053"
     id="text12"
     style="font-size:1px;font-style:normal;font-weight:700;text-anchor:start;fill:#000000;font-family:luxi sans">SID</text>
  <polygon
     points="12.5,5.75 15.5,7.75 12.5,9.75 9.5,7.75 12.5,5.75 "
     id="polygon14"
     style="fill:#aff3f6;stroke:none;stroke-width:0.1" />
  <polygon
     points="12.5,5.75 15.5,7.75 12.5,9.75 9.5,7.75 12.5,5.75 "
     id="polygon16"
     style="fill:none;stroke:#000000;stroke-width:0.1" />
  <text
     x="9.8459997"
     y="8"
     id="text18"
     style="font-size:1px;font-style:normal;font-weight:700;text-anchor:start;fill:#000000;font-family:luxi sans">Our Domain?</text>
  <line
     x1="15.5"
     y1="7.75"
     x2="17.65"
     y2="7.75"
     stroke="#000000"
     stroke-width="0.100"
     id="line20"
     style="stroke:#000000;stroke-width:0.1" />
  <polygon
     points="17.65,8.15 18.45,7.75 17.65,7.35 17.65,8.15 "
     id="polygon22"
     style="fill:#000000;stroke:none;stroke-width:0.1" />
  <text
     x="16.031"
     y="7.5"
     id="text24"
     style="font-size:0.80000001px;font-style:normal;font-weight:400;text-anchor:start;fill:#000000;font-family:luxi sans">Yes</text>
  <line
     x1="12.5"
     y1="9.75"
     x2="12.493"
     y2="11.55"
     stroke="#000000"
     stroke-width="0.100"
     id="line26"
     style="stroke:#000000;stroke-width:0.1" />
  <polygon
     points="12.093,11.548 12.49,12.35 12.893,11.552 12.093,11.548 "
     id="polygon28"
     style="fill:#000000;stroke:none;stroke-width:0.1" />
  <text
     x="12.854"
     y="10.75"
     id="text30"
     style="font-size:0.80000001px;font-style:normal;font-weight:400;text-anchor:start;fill:#000000;font-family:luxi sans">No</text>
  <line
     x1="16.5"
     y1="15.25"
     x2="16.5"
     y2="17.4"
     stroke="#000000"
     stroke-width="0.100"
     id="line32"
     style="stroke:#000000;stroke-width:0.1" />
  <polygon
     points="16.1,17.4 16.5,18.2 16.9,17.4 16.1,17.4 "
     id="polygon34"
     style="fill:#000000;stroke:none;stroke-width:0.1" />
  <path
     d="M 21.833,18.9 L 24.167,18.9 C 24.489,18.9 24.75,19.305 24.75,19.804 C 24.75,20.303 24.489,20.707 24.167,20.707 L 21.833,20.707 C 21.511,20.707 21.25,20.303 21.25,19.804 C 21.25,19.305 21.511,18.9 21.833,18.9"
     id="path36"
     style="fill:#d9d9d9;stroke:none;stroke-width:0.1" />
  <path
     d="M 21.833,18.9 L 24.167,18.9 C 24.489,18.9 24.75,19.305 24.75,19.804 C 24.75,20.303 24.489,20.707 24.167,20.707 L 21.833,20.707 C 21.511,20.707 21.25,20.303 21.25,19.804 C 21.25,19.305 21.511,18.9 21.833,18.9"
     id="path38"
     style="fill:none;stroke:#000000;stroke-width:0.1" />
  <text
     x="22.264999"
     y="19.981001"
     id="text40"
     style="font-size:1px;font-style:normal;font-weight:700;text-anchor:start;fill:#000000;font-family:luxi sans">UID</text>
  <polygon
     points="16.5,18.25 18.5,19.75 16.5,21.25 14.5,19.75 16.5,18.25 "
     id="polygon42"
     style="fill:#a1fdfb;stroke:none;stroke-width:0.1" />
  <polygon
     points="16.5,18.25 18.5,19.75 16.5,21.25 14.5,19.75 16.5,18.25 "
     id="polygon44"
     style="fill:none;stroke:#000000;stroke-width:0.1" />
  <text
     x="15.023"
     y="20"
     id="text46"
     style="font-size:1px;font-style:normal;font-weight:700;text-anchor:start;fill:#000000;font-family:luxi sans">Found?</text>
  <text
     x="18.781"
     y="19.5"
     id="text48"
     style="font-size:0.80000001px;font-style:normal;font-weight:400;text-anchor:start;fill:#000000;font-family:luxi sans">Yes</text>
  <text
     x="13.354"
     y="19.5"
     id="text50"
     style="font-size:0.80000001px;font-style:normal;font-weight:400;text-anchor:start;fill:#000000;font-family:luxi sans">No</text>
  <line
     x1="18.5"
     y1="19.75"
     x2="20.4"
     y2="19.75"
     stroke="#000000"
     stroke-width="0.100"
     id="line52"
     style="stroke:#000000;stroke-width:0.1" />
  <polygon
     points="20.4,20.15 21.2,19.75 20.4,19.35 20.4,20.15 "
     id="polygon54"
     style="fill:#000000;stroke:none;stroke-width:0.1" />
  <line
     x1="14.5"
     y1="19.75"
     x2="12.6"
     y2="19.75"
     stroke="#000000"
     stroke-width="0.100"
     id="line56"
     style="stroke:#000000;stroke-width:0.1" />
  <polygon
     points="12.6,19.35 11.8,19.75 12.6,20.15 12.6,19.35 "
     id="polygon58"
     style="fill:#000000;stroke:none;stroke-width:0.1" />
  <path
     d="M 8.833,18.9 L 11.167,18.9 C 11.489,18.9 11.75,19.305 11.75,19.804 C 11.75,20.303 11.489,20.707 11.167,20.707 L 8.833,20.707 C 8.511,20.707 8.25,20.303 8.25,19.804 C 8.25,19.305 8.511,18.9 8.833,18.9"
     id="path60"
     style="fill:#d7d7d7;stroke:none;stroke-width:0.1" />
  <path
     d="M 8.833,18.9 L 11.167,18.9 C 11.489,18.9 11.75,19.305 11.75,19.804 C 11.75,20.303 11.489,20.707 11.167,20.707 L 8.833,20.707 C 8.511,20.707 8.25,20.303 8.25,19.804 C 8.25,19.305 8.511,18.9 8.833,18.9"
     id="path62"
     style="fill:none;stroke:#000000;stroke-width:0.1" />
  <text
     x="9.276"
     y="19.981001"
     id="text64"
     style="font-size:1px;font-style:normal;font-weight:700;text-anchor:start;fill:#000000;font-family:luxi sans">Fail</text>
  <rect
     width="4.1399999"
     height="2.0999999"
     x="18.419001"
     y="6.6500001"
     id="rect66"
     style="fill:#d9d6d6;stroke:none;stroke-width:0" />
  <rect
     width="4.1399999"
     height="2.0999999"
     x="18.419001"
     y="6.6500001"
     id="rect68"
     style="fill:none;stroke:#000000;stroke-width:0.1" />
  <text
     x="18.969"
     y="7.8779998"
     id="text70"
     style="font-size:1px;font-style:normal;font-weight:700;text-anchor:start;fill:#000000;font-family:luxi sans">PassDB</text>
  <line
     x1="22.75"
     y1="6.5"
     x2="25"
     y2="5.25"
     stroke="#000000"
     stroke-width="0.050"
     id="line72"
     style="stroke:#000000;stroke-width:0.05" />
  <line
     x1="22.75"
     y1="8.75"
     x2="25"
     y2="10"
     stroke="#000000"
     stroke-width="0.050"
     id="line74"
     style="stroke:#000000;stroke-width:0.05" />
  <rect
     width="8"
     height="5.25"
     x="25.25"
     y="5"
     id="rect76"
     style="fill:#ffffff;stroke:none;stroke-width:0" />
  <rect
     width="8"
     height="5.25"
     x="25.25"
     y="5"
     id="rect78"
     style="fill:none;stroke:#000000;stroke-width:0.1" />
  <text
     x="28.089001"
     y="5.75"
     id="text80"
     style="font-size:1px;font-style:normal;font-weight:700;text-anchor:start;fill:#000000;font-family:luxi sans">guest</text>
  <text
     x="26.85"
     y="6.75"
     id="text82"
     style="font-size:1px;font-style:normal;font-weight:700;text-anchor:start;fill:#000000;font-family:luxi sans">smbpasswd</text>
  <text
     x="27.709"
     y="7.75"
     id="text84"
     style="font-size:1px;font-style:normal;font-weight:700;text-anchor:start;fill:#000000;font-family:luxi sans">tdbsam</text>
  <text
     x="27.511999"
     y="8.75"
     id="text86"
     style="font-size:1px;font-style:normal;font-weight:700;text-anchor:start;fill:#000000;font-family:luxi sans">ldapsam</text>
  <text
     x="25.799999"
     y="9.75"
     id="text88"
     style="font-size:1px;font-style:normal;font-weight:700;text-anchor:start;fill:#000000;font-family:luxi sans">ldapsam_compat</text>
  <line
     x1="25.25"
     y1="6"
     x2="33.25"
     y2="6"
     stroke="#000000"
     stroke-width="0.050"
     id="line90"
     style="stroke:#000000;stroke-width:0.05" />
  <line
     x1="25.25"
     y1="7"
     x2="33.25"
     y2="7"
     stroke="#000000"
     stroke-width="0.050"
     id="line92"
     style="stroke:#000000;stroke-width:0.05" />
  <line
     x1="25.25"
     y1="8"
     x2="33.25"
     y2="8"
     stroke="#000000"
     stroke-width="0.050"
     id="line94"
     style="stroke:#000000;stroke-width:0.05" />
  <line
     x1="25.25"
     y1="9"
     x2="33.25"
     y2="9"
     stroke="#000000"
     stroke-width="0.050"
     id="line96"
     style="stroke:#000000;stroke-width:0.05" />
  <rect
     width="4.4899998"
     height="2.0999999"
     x="10.244"
     y="12.4"
     id="rect98"
     style="fill:#d7d7d7;stroke:none;stroke-width:0" />
  <rect
     width="4.4899998"
     height="2.0999999"
     x="10.244"
     y="12.4"
     id="rect100"
     style="fill:none;stroke:#000000;stroke-width:0.1" />
  <text
     x="10.794"
     y="13.628"
     id="text102"
     style="font-size:1px;font-style:normal;font-weight:700;text-anchor:start;fill:#000000;font-family:luxi sans">Winbind</text>
  <rect
     width="7.5"
     height="2.75"
     x="0.5"
     y="12"
     id="rect104"
     style="fill:#ffffff;stroke:none;stroke-width:0" />
  <rect
     width="7.5"
     height="2.75"
     x="0.5"
     y="12"
     id="rect106"
     style="fill:none;stroke:#000000;stroke-width:0.1" />
  <text
     x="0.066"
     y="13"
     id="text108"
     style="font-size:1px;font-style:normal;font-weight:700;text-anchor:start;fill:#000000;font-family:luxi sans">winbindd_idmap.tdb</text>
  <text
     x="2.513"
     y="14.25"
     id="text110"
     style="font-size:1px;font-style:normal;font-weight:700;text-anchor:start;fill:#000000;font-family:luxi sans">ldapsam</text>
  <line
     x1="8"
     y1="13.375"
     x2="0.5"
     y2="13.375"
     stroke="#000000"
     stroke-width="0.050"
     id="line112"
     style="stroke:#000000;stroke-width:0.05" />
  <line
     x1="8.25"
     y1="12"
     x2="10.25"
     y2="12.75"
     stroke="#000000"
     stroke-width="0.050"
     id="line114"
     style="stroke:#000000;stroke-width:0.05" />
  <line
     x1="8.25"
     y1="14.75"
     x2="10.25"
     y2="14"
     stroke="#000000"
     stroke-width="0.050"
     id="line116"
     style="stroke:#000000;stroke-width:0.05" />
  <polyline
     fill="none"
     stroke="#000000"
     stroke-width="0.100"
     points="12.489,14.500 12.489,15.500 20.489,15.500 20.489,8.750 "
     id="polyline118"
     style="fill:none;stroke:#000000;stroke-width:0.1" />
</svg>
