<?xml version="1.0" encoding="utf-8"?>
<!-- Generator: Adobe Illustrator 19.0.0, SVG Export Plug-In . SVG Version: 6.00 Build 0)  -->
<svg version="1.1" id="圖層_1" xmlns="http://www.w3.org/2000/svg" xmlns:xlink="http://www.w3.org/1999/xlink" x="0px" y="0px"
	 viewBox="0 0 203.7 135" enable-background="new 0 0 203.7 135" xml:space="preserve">
<g>
	<g id="XMLID_13_">
		<rect id="XMLID_14_" x="185" y="94" fill="#0AFF04" width="16.7" height="7.7"/>
	</g>
	<g id="XMLID_11_">
		
			<rect id="XMLID_12_" x="161.4" y="25.6" transform="matrix(0.7071 0.7071 -0.7071 0.7071 72.4279 -106.9232)" fill="#0AFF04" width="7.7" height="16.7"/>
	</g>
	<g id="XMLID_9_">
		<rect id="XMLID_10_" x="1.2" y="90.8" fill="#0AFF04" width="16.1" height="7.7"/>
	</g>
	<g id="XMLID_7_">
		
			<rect id="XMLID_8_" x="29.8" y="30.2" transform="matrix(0.7071 0.7071 -0.7071 0.7071 35.2453 -17.0354)" fill="#0AFF04" width="16.7" height="7.7"/>
	</g>
	<g id="XMLID_93_">
		<rect id="XMLID_6_" x="96.9" y="0.1" fill="#0AFF04" width="7.7" height="16.7"/>
	</g>
	<g id="XMLID_4_">
		<path id="XMLID_5_" fill="#0AFF04" d="M18.6,134.7c-3.6-9.9-5.5-20.1-5.5-30.3c0-48.3,39.3-87.6,87.6-87.6s87.6,39.3,87.6,87.6
			c0,10-1.8,19.9-5.2,29.6l-12-4.3c3-8.3,4.5-16.8,4.5-25.3c0-41.3-33.6-74.9-74.9-74.9s-74.9,33.6-74.9,74.9
			c0,8.7,1.6,17.4,4.7,25.9L18.6,134.7z"/>
	</g>
	<g id="XMLID_84_">
		<path id="XMLID_86_" fill="#0AFF04" d="M42.4,124.6c-2.6-7-3.9-14.2-3.9-21.5c0-34.3,27.9-62.2,62.2-62.2S163,68.8,163,103.1
			c0,7.1-1.2,14.2-3.7,21l-7.2-2.6c2.2-6,3.3-12.2,3.3-18.4c0-30.1-24.5-54.6-54.6-54.6S46.2,73,46.2,103.1c0,6.4,1.2,12.7,3.4,18.9
			L42.4,124.6z"/>
	</g>
	<g id="XMLID_3_">
		<path id="XMLID_83_" fill="#0AFF04" d="M81.1,119.1c0,0,0.6-1.4,1.9-3.7c1.3-2.3,3.4-5.4,6-8.9c2.7-3.5,5.9-7.4,9.9-11.2
			c4-3.8,8.8-7.2,13.2-11.1c4.4-3.8,8.8-7.7,13.1-11.2c4.2-3.6,8.2-6.8,11.6-9.6c6.8-5.6,11.4-9.3,11.4-9.3l0.7,0.7
			c0,0-3.8,4.5-9.6,11c-2.9,3.3-6.2,7.1-9.9,11.2c-3.6,4.1-7.6,8.4-11.5,12.7c-4,4.3-7.6,8.9-11.4,12.8c-3.9,3.8-8,7-11.6,9.6
			c-3.6,2.6-6.8,4.6-9.2,5.8c-2.3,1.3-3.8,1.9-3.8,1.9L81.1,119.1z"/>
	</g>
	<g id="XMLID_1_">
		<circle id="XMLID_2_" fill="#0AFF04" cx="101.7" cy="98.5" r="11.6"/>
	</g>
</g>
</svg>
