<?xml version="1.0" encoding="utf-8"?>
<!-- Generator: Adobe Illustrator 19.0.0, SVG Export Plug-In . SVG Version: 6.00 Build 0)  -->
<svg version="1.1" id="圖層_1" xmlns="http://www.w3.org/2000/svg" xmlns:xlink="http://www.w3.org/1999/xlink" x="0px" y="0px"
	 viewBox="0 0 203.7 135" enable-background="new 0 0 203.7 135" xml:space="preserve">
<path fill="none" stroke="#0AFF04" stroke-width="10" stroke-miterlimit="10" d="M198.5,76.8c-0.6-33.7-11.5-54.4-16.2-61.7
	c-0.8-1.2-2.8-3.3-4-4.1c-11.2-7.5-21.4-6.2-26.5-4.8c-0.7,0.2-2.5,1.5-3.4,2.6l-7.3,9.3c-2.5,3.1-7,5.3-10.9,5.3H73.6
	c-4,0-8.4-2.2-10.9-5.3l-7.4-9.3c-0.9-1.1-2.7-2.4-3.4-2.6c-2-0.5-4.7-1.1-8-1.1c-5.2,0-11.6,1.3-18.5,5.9c-1.2,0.8-3.2,2.8-4,4.1
	c-4.7,7.3-15.7,28-16.2,61.7c-0.8,46.6,6.1,51.1,17.5,53c10.7,1.6,23.2-21.9,27.8-30.8l0.7-1.4c1.4-2.7,4.3-6.4,7.3-8.1
	c6.4-3.7,18.8-8.2,41.9-8.5v0c0.9,0,1.7,0,2.6,0v0c23.1,0.3,35.5,4.7,41.9,8.5c3,1.7,5.9,5.4,7.3,8.1l0.7,1.4
	c4.7,8.9,17.1,32.4,27.9,30.8C192.4,127.9,199.3,123.4,198.5,76.8z"/>
<path fill="#0AFF04" d="M54.9,59.5c0,0.8-0.6,1.4-1.4,1.4h-8v8c0,0.8-0.6,1.4-1.4,1.4h-7.9c-0.8,0-1.4-0.6-1.4-1.4v-8h-8
	c-0.8,0-1.4-0.6-1.4-1.4v-7.9c0-0.8,0.6-1.4,1.4-1.4h8v-8c0-0.8,0.6-1.4,1.4-1.4H44c0.8,0,1.4,0.6,1.4,1.4v8h8
	c0.8,0,1.4,0.6,1.4,1.4V59.5z"/>
<path fill="#0AFF04" d="M161.4,38.6c3.8,0,6.8,3.1,6.8,6.8c0,3.8-3.1,6.8-6.8,6.8c-3.8,0-6.8-3.1-6.8-6.8
	C154.5,41.6,157.6,38.6,161.4,38.6z"/>
<path fill="#0AFF04" d="M150.2,62.7c-3.8,0-6.8-3.1-6.8-6.8c0-3.8,3.1-6.8,6.8-6.8c3.8,0,6.8,3.1,6.8,6.8
	C157,59.7,154,62.7,150.2,62.7z"/>
<path fill="#0AFF04" d="M161.4,73c-3.8,0-6.8-3.1-6.8-6.8c0-3.8,3.1-6.8,6.8-6.8c3.8,0,6.8,3.1,6.8,6.8C168.2,70,165.1,73,161.4,73z
	"/>
<path fill="#0AFF04" d="M172.5,62.7c-3.8,0-6.8-3.1-6.8-6.8c0-3.8,3.1-6.8,6.8-6.8c3.8,0,6.8,3.1,6.8,6.8
	C179.4,59.7,176.3,62.7,172.5,62.7z"/>
</svg>
