<?xml version="1.0" encoding="utf-8"?>
<!-- Generator: Adobe Illustrator 19.0.0, SVG Export Plug-In . SVG Version: 6.00 Build 0)  -->
<svg version="1.1" id="圖層_1" xmlns="http://www.w3.org/2000/svg" xmlns:xlink="http://www.w3.org/1999/xlink" x="0px" y="0px"
	 viewBox="0 0 186 135" enable-background="new 0 0 186 135" xml:space="preserve">
<path fill="#0AFF04" d="M124.8,67.7c0,1.6-0.8,3-2.2,3.8L76.7,98c-1.4,0.8-3,0.8-4.4,0c-1.4-0.8-2.2-2.2-2.2-3.8v-53
	c0-1.6,0.8-3,2.2-3.8c1.4-0.8,3-0.8,4.4,0L122.6,64C124,64.7,124.8,66.2,124.8,67.7z"/>
<path fill="none" stroke="#0AFF04" stroke-width="10" stroke-miterlimit="10" d="M174.8,129.2H12.2c-3.1,0-5.7-2.6-5.7-5.7V11.9
	c0-3.1,2.6-5.7,5.7-5.7h162.7c3.1,0,5.7,2.6,5.7,5.7v111.7C180.5,126.7,177.9,129.2,174.8,129.2z"/>
</svg>
