<?xml version="1.0" encoding="utf-8"?>
<!-- Generator: Adobe Illustrator 19.0.0, SVG Export Plug-In . SVG Version: 6.00 Build 0)  -->
<svg version="1.1" id="圖層_1" xmlns="http://www.w3.org/2000/svg" xmlns:xlink="http://www.w3.org/1999/xlink" x="0px" y="0px"
	 viewBox="0 0 128 135" enable-background="new 0 0 128 135" xml:space="preserve">
<path id="XMLID_14_" fill="#0AFF04" d="M109.2,134.6c-0.1,0-0.2-0.1-0.3-0.1c-1.8-0.4-3.1-1.5-3.8-3.2c-1.3-3.2-2.6-6.4-4-9.6
	c-0.1-0.2-0.2-0.5-0.3-0.8c-0.2,0.1-0.4,0.1-0.6,0.2c-3,1.2-5.9,2.4-8.9,3.5c-0.3,0.1-0.7,0.3-1,0.3c-2.3,0.5-4.1-0.8-4.2-3.2
	c-0.1-2.3,0-4.5,0-6.8c0-12.8,0-25.6,0-38.4c0-0.7,0.1-1.3,0.2-2c0.3-1.1,1.2-1.4,2.2-0.9c0.5,0.3,1,0.7,1.5,1.1
	c8.1,8.1,16.3,16.3,24.4,24.4c2.6,2.6,5.2,5.2,7.7,7.7c0.8,0.8,1.4,1.8,1.2,3.1c-0.2,1.4-1.2,2.1-2.4,2.6c-2.1,0.9-4.2,1.7-6.3,2.5
	c-1.3,0.5-2.7,1.1-4.1,1.6c0.1,0.2,0.1,0.4,0.2,0.5c1.3,3.2,2.6,6.4,4,9.6c1.5,3.5-0.6,7-3.8,7.6c-0.1,0-0.1,0.1-0.2,0.1
	C110.3,134.6,109.8,134.6,109.2,134.6z"/>
<g>
	<path fill="#0AFF04" d="M79.2,116.7l0-3.9c0-0.9,0-1.8,0-2.7c-3.9,4.2-8.4,6.9-13.2,7.7V86.8c4.5,0.1,9,0.5,13.2,1.2
		c0-1.7,0-3.4,0-5.1c-4.2-0.7-8.6-1.1-13.1-1.2V66.2h28.3c-0.1,1.4-0.2,2.8-0.3,4.1c1.5,1.5,3,3,4.6,4.6c0.4-2.8,0.6-5.7,0.8-8.7
		h20.2c-0.6,8.2-3.1,15.9-6.9,22.8c1.1,1.1,2.1,2.1,3.2,3.2l0.5,0.5c5.4-9.1,8.4-19.7,8.4-31c0-13.2-4.2-25.3-11.3-35.3
		c-0.9-1.3-1.9-2.6-2.9-3.8C99.4,9,82.4,0.4,63.5,0.4c0,0-0.1,0-0.1,0c0,0,0,0-0.1,0c-0.1,0-0.1,0-0.2,0
		C44.4,0.5,27.6,9.1,16.4,22.5c-1,1.2-2,2.5-2.9,3.8C6.4,36.4,2.2,48.5,2.2,61.7c0,13.2,4.2,25.3,11.3,35.3c0.9,1.3,1.9,2.6,2.9,3.8
		c11.2,13.4,28,22,46.7,22.1c0.1,0,0.1,0,0.2,0c0,0,0,0,0.1,0c0,0,0.1,0,0.1,0c5.4,0,10.7-0.7,15.7-2.1
		C79.2,119.5,79.2,118.1,79.2,116.7z M119.8,61.2H99.5c0-9-1.2-17.5-3.3-25.1c5-1.8,9.5-4.1,13.4-6.7
		C115.9,38.4,119.7,49.3,119.8,61.2z M106.6,25.5c-3.4,2.2-7.4,4.2-11.8,5.8c-3.3-9.7-8-17.7-13.7-23.2
		C91.1,11.5,99.9,17.6,106.6,25.5z M66,5.6c10.2,1.6,19,12.2,24,27.3c-7.2,2.1-15.4,3.4-24,3.6V5.6z M66,41.6
		c9.1-0.2,17.7-1.6,25.4-3.9c1.9,7.1,3,15.1,3,23.5H66V41.6z M45.6,8.4C40,13.8,35.3,21.8,32.1,31.3c-4.3-1.6-8.2-3.6-11.6-5.8
		C27.1,17.7,35.7,11.7,45.6,8.4z M17.5,29.4c3.8,2.5,8.2,4.8,13.1,6.6c-2.1,7.7-3.3,16.2-3.4,25.2h-20C7.4,49.3,11.2,38.4,17.5,29.4
		z M7.5,66.2h19.9c0.3,7.5,1.5,14.7,3.3,21.2c-4.9,1.8-9.3,4.1-13.1,6.6C11.9,86,8.3,76.5,7.5,66.2z M20.5,97.9
		c3.4-2.2,7.2-4.1,11.5-5.8c3.2,9.5,7.9,17.5,13.5,22.9C35.7,111.7,27.1,105.7,20.5,97.9z M61,117.8c-10.3-1.4-19.2-12-24.3-27.2
		C44,88.4,52.3,87,61,86.8V117.8z M61,81.8c-9.2,0.2-17.9,1.6-25.7,4c-1.6-6-2.6-12.6-2.9-19.6H61V81.8z M61,61.2H32.3
		c0-8.5,1.1-16.4,3-23.6c7.7,2.4,16.4,3.8,25.7,4V61.2z M61,36.6c-8.8-0.2-17-1.5-24.3-3.7C41.8,17.6,50.7,7,61,5.6V36.6z"/>
</g>
</svg>
