<?xml version="1.0" encoding="UTF-8" standalone="no"?>
<!-- Created with Inkscape (http://www.inkscape.org/) -->
<svg
   xmlns:svg="http://www.w3.org/2000/svg"
   xmlns="http://www.w3.org/2000/svg"
   version="1.0"
   width="33.269001cm"
   height="34.450001cm"
   viewBox="0.35 1.35 33.619 35.8"
   id="svg2">
  <defs
     id="defs197" />
  <rect
     width="10.55"
     height="1.9"
     x="3.375"
     y="1.4"
     id="rect4"
     style="fill:#ffffff;stroke:none;stroke-width:0" />
  <rect
     width="13.364128"
     height="1.8878119"
     x="3.381094"
     y="1.406094"
     id="rect6"
     style="fill:none;stroke:#000000;stroke-width:0.11218806" />
  <text
     x="4.2309999"
     y="2.493"
     id="text8"
     style="font-size:0.80000001px;font-style:normal;font-weight:400;text-anchor:start;fill:#000000;font-family:sans">Samba DocBook Source (XML)</text>
  <polygon
     points="4.653,6.75 12.794,6.75 12.066,8.75 3.925,8.75 4.653,6.75 "
     id="polygon10"
     style="fill:#ffffff;stroke:none;stroke-width:0.1" />
  <polygon
     points="4.653,6.75 12.794,6.75 12.066,8.75 3.925,8.75 4.653,6.75 "
     transform="matrix(1.211345,0,0,0.9951043,-0.8246336,3.7941591e-2)"
     id="polygon12"
     style="fill:none;stroke:#000000;stroke-width:0.1" />
  <text
     x="5.1760001"
     y="7.8920002"
     id="text14"
     style="font-size:0.80000001px;font-style:normal;font-weight:400;text-anchor:start;fill:#000000;font-family:sans">expand-sambadoc.xsl</text>
  <line
     x1="8.6499996"
     y1="3.3"
     x2="8.7130003"
     y2="6.263"
     stroke="#000000"
     stroke-width="0.100"
     id="line16"
     style="stroke:#000000;stroke-width:0.1" />
  <polygon
     points="8.721,6.638 8.461,6.144 8.713,6.263 8.96,6.133 8.721,6.638 "
     id="polygon18"
     style="fill:#000000;stroke:none;stroke-width:0.1" />
  <polygon
     points="8.721,6.638 8.461,6.144 8.713,6.263 8.96,6.133 8.721,6.638 "
     id="polygon20"
     style="fill:none;stroke:#000000;stroke-width:0.1" />
  <rect
     width="8.1999998"
     height="1.9"
     x="4.8499999"
     y="11.65"
     id="rect22"
     style="fill:#ffffff;stroke:none;stroke-width:0" />
  <rect
     width="10.289943"
     height="1.8883237"
     x="4.8558378"
     y="11.655838"
     id="rect24"
     style="fill:none;stroke:#000000;stroke-width:0.11167629" />
  <text
     x="5.6350002"
     y="12.742"
     id="text26"
     style="font-size:0.80000001px;font-style:normal;font-weight:400;text-anchor:start;fill:#000000;font-family:sans">DocBook Source (XML)</text>
  <line
     x1="7.9499998"
     y1="8.5500002"
     x2="8.8009996"
     y2="11.187"
     stroke="#000000"
     stroke-width="0.100"
     id="line28"
     style="stroke:#000000;stroke-width:0.1" />
  <polygon
     points="8.916,11.544 8.524,11.144 8.801,11.187 9,10.991 8.916,11.544 "
     id="polygon30"
     style="fill:#000000;stroke:none;stroke-width:0.1" />
  <polygon
     points="8.916,11.544 8.524,11.144 8.801,11.187 9,10.991 8.916,11.544 "
     id="polygon32"
     style="fill:none;stroke:#000000;stroke-width:0.1" />
  <rect
     width="6.6999998"
     height="1.9"
     x="7"
     y="21.700001"
     id="rect34"
     style="fill:#ffffff;stroke:none;stroke-width:0" />
  <rect
     width="6.6999998"
     height="1.9"
     x="7"
     y="21.700001"
     id="rect36"
     style="fill:none;stroke:#000000;stroke-width:0.1" />
  <text
     x="7.704"
     y="22.792999"
     id="text38"
     style="font-size:0.80000001px;font-style:normal;font-weight:400;text-anchor:start;fill:#000000;font-family:sans" />
  <text
     x="7.704"
     y="22.792999"
     id="text5583"
     style="font-size:0.80000001px;font-style:normal;font-weight:400;text-anchor:start;fill:#000000;font-family:sans" />
  <polygon
     points="7.328,16.55 12.319,16.55 11.591,18.55 6.6,18.55 7.328,16.55 "
     id="polygon40"
     style="fill:#ffffff;stroke:none;stroke-width:0.1" />
  <polygon
     points="7.328,16.55 12.319,16.55 11.591,18.55 6.6,18.55 7.328,16.55 "
     transform="matrix(1.1005379,0,0,0.9976095,-0.6611594,4.1953777e-2)"
     id="polygon42"
     style="fill:none;stroke:#000000;stroke-width:0.1" />
  <text
     x="7.3450627"
     y="17.691999"
     id="text44"
     style="font-size:0.80000001px;font-style:normal;font-weight:400;text-anchor:start;fill:#000000;font-family:sans">xslt/man.xsl</text>
  <line
     x1="8.6999998"
     y1="13.45"
     x2="9.658"
     y2="16.091999"
     stroke="#000000"
     stroke-width="0.100"
     id="line46"
     style="stroke:#000000;stroke-width:0.1" />
  <polygon
     points="9.785,16.445 9.38,16.06 9.658,16.092 9.85,15.89 9.785,16.445 "
     id="polygon48"
     style="fill:#000000;stroke:none;stroke-width:0.1" />
  <polygon
     points="9.785,16.445 9.38,16.06 9.658,16.092 9.85,15.89 9.785,16.445 "
     id="polygon50"
     style="fill:none;stroke:#000000;stroke-width:0.1" />
  <g
     id="g5595">
    <line
       style="stroke:#000000;stroke-width:0.1"
       id="line52"
       stroke-width="0.100"
       stroke="#000000"
       y2="21.247999"
       x2="10.17"
       y1="18.549999"
       x1="9.0959997" />
    <polygon
       points="10.309,21.596 9.891,21.224 10.17,21.248 10.356,21.039 10.309,21.596 "
       id="polygon54"
       style="fill:#000000;stroke:none;stroke-width:0.1" />
    <polygon
       points="10.309,21.596 9.891,21.224 10.17,21.248 10.356,21.039 10.309,21.596 "
       id="polygon56"
       style="fill:none;stroke:#000000;stroke-width:0.1" />
  </g>
  <polygon
     points="18.853,16.6 27.394,16.6 26.666,18.6 18.125,18.6 18.853,16.6 "
     id="polygon58"
     style="fill:#ffffff;stroke:none;stroke-width:0.1" />
  <polygon
     points="18.853,16.6 27.394,16.6 26.666,18.6 18.125,18.6 18.853,16.6 "
     transform="matrix(1.1478017,0,0,0.9965254,-2.9687126,6.1153121e-2)"
     id="polygon60"
     style="fill:none;stroke:#000000;stroke-width:0.1" />
  <text
     x="18.508806"
     y="17.742001"
     id="text62"
     style="font-size:0.80000001px;font-style:normal;font-weight:400;text-anchor:start;fill:#000000;font-family:sans">db2latex (xslt/latex.xsl)</text>
  <rect
     width="5.3000002"
     height="1.9"
     x="20.75"
     y="21.549999"
     id="rect64"
     style="fill:#ffffff;stroke:none;stroke-width:0" />
  <rect
     width="5.7650704"
     height="1.8958195"
     x="20.75209"
     y="21.55209"
     id="rect66"
     style="fill:none;stroke:#000000;stroke-width:0.10418041" />
  <text
     x="20.932089"
     y="22.643"
     id="text68"
     style="font-size:0.80000001px;font-style:normal;font-weight:400;text-anchor:start;fill:#000000;font-family:sans">LaTeX Source</text>
  <line
     x1="11"
     y1="13.55"
     x2="22.650999"
     y2="16.481001"
     stroke="#000000"
     stroke-width="0.100"
     id="line70"
     style="stroke:#000000;stroke-width:0.1" />
  <polygon
     points="23.015,16.573 22.469,16.693 22.651,16.481 22.591,16.208 23.015,16.573 "
     id="polygon72"
     style="fill:#000000;stroke:none;stroke-width:0.1" />
  <polygon
     points="23.015,16.573 22.469,16.693 22.651,16.481 22.591,16.208 23.015,16.573 "
     id="polygon74"
     style="fill:none;stroke:#000000;stroke-width:0.1" />
  <line
     x1="22.396"
     y1="18.6"
     x2="23.243"
     y2="21.089001"
     stroke="#000000"
     stroke-width="0.100"
     id="line76"
     style="stroke:#000000;stroke-width:0.1" />
  <polygon
     points="23.364,21.444 22.966,21.051 23.243,21.089 23.439,20.89 23.364,21.444 "
     id="polygon78"
     style="fill:#000000;stroke:none;stroke-width:0.1" />
  <polygon
     points="23.364,21.444 22.966,21.051 23.243,21.089 23.439,20.89 23.364,21.444 "
     id="polygon80"
     style="fill:none;stroke:#000000;stroke-width:0.1" />
  <polygon
     points="18.828,29.2 23.219,29.2 22.491,31.2 18.1,31.2 18.828,29.2 "
     id="polygon82"
     style="fill:#ffffff;stroke:none;stroke-width:0.1" />
  <polygon
     points="18.828,29.2 23.219,29.2 22.491,31.2 18.1,31.2 18.828,29.2 "
     transform="matrix(1.1760017,0,0,0.9958897,-3.1815209,0.1241298)"
     id="polygon84"
     style="fill:none;stroke:#000000;stroke-width:0.1" />
  <text
     x="19.246"
     y="30.341999"
     id="text86"
     style="font-size:0.80000001px;font-style:normal;font-weight:400;text-anchor:start;fill:#000000;font-family:sans">PDFLaTeX</text>
  <rect
     width="2.3"
     height="1.9"
     x="17"
     y="33.849998"
     id="rect88"
     style="fill:#ffffff;stroke:none;stroke-width:0" />
  <rect
     width="2.3"
     height="1.9"
     x="17"
     y="33.849998"
     id="rect90"
     style="fill:none;stroke:#000000;stroke-width:0.1" />
  <text
     x="17.582001"
     y="34.943001"
     id="text92"
     style="font-size:0.80000001px;font-style:normal;font-weight:400;text-anchor:start;fill:#000000;font-family:sans">PDF</text>
  <line
     x1="23.4"
     y1="23.450001"
     x2="21.209"
     y2="28.75"
     stroke="#000000"
     stroke-width="0.100"
     id="line94"
     style="stroke:#000000;stroke-width:0.1" />
  <polygon
     points="21.066,29.097 21.026,28.539 21.209,28.75 21.488,28.73 21.066,29.097 "
     id="polygon96"
     style="fill:#000000;stroke:none;stroke-width:0.1" />
  <polygon
     points="21.066,29.097 21.026,28.539 21.209,28.75 21.488,28.73 21.066,29.097 "
     id="polygon98"
     style="fill:none;stroke:#000000;stroke-width:0.1" />
  <line
     x1="20.296"
     y1="31.200001"
     x2="18.455999"
     y2="33.472"
     stroke="#000000"
     stroke-width="0.100"
     id="line100"
     style="stroke:#000000;stroke-width:0.1" />
  <polygon
     points="18.22,33.763 18.341,33.217 18.456,33.472 18.729,33.532 18.22,33.763 "
     id="polygon102"
     style="fill:#000000;stroke:none;stroke-width:0.1" />
  <polygon
     points="18.22,33.763 18.341,33.217 18.456,33.472 18.729,33.532 18.22,33.763 "
     id="polygon104"
     style="fill:none;stroke:#000000;stroke-width:0.1" />
  <polygon
     points="13.703,16.6 17.944,16.6 17.216,18.6 12.975,18.6 13.703,16.6 "
     id="polygon106"
     style="fill:#ffffff;stroke:none;stroke-width:0.1" />
  <polygon
     points="13.703,16.6 17.944,16.6 17.216,18.6 12.975,18.6 13.703,16.6 "
     id="polygon108"
     style="fill:none;stroke:#000000;stroke-width:0.1" />
  <text
     x="13.54009"
     y="17.742001"
     id="text110"
     style="font-size:0.80000001px;font-style:normal;font-weight:400;text-anchor:start;fill:#000000;font-family:sans">xslt/fo.xsl</text>
  <line
     x1="8.9499998"
     y1="13.55"
     x2="15.379"
     y2="16.403"
     stroke="#000000"
     stroke-width="0.100"
     id="line112"
     style="stroke:#000000;stroke-width:0.1" />
  <polygon
     points="15.721,16.555 15.163,16.58 15.379,16.403 15.366,16.123 15.721,16.555 "
     id="polygon114"
     style="fill:#000000;stroke:none;stroke-width:0.1" />
  <polygon
     points="15.721,16.555 15.163,16.58 15.379,16.403 15.366,16.123 15.721,16.555 "
     id="polygon116"
     style="fill:none;stroke:#000000;stroke-width:0.1" />
  <rect
     width="5.3000002"
     height="1.9"
     x="14.039402"
     y="21.591343"
     id="rect118"
     style="fill:#ffffff;stroke:none;stroke-width:0" />
  <rect
     width="6.3466492"
     height="1.8908348"
     x="14.043984"
     y="21.595926"
     id="rect120"
     style="fill:none;stroke:#000000;stroke-width:0.10916522" />
  <text
     x="14.691403"
     y="22.683344"
     id="text122"
     style="font-size:0.80000001px;font-style:normal;font-weight:400;text-anchor:start;fill:#000000;font-family:sans">FO Document</text>
  <polygon
     points="15.178,29.25 17.769,29.25 17.041,31.25 14.45,31.25 15.178,29.25 "
     id="polygon130"
     style="fill:#ffffff;stroke:none;stroke-width:0.1" />
  <polygon
     points="15.178,29.25 17.769,29.25 17.041,31.25 14.45,31.25 15.178,29.25 "
     id="polygon132"
     style="fill:none;stroke:#000000;stroke-width:0.1" />
  <text
     x="15.537"
     y="30.392"
     id="text134"
     style="font-size:0.80000001px;font-style:normal;font-weight:400;text-anchor:start;fill:#000000;font-family:sans">FOP</text>
  <line
     x1="17.1"
     y1="23.549999"
     x2="16.527"
     y2="28.766001"
     stroke="#000000"
     stroke-width="0.100"
     id="line136"
     style="stroke:#000000;stroke-width:0.1" />
  <polygon
     points="16.486,29.139 16.292,28.615 16.527,28.766 16.789,28.669 16.486,29.139 "
     id="polygon138"
     style="fill:#000000;stroke:none;stroke-width:0.1" />
  <polygon
     points="16.486,29.139 16.292,28.615 16.527,28.766 16.789,28.669 16.486,29.139 "
     id="polygon140"
     style="fill:none;stroke:#000000;stroke-width:0.1" />
  <line
     x1="15.746"
     y1="31.25"
     x2="17.819"
     y2="33.493"
     stroke="#000000"
     stroke-width="0.100"
     id="line142"
     style="stroke:#000000;stroke-width:0.1" />
  <polygon
     points="18.074,33.768 17.551,33.571 17.819,33.493 17.918,33.231 18.074,33.768 "
     id="polygon144"
     style="fill:#000000;stroke:none;stroke-width:0.1" />
  <polygon
     points="18.074,33.768 17.551,33.571 17.819,33.493 17.918,33.231 18.074,33.768 "
     id="polygon146"
     style="fill:none;stroke:#000000;stroke-width:0.1" />
  <polygon
     points="1.528,16.5 6.519,16.5 5.791,18.5 0.8,18.5 1.528,16.5 "
     id="polygon148"
     style="fill:#ffffff;stroke:none;stroke-width:0.1" />
  <polygon
     points="1.528,16.5 6.519,16.5 5.791,18.5 0.8,18.5 1.528,16.5 "
     transform="matrix(1.1005379,0,0,0.9976095,-0.6577968,4.1834251e-2)"
     id="polygon150"
     style="fill:none;stroke:#000000;stroke-width:0.1" />
  <text
     x="1.001155"
     y="17.642"
     id="text152"
     style="font-size:0.80000001px;font-style:normal;font-weight:400;text-anchor:start;fill:#000000;font-family:sans">xslt/html.xsl</text>
  <rect
     width="6.0999999"
     height="1.9"
     x="0.34134367"
     y="21.700001"
     id="rect154"
     style="fill:#ffffff;stroke:none;stroke-width:0" />
  <rect
     width="6.0862045"
     height="2.4659617"
     x="0.40689769"
     y="21.706898"
     id="rect156"
     style="fill:none;stroke:#000000;stroke-width:0.11379541" />
  <line
     x1="6.9000001"
     y1="13.55"
     x2="4.3629999"
     y2="16.150999"
     stroke="#000000"
     stroke-width="0.100"
     id="line160"
     style="stroke:#000000;stroke-width:0.1" />
  <polygon
     points="4.102,16.42 4.272,15.887 4.363,16.151 4.63,16.236 4.102,16.42 "
     id="polygon162"
     style="fill:#000000;stroke:none;stroke-width:0.1" />
  <polygon
     points="4.102,16.42 4.272,15.887 4.363,16.151 4.63,16.236 4.102,16.42 "
     id="polygon164"
     style="fill:none;stroke:#000000;stroke-width:0.1" />
  <line
     x1="3.296"
     y1="18.5"
     x2="3.427"
     y2="21.214001"
     stroke="#000000"
     stroke-width="0.100"
     id="line166"
     style="stroke:#000000;stroke-width:0.1" />
  <polygon
     points="3.445,21.588 3.171,21.101 3.427,21.214 3.67,21.077 3.445,21.588 "
     id="polygon168"
     style="fill:#000000;stroke:none;stroke-width:0.1" />
  <polygon
     points="3.445,21.588 3.171,21.101 3.427,21.214 3.67,21.077 3.445,21.588 "
     id="polygon170"
     style="fill:none;stroke:#000000;stroke-width:0.1" />
  <polygon
     points="28.678,16.75 33.569,16.75 32.841,18.75 27.95,18.75 28.678,16.75 "
     id="polygon172"
     style="fill:#ffffff;stroke:none;stroke-width:0.1" />
  <polygon
     points="28.678,16.75 33.569,16.75 32.841,18.75 27.95,18.75 28.678,16.75 "
     transform="matrix(1.0511507,0,0,0.9987687,-1.0178379,2.1854741e-2)"
     id="polygon174"
     style="fill:none;stroke:#000000;stroke-width:0.1" />
  <text
     x="29.027"
     y="17.892"
     id="text176"
     style="font-size:0.80000001px;font-style:normal;font-weight:400;text-anchor:start;fill:#000000;font-family:sans">xslt/yodl.xsl</text>
  <line
     x1="13.05"
     y1="13.55"
     x2="30.643999"
     y2="16.665001"
     stroke="#000000"
     stroke-width="0.100"
     id="line178"
     style="stroke:#000000;stroke-width:0.1" />
  <polygon
     points="31.013,16.731 30.477,16.89 30.644,16.665 30.565,16.397 31.013,16.731 "
     id="polygon180"
     style="fill:#000000;stroke:none;stroke-width:0.1" />
  <polygon
     points="31.013,16.731 30.477,16.89 30.644,16.665 30.565,16.397 31.013,16.731 "
     id="polygon182"
     style="fill:none;stroke:#000000;stroke-width:0.1" />
  <rect
     width="6"
     height="1.9"
     x="26.948059"
     y="21.6"
     id="rect184"
     style="fill:#ffffff;stroke:none;stroke-width:0" />
  <rect
     width="6.8730097"
     height="1.8931645"
     x="27.303417"
     y="21.603418"
     id="rect186"
     style="fill:none;stroke:#000000;stroke-width:0.10683542" />
  <text
     x="27.394091"
     y="22.693001"
     id="text188"
     style="font-size:0.80000001px;font-style:normal;font-weight:400;text-anchor:start;fill:#000000;font-family:sans">YODL Document</text>
  <line
     x1="30.15"
     y1="18.700001"
     x2="30.275"
     y2="21.114"
     stroke="#000000"
     stroke-width="0.100"
     id="line190"
     style="stroke:#000000;stroke-width:0.1" />
  <polygon
     points="30.294,21.488 30.019,21.002 30.275,21.114 30.518,20.976 30.294,21.488 "
     id="polygon192"
     style="fill:#000000;stroke:none;stroke-width:0.1" />
  <polygon
     points="30.294,21.488 30.019,21.002 30.275,21.114 30.518,20.976 30.294,21.488 "
     id="polygon194"
     style="fill:none;stroke:#000000;stroke-width:0.1" />
  <text
     x="3.6583791"
     y="22.583603"
     id="text5573"
     xml:space="preserve"
     style="font-size:0.82118881px;font-style:normal;font-weight:normal;text-align:center;text-anchor:middle;fill:#000000;fill-opacity:1;stroke:none;stroke-width:1px;stroke-linecap:butt;stroke-linejoin:miter;stroke-opacity:1;font-family:Bitstream Vera Sans"><tspan
       x="3.7890956"
       y="22.583603"
       id="tspan5575">HTML </tspan><tspan
       x="3.6583791"
       y="23.610088"
       id="tspan5577">Document</tspan></text>
  <text
     x="1.0326539"
     y="22.656073"
     id="text5579"
     xml:space="preserve"
     style="font-size:40px;font-style:normal;font-weight:normal;fill:#000000;fill-opacity:1;stroke:none;stroke-width:1px;stroke-linecap:butt;stroke-linejoin:miter;stroke-opacity:1;font-family:Bitstream Vera Sans"><tspan
       x="1.0326539"
       y="22.656073"
       id="tspan5581" /></text>
  <text
     x="10.297968"
     y="22.32135"
     id="text5585"
     xml:space="preserve"
     style="font-size:0.82118881px;font-style:normal;font-weight:normal;text-align:center;text-anchor:middle;fill:#000000;fill-opacity:1;stroke:none;stroke-width:1px;stroke-linecap:butt;stroke-linejoin:miter;stroke-opacity:1;font-family:Bitstream Vera Sans"><tspan
       x="10.297968"
       y="22.32135"
       id="tspan5587">Man pages</tspan><tspan
       x="10.297968"
       y="23.347836"
       id="tspan5589">(NROFF)</tspan></text>
  <g
     transform="translate(6.2483064,3.7332239e-2)"
     id="g5600">
    <line
       style="stroke:#000000;stroke-width:0.1"
       id="line5602"
       y2="21.247999"
       x2="10.17"
       y1="18.549999"
       x1="9.0959997" />
    <polygon
       points="10.309,21.596 9.891,21.224 10.17,21.248 10.356,21.039 10.309,21.596 "
       id="polygon5604"
       style="fill:#000000;stroke:none;stroke-width:0.1" />
    <polygon
       points="10.309,21.596 9.891,21.224 10.17,21.248 10.356,21.039 10.309,21.596 "
       id="polygon5606"
       style="fill:none;stroke:#000000;stroke-width:0.1" />
  </g>
</svg>
