<?xml version="1.0" encoding="UTF-8" standalone="no"?>
<!-- Created with Inkscape (http://www.inkscape.org/) -->
<svg
   xmlns:svg="http://www.w3.org/2000/svg"
   xmlns="http://www.w3.org/2000/svg"
   version="1.0"
   width="11.88cm"
   height="9.4849997cm"
   viewBox="0.827 -0.889 12.708 8.596"
   id="svg2">
  <defs
     id="defs353" />
  <rect
     width="1.077"
     height="2.5120001"
     x="1.051"
     y="0.93599999"
     id="rect4"
     style="fill:#b3b3b3;stroke:none;stroke-width:0" />
  <rect
     width="1.077"
     height="2.5120001"
     x="1.051"
     y="0.93599999"
     id="rect6"
     style="fill:none;stroke:#000000;stroke-width:0.08" />
  <rect
     width="0.861"
     height="0.287"
     x="1.158"
     y="1.087"
     id="rect8"
     style="fill:none;stroke:#000000;stroke-width:0.01" />
  <rect
     width="0.861"
     height="0.287"
     x="1.158"
     y="1.374"
     id="rect10"
     style="fill:none;stroke:#000000;stroke-width:0.01" />
  <rect
     width="0.861"
     height="0.287"
     x="1.158"
     y="1.661"
     id="rect12"
     style="fill:none;stroke:#000000;stroke-width:0.01" />
  <rect
     width="0.861"
     height="0.287"
     x="1.158"
     y="1.948"
     id="rect14"
     style="fill:none;stroke:#000000;stroke-width:0.01" />
  <rect
     width="0.53799999"
     height="0.17200001"
     x="1.158"
     y="2.293"
     id="rect16"
     style="fill:none;stroke:#000000;stroke-width:0.01" />
  <ellipse
     cx="1.966"
     cy="2.322"
     rx="0.037999999"
     ry="0.037999999"
     id="ellipse18"
     style="fill:#00ff00;stroke:none" />
  <ellipse
     cx="1.966"
     cy="2.322"
     rx="0.037999999"
     ry="0.037999999"
     id="ellipse20"
     style="fill:none;stroke:#000000;stroke-width:0.01" />
  <ellipse
     cx="1.966"
     cy="2.4360001"
     rx="0.037999999"
     ry="0.037999999"
     id="ellipse22"
     style="fill:#ffff00;stroke:none" />
  <ellipse
     cx="1.966"
     cy="2.4360001"
     rx="0.037999999"
     ry="0.037999999"
     id="ellipse24"
     style="fill:none;stroke:#000000;stroke-width:0.01" />
  <rect
     width="0.12899999"
     height="0.115"
     x="1.751"
     y="2.3499999"
     id="rect26"
     style="fill:#ffffff;stroke:none;stroke-width:0" />
  <rect
     width="0.12899999"
     height="0.115"
     x="1.751"
     y="2.3499999"
     id="rect28"
     style="fill:none;stroke:#000000;stroke-width:0.01" />
  <path
     d="M 1.23,2.695 L 1.23,3.323"
     id="path30"
     style="fill:none;stroke:#000000;stroke-width:0.01" />
  <path
     d="M 1.41,2.695 L 1.41,3.323"
     id="path32"
     style="fill:none;stroke:#000000;stroke-width:0.01" />
  <path
     d="M 1.589,2.695 L 1.589,3.323"
     id="path34"
     style="fill:none;stroke:#000000;stroke-width:0.01" />
  <path
     d="M 1.769,2.695 L 1.769,3.323"
     id="path36"
     style="fill:none;stroke:#000000;stroke-width:0.01" />
  <path
     d="M 1.948,2.695 L 1.948,3.323"
     id="path38"
     style="fill:none;stroke:#000000;stroke-width:0.01" />
  <path
     d="M 2.127,2.695 L 2.127,3.323"
     id="path40"
     style="fill:none;stroke:#000000;stroke-width:0.01" />
  <polygon
     points="0.836,3.664 1.051,3.233 1.051,3.448 2.127,3.448 2.127,3.233 2.414,3.664 0.836,3.664 "
     id="polygon42"
     style="fill:#999999;stroke:none;stroke-width:0.01" />
  <polygon
     points="0.836,3.664 1.051,3.233 1.051,3.448 2.127,3.448 2.127,3.233 2.414,3.664 0.836,3.664 "
     id="polygon44"
     style="fill:none;stroke:#000000;stroke-width:0.01" />
  <line
     x1="1.587"
     y1="4.487"
     x2="11.412"
     y2="4.4629998"
     stroke="#000000"
     stroke-width="0.100"
     id="line46"
     style="stroke:#000000;stroke-width:0.1" />
  <line
     x1="1.625"
     y1="3.664"
     x2="1.624"
     y2="4.5240002"
     stroke="#000000"
     stroke-width="0.100"
     id="line48"
     style="stroke:#000000;stroke-width:0.1" />
  <rect
     width="2.017"
     height="1.513"
     x="2.9289999"
     y="1.6210001"
     id="rect50"
     style="fill:#b3b3b3;stroke:none;stroke-width:0" />
  <rect
     width="2.017"
     height="1.513"
     x="2.9289999"
     y="1.6210001"
     id="rect52"
     style="fill:none;stroke:#000000;stroke-width:0.05" />
  <rect
     width="1.58"
     height="1.0420001"
     x="3.148"
     y="1.839"
     id="rect54"
     style="fill:#000000;stroke:none;stroke-width:0" />
  <polygon
     points="3.202,3.134 4.24,3.134 4.24,3.369 3.257,3.369 3.202,3.134 "
     id="polygon56"
     style="fill:#b3b3b3;stroke:none;stroke-width:0.05" />
  <polygon
     points="3.202,3.134 4.24,3.134 4.24,3.369 3.257,3.369 3.202,3.134 "
     id="polygon58"
     style="fill:none;stroke:#000000;stroke-width:0.05" />
  <polygon
     points="4.24,3.134 4.673,3.134 4.618,3.369 4.24,3.369 4.24,3.134 "
     id="polygon60"
     style="fill:#b3b3b3;stroke:none;stroke-width:0.05" />
  <polygon
     points="4.24,3.134 4.673,3.134 4.618,3.369 4.24,3.369 4.24,3.134 "
     id="polygon62"
     style="fill:none;stroke:#000000;stroke-width:0.05" />
  <rect
     width="0.093999997"
     height="0.093999997"
     x="4.3109999"
     y="3.204"
     id="rect64"
     style="fill:#ffffff;stroke:none;stroke-width:0" />
  <rect
     width="0.093999997"
     height="0.093999997"
     x="4.3109999"
     y="3.204"
     id="rect66"
     style="fill:none;stroke:#000000;stroke-width:0.025" />
  <polygon
     points="3.736,3.369 4.139,3.369 4.139,3.487 4.341,3.487 4.341,3.604 3.534,3.604 3.534,3.487 3.736,3.487 3.736,3.369 "
     id="polygon68"
     style="fill:#b3b3b3;stroke:none;stroke-width:0.05" />
  <polygon
     points="3.736,3.369 4.139,3.369 4.139,3.487 4.341,3.487 4.341,3.604 3.534,3.604 3.534,3.487 3.736,3.487 3.736,3.369 "
     id="polygon70"
     style="fill:none;stroke:#000000;stroke-width:0.05" />
  <rect
     width="2.017"
     height="1.513"
     x="5.5040002"
     y="1.633"
     id="rect72"
     style="fill:#b3b3b3;stroke:none;stroke-width:0" />
  <rect
     width="2.017"
     height="1.513"
     x="5.5040002"
     y="1.633"
     id="rect74"
     style="fill:none;stroke:#000000;stroke-width:0.05" />
  <rect
     width="1.58"
     height="1.0420001"
     x="5.723"
     y="1.852"
     id="rect76"
     style="fill:#000000;stroke:none;stroke-width:0" />
  <polygon
     points="5.777,3.146 6.815,3.146 6.815,3.381 5.832,3.381 5.777,3.146 "
     id="polygon78"
     style="fill:#b3b3b3;stroke:none;stroke-width:0.05" />
  <polygon
     points="5.777,3.146 6.815,3.146 6.815,3.381 5.832,3.381 5.777,3.146 "
     id="polygon80"
     style="fill:none;stroke:#000000;stroke-width:0.05" />
  <polygon
     points="6.815,3.146 7.248,3.146 7.193,3.381 6.815,3.381 6.815,3.146 "
     id="polygon82"
     style="fill:#b3b3b3;stroke:none;stroke-width:0.05" />
  <polygon
     points="6.815,3.146 7.248,3.146 7.193,3.381 6.815,3.381 6.815,3.146 "
     id="polygon84"
     style="fill:none;stroke:#000000;stroke-width:0.05" />
  <rect
     width="0.093999997"
     height="0.093999997"
     x="6.8860002"
     y="3.217"
     id="rect86"
     style="fill:#ffffff;stroke:none;stroke-width:0" />
  <rect
     width="0.093999997"
     height="0.093999997"
     x="6.8860002"
     y="3.217"
     id="rect88"
     style="fill:none;stroke:#000000;stroke-width:0.025" />
  <polygon
     points="6.311,3.381 6.714,3.381 6.714,3.499 6.916,3.499 6.916,3.617 6.109,3.617 6.109,3.499 6.311,3.499 6.311,3.381 "
     id="polygon90"
     style="fill:#b3b3b3;stroke:none;stroke-width:0.05" />
  <polygon
     points="6.311,3.381 6.714,3.381 6.714,3.499 6.916,3.499 6.916,3.617 6.109,3.617 6.109,3.499 6.311,3.499 6.311,3.381 "
     id="polygon92"
     style="fill:none;stroke:#000000;stroke-width:0.05" />
  <rect
     width="2.017"
     height="1.513"
     x="7.9169998"
     y="1.658"
     id="rect94"
     style="fill:#b3b3b3;stroke:none;stroke-width:0" />
  <rect
     width="2.017"
     height="1.513"
     x="7.9169998"
     y="1.658"
     id="rect96"
     style="fill:none;stroke:#000000;stroke-width:0.05" />
  <rect
     width="1.58"
     height="1.0420001"
     x="8.1350002"
     y="1.877"
     id="rect98"
     style="fill:#000000;stroke:none;stroke-width:0" />
  <polygon
     points="8.19,3.171 9.228,3.171 9.228,3.406 8.244,3.406 8.19,3.171 "
     id="polygon100"
     style="fill:#b3b3b3;stroke:none;stroke-width:0.05" />
  <polygon
     points="8.19,3.171 9.228,3.171 9.228,3.406 8.244,3.406 8.19,3.171 "
     id="polygon102"
     style="fill:none;stroke:#000000;stroke-width:0.05" />
  <polygon
     points="9.228,3.171 9.66,3.171 9.606,3.406 9.228,3.406 9.228,3.171 "
     id="polygon104"
     style="fill:#b3b3b3;stroke:none;stroke-width:0.05" />
  <polygon
     points="9.228,3.171 9.66,3.171 9.606,3.406 9.228,3.406 9.228,3.171 "
     id="polygon106"
     style="fill:none;stroke:#000000;stroke-width:0.05" />
  <rect
     width="0.093999997"
     height="0.093999997"
     x="9.2980003"
     y="3.2420001"
     id="rect108"
     style="fill:#ffffff;stroke:none;stroke-width:0" />
  <rect
     width="0.093999997"
     height="0.093999997"
     x="9.2980003"
     y="3.2420001"
     id="rect110"
     style="fill:none;stroke:#000000;stroke-width:0.025" />
  <polygon
     points="8.723,3.406 9.127,3.406 9.127,3.524 9.328,3.524 9.328,3.642 8.522,3.642 8.522,3.524 8.723,3.524 8.723,3.406 "
     id="polygon112"
     style="fill:#b3b3b3;stroke:none;stroke-width:0.05" />
  <polygon
     points="8.723,3.406 9.127,3.406 9.127,3.524 9.328,3.524 9.328,3.642 8.522,3.642 8.522,3.524 8.723,3.524 8.723,3.406 "
     id="polygon114"
     style="fill:none;stroke:#000000;stroke-width:0.05" />
  <rect
     width="2.017"
     height="1.513"
     x="10.342"
     y="1.658"
     id="rect116"
     style="fill:#b3b3b3;stroke:none;stroke-width:0" />
  <rect
     width="2.017"
     height="1.513"
     x="10.342"
     y="1.658"
     id="rect118"
     style="fill:none;stroke:#000000;stroke-width:0.05" />
  <rect
     width="1.58"
     height="1.0420001"
     x="10.56"
     y="1.877"
     id="rect120"
     style="fill:#000000;stroke:none;stroke-width:0" />
  <polygon
     points="10.615,3.171 11.653,3.171 11.653,3.406 10.669,3.406 10.615,3.171 "
     id="polygon122"
     style="fill:#b3b3b3;stroke:none;stroke-width:0.05" />
  <polygon
     points="10.615,3.171 11.653,3.171 11.653,3.406 10.669,3.406 10.615,3.171 "
     id="polygon124"
     style="fill:none;stroke:#000000;stroke-width:0.05" />
  <polygon
     points="11.653,3.171 12.085,3.171 12.031,3.406 11.653,3.406 11.653,3.171 "
     id="polygon126"
     style="fill:#b3b3b3;stroke:none;stroke-width:0.05" />
  <polygon
     points="11.653,3.171 12.085,3.171 12.031,3.406 11.653,3.406 11.653,3.171 "
     id="polygon128"
     style="fill:none;stroke:#000000;stroke-width:0.05" />
  <rect
     width="0.093999997"
     height="0.093999997"
     x="11.723"
     y="3.2420001"
     id="rect130"
     style="fill:#ffffff;stroke:none;stroke-width:0" />
  <rect
     width="0.093999997"
     height="0.093999997"
     x="11.723"
     y="3.2420001"
     id="rect132"
     style="fill:none;stroke:#000000;stroke-width:0.025" />
  <polygon
     points="11.148,3.406 11.552,3.406 11.552,3.524 11.753,3.524 11.753,3.642 10.947,3.642 10.947,3.524 11.148,3.524 11.148,3.406 "
     id="polygon134"
     style="fill:#b3b3b3;stroke:none;stroke-width:0.05" />
  <polygon
     points="11.148,3.406 11.552,3.406 11.552,3.524 11.753,3.524 11.753,3.642 10.947,3.642 10.947,3.524 11.148,3.524 11.148,3.406 "
     id="polygon136"
     style="fill:none;stroke:#000000;stroke-width:0.05" />
  <line
     x1="3.938"
     y1="3.6040001"
     x2="3.9389999"
     y2="5.2309999"
     stroke="#000000"
     stroke-width="0.100"
     id="line138"
     style="stroke:#000000;stroke-width:0.1" />
  <line
     x1="6.513"
     y1="3.6170001"
     x2="6.513"
     y2="5.237"
     stroke="#000000"
     stroke-width="0.100"
     id="line140"
     style="stroke:#000000;stroke-width:0.1" />
  <line
     x1="8.9250002"
     y1="3.642"
     x2="8.9329996"
     y2="4.5"
     stroke="#000000"
     stroke-width="0.100"
     id="line142"
     style="stroke:#000000;stroke-width:0.1" />
  <line
     x1="11.396"
     y1="3.654"
     x2="11.4"
     y2="5.362"
     stroke="#000000"
     stroke-width="0.100"
     id="line144"
     style="stroke:#000000;stroke-width:0.1" />
  <rect
     width="2.017"
     height="1.513"
     x="10.442"
     y="5.3460002"
     id="rect146"
     style="fill:#b3b3b3;stroke:none;stroke-width:0" />
  <rect
     width="2.017"
     height="1.513"
     x="10.442"
     y="5.3460002"
     id="rect148"
     style="fill:none;stroke:#000000;stroke-width:0.05" />
  <rect
     width="1.58"
     height="1.0420001"
     x="10.66"
     y="5.5640001"
     id="rect150"
     style="fill:#000000;stroke:none;stroke-width:0" />
  <polygon
     points="10.715,6.859 11.753,6.859 11.753,7.094 10.769,7.094 10.715,6.859 "
     id="polygon152"
     style="fill:#b3b3b3;stroke:none;stroke-width:0.05" />
  <polygon
     points="10.715,6.859 11.753,6.859 11.753,7.094 10.769,7.094 10.715,6.859 "
     id="polygon154"
     style="fill:none;stroke:#000000;stroke-width:0.05" />
  <polygon
     points="11.753,6.859 12.185,6.859 12.131,7.094 11.753,7.094 11.753,6.859 "
     id="polygon156"
     style="fill:#b3b3b3;stroke:none;stroke-width:0.05" />
  <polygon
     points="11.753,6.859 12.185,6.859 12.131,7.094 11.753,7.094 11.753,6.859 "
     id="polygon158"
     style="fill:none;stroke:#000000;stroke-width:0.05" />
  <rect
     width="0.093999997"
     height="0.093999997"
     x="11.823"
     y="6.9289999"
     id="rect160"
     style="fill:#ffffff;stroke:none;stroke-width:0" />
  <rect
     width="0.093999997"
     height="0.093999997"
     x="11.823"
     y="6.9289999"
     id="rect162"
     style="fill:none;stroke:#000000;stroke-width:0.025" />
  <polygon
     points="11.248,7.094 11.652,7.094 11.652,7.212 11.853,7.212 11.853,7.329 11.047,7.329 11.047,7.212 11.248,7.212 11.248,7.094 "
     id="polygon164"
     style="fill:#b3b3b3;stroke:none;stroke-width:0.05" />
  <polygon
     points="11.248,7.094 11.652,7.094 11.652,7.212 11.853,7.212 11.853,7.329 11.047,7.329 11.047,7.212 11.248,7.212 11.248,7.094 "
     id="polygon166"
     style="fill:none;stroke:#000000;stroke-width:0.05" />
  <polygon
     points="3.171,5.92 3.083,5.956 2.819,6.616 2.819,6.946 2.951,7.056 4.887,7.056 5.019,6.946 5.019,6.616 4.755,5.956 4.667,5.92 3.171,5.92 "
     id="polygon168"
     style="fill:#b3b3b3;stroke:none;stroke-width:0.08" />
  <polygon
     points="3.171,5.92 3.083,5.956 2.819,6.616 2.819,6.946 2.951,7.056 4.887,7.056 5.019,6.946 5.019,6.616 4.755,5.956 4.667,5.92 3.171,5.92 "
     id="polygon170"
     style="fill:none;stroke:#000000;stroke-width:0.08" />
  <path
     d="M 2.863,6.506 L 2.951,6.543 L 4.887,6.543 L 4.975,6.506"
     id="path172"
     style="fill:none;stroke:#000000;stroke-width:0.08" />
  <path
     d="M 4.887,6.543 L 5.019,6.616"
     id="path174"
     style="fill:none;stroke:#000000;stroke-width:0.08" />
  <path
     d="M 2.819,6.616 L 2.951,6.543"
     id="path176"
     style="fill:none;stroke:#000000;stroke-width:0.08" />
  <polygon
     points="3.435,5.223 3.391,6.103 4.447,6.103 4.403,5.223 3.435,5.223 "
     id="polygon178"
     style="fill:#ffffff;stroke:none;stroke-width:0.08" />
  <polygon
     points="3.435,5.223 3.391,6.103 4.447,6.103 4.403,5.223 3.435,5.223 "
     id="polygon180"
     style="fill:none;stroke:#000000;stroke-width:0.08" />
  <polygon
     points="3.259,6.103 3.171,6.36 4.667,6.36 4.579,6.103 3.259,6.103 "
     id="polygon182"
     style="fill:#000000;stroke:none;stroke-width:0.08" />
  <polygon
     points="3.259,6.103 3.171,6.36 4.667,6.36 4.579,6.103 3.259,6.103 "
     id="polygon184"
     style="fill:none;stroke:#000000;stroke-width:0.08" />
  <ellipse
     cx="3.2590001"
     cy="6.671"
     rx="0.022"
     ry="0.022"
     id="ellipse186"
     style="fill:#0000ff;stroke:none" />
  <ellipse
     cx="3.2590001"
     cy="6.671"
     rx="0.022"
     ry="0.022"
     id="ellipse188"
     style="fill:none;stroke:#000000;stroke-width:0.02" />
  <ellipse
     cx="3.4790001"
     cy="6.671"
     rx="0.022"
     ry="0.022"
     id="ellipse190"
     style="fill:#0000ff;stroke:none" />
  <ellipse
     cx="3.4790001"
     cy="6.671"
     rx="0.022"
     ry="0.022"
     id="ellipse192"
     style="fill:none;stroke:#000000;stroke-width:0.02" />
  <ellipse
     cx="3.6989999"
     cy="6.671"
     rx="0.022"
     ry="0.022"
     id="ellipse194"
     style="fill:#0000ff;stroke:none" />
  <ellipse
     cx="3.6989999"
     cy="6.671"
     rx="0.022"
     ry="0.022"
     id="ellipse196"
     style="fill:none;stroke:#000000;stroke-width:0.02" />
  <ellipse
     cx="3.2590001"
     cy="6.763"
     rx="0.022"
     ry="0.022"
     id="ellipse198"
     style="fill:#0000ff;stroke:none" />
  <ellipse
     cx="3.2590001"
     cy="6.763"
     rx="0.022"
     ry="0.022"
     id="ellipse200"
     style="fill:none;stroke:#000000;stroke-width:0.02" />
  <ellipse
     cx="3.4790001"
     cy="6.763"
     rx="0.022"
     ry="0.022"
     id="ellipse202"
     style="fill:#0000ff;stroke:none" />
  <ellipse
     cx="3.4790001"
     cy="6.763"
     rx="0.022"
     ry="0.022"
     id="ellipse204"
     style="fill:none;stroke:#000000;stroke-width:0.02" />
  <ellipse
     cx="3.6989999"
     cy="6.763"
     rx="0.022"
     ry="0.022"
     id="ellipse206"
     style="fill:#0000ff;stroke:none" />
  <ellipse
     cx="3.6989999"
     cy="6.763"
     rx="0.022"
     ry="0.022"
     id="ellipse208"
     style="fill:none;stroke:#000000;stroke-width:0.02" />
  <ellipse
     cx="3.2590001"
     cy="6.855"
     rx="0.022"
     ry="0.022"
     id="ellipse210"
     style="fill:#0000ff;stroke:none" />
  <ellipse
     cx="3.2590001"
     cy="6.855"
     rx="0.022"
     ry="0.022"
     id="ellipse212"
     style="fill:none;stroke:#000000;stroke-width:0.02" />
  <ellipse
     cx="3.4790001"
     cy="6.855"
     rx="0.022"
     ry="0.022"
     id="ellipse214"
     style="fill:#0000ff;stroke:none" />
  <ellipse
     cx="3.4790001"
     cy="6.855"
     rx="0.022"
     ry="0.022"
     id="ellipse216"
     style="fill:none;stroke:#000000;stroke-width:0.02" />
  <ellipse
     cx="3.6989999"
     cy="6.855"
     rx="0.022"
     ry="0.022"
     id="ellipse218"
     style="fill:#0000ff;stroke:none" />
  <ellipse
     cx="3.6989999"
     cy="6.855"
     rx="0.022"
     ry="0.022"
     id="ellipse220"
     style="fill:none;stroke:#000000;stroke-width:0.02" />
  <ellipse
     cx="3.2590001"
     cy="6.9460001"
     rx="0.022"
     ry="0.022"
     id="ellipse222"
     style="fill:#0000ff;stroke:none" />
  <ellipse
     cx="3.2590001"
     cy="6.9460001"
     rx="0.022"
     ry="0.022"
     id="ellipse224"
     style="fill:none;stroke:#000000;stroke-width:0.02" />
  <ellipse
     cx="3.4790001"
     cy="6.9460001"
     rx="0.022"
     ry="0.022"
     id="ellipse226"
     style="fill:#0000ff;stroke:none" />
  <ellipse
     cx="3.4790001"
     cy="6.9460001"
     rx="0.022"
     ry="0.022"
     id="ellipse228"
     style="fill:none;stroke:#000000;stroke-width:0.02" />
  <ellipse
     cx="3.6989999"
     cy="6.9460001"
     rx="0.022"
     ry="0.022"
     id="ellipse230"
     style="fill:#0000ff;stroke:none" />
  <ellipse
     cx="3.6989999"
     cy="6.9460001"
     rx="0.022"
     ry="0.022"
     id="ellipse232"
     style="fill:none;stroke:#000000;stroke-width:0.02" />
  <ellipse
     cx="3.9189999"
     cy="6.6900001"
     rx="0.27500001"
     ry="0.088"
     id="ellipse234"
     style="fill:#8f8f8f;stroke:none" />
  <ellipse
     cx="3.9189999"
     cy="6.6900001"
     rx="0.27500001"
     ry="0.088"
     id="ellipse236"
     style="fill:none;stroke:#000000;stroke-width:0.02" />
  <ellipse
     cx="4.4689999"
     cy="6.6900001"
     rx="0.27500001"
     ry="0.088"
     id="ellipse238"
     style="fill:#8f8f8f;stroke:none" />
  <ellipse
     cx="4.4689999"
     cy="6.6900001"
     rx="0.27500001"
     ry="0.088"
     id="ellipse240"
     style="fill:none;stroke:#000000;stroke-width:0.02" />
  <polygon
     points="5.807,5.902 5.719,5.939 5.455,6.599 5.455,6.929 5.587,7.039 7.523,7.039 7.655,6.929 7.655,6.599 7.391,5.939 7.303,5.902 5.807,5.902 "
     id="polygon242"
     style="fill:#b3b3b3;stroke:none;stroke-width:0.08" />
  <polygon
     points="5.807,5.902 5.719,5.939 5.455,6.599 5.455,6.929 5.587,7.039 7.523,7.039 7.655,6.929 7.655,6.599 7.391,5.939 7.303,5.902 5.807,5.902 "
     id="polygon244"
     style="fill:none;stroke:#000000;stroke-width:0.08" />
  <path
     d="M 5.499,6.489 L 5.587,6.525 L 7.523,6.525 L 7.611,6.489"
     id="path246"
     style="fill:none;stroke:#000000;stroke-width:0.08" />
  <path
     d="M 7.523,6.525 L 7.655,6.599"
     id="path248"
     style="fill:none;stroke:#000000;stroke-width:0.08" />
  <path
     d="M 5.455,6.599 L 5.587,6.525"
     id="path250"
     style="fill:none;stroke:#000000;stroke-width:0.08" />
  <polygon
     points="6.071,5.205 6.027,6.085 7.083,6.085 7.039,5.205 6.071,5.205 "
     id="polygon252"
     style="fill:#ffffff;stroke:none;stroke-width:0.08" />
  <polygon
     points="6.071,5.205 6.027,6.085 7.083,6.085 7.039,5.205 6.071,5.205 "
     id="polygon254"
     style="fill:none;stroke:#000000;stroke-width:0.08" />
  <polygon
     points="5.895,6.085 5.807,6.342 7.303,6.342 7.215,6.085 5.895,6.085 "
     id="polygon256"
     style="fill:#000000;stroke:none;stroke-width:0.08" />
  <polygon
     points="5.895,6.085 5.807,6.342 7.303,6.342 7.215,6.085 5.895,6.085 "
     id="polygon258"
     style="fill:none;stroke:#000000;stroke-width:0.08" />
  <ellipse
     cx="5.895"
     cy="6.6539998"
     rx="0.022"
     ry="0.022"
     id="ellipse260"
     style="fill:#0000ff;stroke:none" />
  <ellipse
     cx="5.895"
     cy="6.6539998"
     rx="0.022"
     ry="0.022"
     id="ellipse262"
     style="fill:none;stroke:#000000;stroke-width:0.02" />
  <ellipse
     cx="6.1149998"
     cy="6.6539998"
     rx="0.022"
     ry="0.022"
     id="ellipse264"
     style="fill:#0000ff;stroke:none" />
  <ellipse
     cx="6.1149998"
     cy="6.6539998"
     rx="0.022"
     ry="0.022"
     id="ellipse266"
     style="fill:none;stroke:#000000;stroke-width:0.02" />
  <ellipse
     cx="6.335"
     cy="6.6539998"
     rx="0.022"
     ry="0.022"
     id="ellipse268"
     style="fill:#0000ff;stroke:none" />
  <ellipse
     cx="6.335"
     cy="6.6539998"
     rx="0.022"
     ry="0.022"
     id="ellipse270"
     style="fill:none;stroke:#000000;stroke-width:0.02" />
  <ellipse
     cx="5.895"
     cy="6.7449999"
     rx="0.022"
     ry="0.022"
     id="ellipse272"
     style="fill:#0000ff;stroke:none" />
  <ellipse
     cx="5.895"
     cy="6.7449999"
     rx="0.022"
     ry="0.022"
     id="ellipse274"
     style="fill:none;stroke:#000000;stroke-width:0.02" />
  <ellipse
     cx="6.1149998"
     cy="6.7449999"
     rx="0.022"
     ry="0.022"
     id="ellipse276"
     style="fill:#0000ff;stroke:none" />
  <ellipse
     cx="6.1149998"
     cy="6.7449999"
     rx="0.022"
     ry="0.022"
     id="ellipse278"
     style="fill:none;stroke:#000000;stroke-width:0.02" />
  <ellipse
     cx="6.335"
     cy="6.7449999"
     rx="0.022"
     ry="0.022"
     id="ellipse280"
     style="fill:#0000ff;stroke:none" />
  <ellipse
     cx="6.335"
     cy="6.7449999"
     rx="0.022"
     ry="0.022"
     id="ellipse282"
     style="fill:none;stroke:#000000;stroke-width:0.02" />
  <ellipse
     cx="5.895"
     cy="6.8369999"
     rx="0.022"
     ry="0.022"
     id="ellipse284"
     style="fill:#0000ff;stroke:none" />
  <ellipse
     cx="5.895"
     cy="6.8369999"
     rx="0.022"
     ry="0.022"
     id="ellipse286"
     style="fill:none;stroke:#000000;stroke-width:0.02" />
  <ellipse
     cx="6.1149998"
     cy="6.8369999"
     rx="0.022"
     ry="0.022"
     id="ellipse288"
     style="fill:#0000ff;stroke:none" />
  <ellipse
     cx="6.1149998"
     cy="6.8369999"
     rx="0.022"
     ry="0.022"
     id="ellipse290"
     style="fill:none;stroke:#000000;stroke-width:0.02" />
  <ellipse
     cx="6.335"
     cy="6.8369999"
     rx="0.022"
     ry="0.022"
     id="ellipse292"
     style="fill:#0000ff;stroke:none" />
  <ellipse
     cx="6.335"
     cy="6.8369999"
     rx="0.022"
     ry="0.022"
     id="ellipse294"
     style="fill:none;stroke:#000000;stroke-width:0.02" />
  <ellipse
     cx="5.895"
     cy="6.9289999"
     rx="0.022"
     ry="0.022"
     id="ellipse296"
     style="fill:#0000ff;stroke:none" />
  <ellipse
     cx="5.895"
     cy="6.9289999"
     rx="0.022"
     ry="0.022"
     id="ellipse298"
     style="fill:none;stroke:#000000;stroke-width:0.02" />
  <ellipse
     cx="6.1149998"
     cy="6.9289999"
     rx="0.022"
     ry="0.022"
     id="ellipse300"
     style="fill:#0000ff;stroke:none" />
  <ellipse
     cx="6.1149998"
     cy="6.9289999"
     rx="0.022"
     ry="0.022"
     id="ellipse302"
     style="fill:none;stroke:#000000;stroke-width:0.02" />
  <ellipse
     cx="6.335"
     cy="6.9289999"
     rx="0.022"
     ry="0.022"
     id="ellipse304"
     style="fill:#0000ff;stroke:none" />
  <ellipse
     cx="6.335"
     cy="6.9289999"
     rx="0.022"
     ry="0.022"
     id="ellipse306"
     style="fill:none;stroke:#000000;stroke-width:0.02" />
  <ellipse
     cx="6.5549998"
     cy="6.6719999"
     rx="0.27500001"
     ry="0.088"
     id="ellipse308"
     style="fill:#8f8f8f;stroke:none" />
  <ellipse
     cx="6.5549998"
     cy="6.6719999"
     rx="0.27500001"
     ry="0.088"
     id="ellipse310"
     style="fill:none;stroke:#000000;stroke-width:0.02" />
  <ellipse
     cx="7.105"
     cy="6.6719999"
     rx="0.27500001"
     ry="0.088"
     id="ellipse312"
     style="fill:#8f8f8f;stroke:none" />
  <ellipse
     cx="7.105"
     cy="6.6719999"
     rx="0.27500001"
     ry="0.088"
     id="ellipse314"
     style="fill:none;stroke:#000000;stroke-width:0.02" />
  <text
     x="3.415"
     y="1.183"
     id="text316"
     style="font-size:0.69999999px;font-style:normal;font-weight:400;text-anchor:start;fill:#000000;font-family:arial">desk1</text>
  <text
     x="5.9000001"
     y="1.184"
     id="text318"
     style="font-size:0.69999999px;font-style:normal;font-weight:400;text-anchor:start;fill:#000000;font-family:arial">desk2</text>
  <text
     x="8.3559999"
     y="1.202"
     id="text320"
     style="font-size:0.69999999px;font-style:normal;font-weight:400;text-anchor:start;fill:#000000;font-family:arial">desk3</text>
  <text
     x="10.813"
     y="1.237"
     id="text322"
     style="font-size:0.69999999px;font-style:normal;font-weight:400;text-anchor:start;fill:#000000;font-family:arial">desk4</text>
  <text
     x="10.92"
     y="8.0609999"
     id="text324"
     style="font-size:0.69999999px;font-style:normal;font-weight:400;text-anchor:start;fill:#000000;font-family:arial">desk5</text>
  <text
     x="1.138"
     y="0.44"
     id="text326"
     style="font-size:0.60000002px;font-style:normal;font-weight:400;text-anchor:start;fill:#000000;font-family:arial">server</text>
  <text
     x="4.809"
     y="-0.479"
     id="text328"
     style="font-size:0.69999999px;font-style:normal;font-weight:400;text-anchor:start;fill:#000000;font-family:arial">Workgroup: MIDEARTH</text>
  <text
     x="3.0309999"
     y="8.0959997"
     id="text330"
     style="font-size:0.69999999px;font-style:normal;font-weight:400;text-anchor:start;fill:#000000;font-family:arial">PRINTQ</text>
  <text
     x="6.211"
     y="8.0249996"
     id="text332"
     style="font-size:0.69999999px;font-style:normal;font-weight:400;text-anchor:start;fill:#000000;font-family:arial">hplj5</text>
  <text
     x="1.154"
     y="4.1560001"
     id="text334"
     style="font-size:0.5px;font-style:normal;font-weight:400;text-anchor:start;fill:#000000;font-family:arial">.1</text>
  <text
     x="3.0799999"
     y="4.145"
     id="text336"
     style="font-size:0.5px;font-style:normal;font-weight:400;text-anchor:start;fill:#000000;font-family:arial">.101</text>
  <text
     x="5.605"
     y="4.1430001"
     id="text338"
     style="font-size:0.5px;font-style:normal;font-weight:400;text-anchor:start;fill:#000000;font-family:arial">.102</text>
  <text
     x="8.0349998"
     y="4.1360002"
     id="text340"
     style="font-size:0.5px;font-style:normal;font-weight:400;text-anchor:start;fill:#000000;font-family:arial">.103</text>
  <text
     x="10.516"
     y="4.1459999"
     id="text342"
     style="font-size:0.5px;font-style:normal;font-weight:400;text-anchor:start;fill:#000000;font-family:arial">.104</text>
  <text
     x="10.515"
     y="5.1589999"
     id="text344"
     style="font-size:0.5px;font-style:normal;font-weight:400;text-anchor:start;fill:#000000;font-family:arial">.105</text>
  <text
     x="3.2379999"
     y="5.0170002"
     id="text346"
     style="font-size:0.5px;font-style:normal;font-weight:400;text-anchor:start;fill:#000000;font-family:arial">.20</text>
  <text
     x="5.8140001"
     y="5.007"
     id="text348"
     style="font-size:0.5px;font-style:normal;font-weight:400;text-anchor:start;fill:#000000;font-family:arial">.30</text>
  <text
     x="5.5159998"
     y="0.15899999"
     id="text350"
     style="font-size:0.5px;font-style:normal;font-weight:400;text-anchor:start;fill:#000000;font-family:arial">Network: 192.168.1.0/24</text>
</svg>
