<svg id="图层_1" data-name="图层 1" xmlns="http://www.w3.org/2000/svg" viewBox="0 0 16 16"><defs><style>.cls-1{fill:#fff;}</style></defs><title>delete</title><rect class="cls-1" x="1.22" y="2.82" width="13.57" height="0.9"/><path class="cls-1" d="M4.73,2.73a0.72,0.72,0,0,1,0-.09V1.72A0.88,0.88,0,0,1,5.6.84h4.8a0.88,0.88,0,0,1,.88.88V2.64a0.72,0.72,0,0,1,0,.09h0.8s0-.06,0-0.09V1.72A1.68,1.68,0,0,0,10.4,0H5.6A1.68,1.68,0,0,0,3.92,1.72V2.64s0,0.06,0,.09h0.8Z"/><path class="cls-1" d="M2.44,3.38V14.77A1.24,1.24,0,0,0,3.72,16h8.56a1.24,1.24,0,0,0,1.28-1.19V3.38H2.44ZM6.09,13.46H5.19V5.81h0.9v7.66Zm2.36,0H7.55V5.81h0.9v7.66Zm2.36,0H9.91V5.81h0.9v7.66Z"/></svg>