<?xml version="1.0" encoding="utf-8"?>
<!-- Generator: Adobe Illustrator 19.1.0, SVG Export Plug-In . SVG Version: 6.00 Build 0)  -->
<svg version="1.1" id="Layer_1" xmlns="http://www.w3.org/2000/svg" xmlns:xlink="http://www.w3.org/1999/xlink" x="0px" y="0px"
	 viewBox="-472.8 417.5 76.5 76.5" style="enable-background:new -472.8 417.5 76.5 76.5;" xml:space="preserve">
<style type="text/css">
	.st0{fill:#EBE8E8;}
	.st1{fill:#7A797A;stroke:#7A797A;stroke-width:2;stroke-miterlimit:10;}
	.st2{fill:#009900;stroke:#009900;stroke-width:2;stroke-miterlimit:10;}
	.st3{fill:none;stroke:#009900;stroke-width:5;stroke-miterlimit:10;}
	.st4{fill:none;stroke:#7A797A;stroke-width:5;stroke-miterlimit:10;}
	.st5{fill:#B1ADAD;stroke:#B1ADAD;stroke-width:2;stroke-miterlimit:10;}
	.st6{fill:none;stroke:#EBE8E8;stroke-width:5;stroke-miterlimit:10;}
</style>
<g>
	<path class="st1" d="M-432.8,457.5l16.7,0c0.5,0,0.9-0.2,1.2-0.5c0.3-0.3,0.5-0.7,0.5-1.2c0-0.9-0.8-1.7-1.7-1.7l-16.7,0l0-16.7
		c0-0.9-0.8-1.7-1.7-1.7c-0.9,0-1.7,0.8-1.7,1.7l0,16.7l-16.7,0c-0.5,0-0.9,0.2-1.2,0.5s-0.5,0.7-0.5,1.2c0,0.9,0.8,1.7,1.7,1.7
		l16.7,0l0,16.7c0,0.5,0.2,0.9,0.5,1.2s0.7,0.5,1.2,0.5c0.5,0,0.9-0.2,1.2-0.5s0.5-0.7,0.5-1.2L-432.8,457.5z"/>
	<circle class="st4" cx="-434.5" cy="455.8" r="33.9"/>
</g>
</svg>
