<?xml version="1.0" encoding="utf-8"?>
<!-- Generator: Adobe Illustrator 19.1.0, SVG Export Plug-In . SVG Version: 6.00 Build 0)  -->
<svg version="1.1" id="Layer_1" xmlns="http://www.w3.org/2000/svg" xmlns:xlink="http://www.w3.org/1999/xlink" x="0px" y="0px"
	 viewBox="-40.6 242.5 76.5 76.5" style="enable-background:new -40.6 242.5 76.5 76.5;" xml:space="preserve">
<style type="text/css">
	.st0{fill:#EBE8E8;}
	.st1{fill:#FFFFFF;stroke:#FFFFFF;stroke-width:2;stroke-miterlimit:10;}
	.st2{fill:#009900;stroke:#009900;stroke-width:2;stroke-miterlimit:10;}
	.st3{fill:none;stroke:#009900;stroke-width:5;stroke-miterlimit:10;}
	.st4{fill:none;stroke:#FFFFFF;stroke-width:5;stroke-miterlimit:10;}
	.st5{fill:#B1ADAD;stroke:#B1ADAD;stroke-width:2;stroke-miterlimit:10;}
	.st6{fill:none;stroke:#EBE8E8;stroke-width:5;stroke-miterlimit:10;}
</style>
<g>
	<path class="st1" d="M28.1,257.1h-5.4h-49.9h-5.4c-1,0-1.8,0.8-1.8,1.8s0.8,1.8,1.8,1.8h3.7V310c0,3.9,3.4,7.1,7.5,7.1h38.3
		c4.1,0,7.5-3.1,7.7-7.1v-49.2h3.7c1,0,1.8-0.8,1.8-1.8S29.1,257.1,28.1,257.1z M20.8,309.9c-0.1,2.1-1.9,3.6-4.1,3.6h-38.3
		c-2.1,0-3.9-1.6-3.9-3.5v-49.2h46.3L20.8,309.9z"/>
	<path class="st1" d="M-17.1,256.5c0-0.1,0-0.3,0-0.4v-4c0-2.2,1.7-4,4-4H8.4c2.2,0,4,1.7,4,4v4.2c0,0.1,0,0.3,0,0.4H16
		c0-0.1,0-0.3,0-0.4v-4.2c0-4.2-3.4-7.6-7.6-7.6h-21.5c-4.2,0-7.6,3.4-7.6,7.6v4.2c0,0.1,0,0.3,0,0.4h3.6V256.5z"/>
	<path class="st1" d="M-2.3,305.9c1,0,1.8-0.8,1.8-1.8v-34.3c0-1-0.8-1.8-1.8-1.8s-1.8,0.8-1.8,1.8v34.3
		C-4.1,305.1-3.3,305.9-2.3,305.9z"/>
	<path class="st1" d="M8.2,305.9c1,0,1.8-0.8,1.8-1.8v-34.3c0-1-0.8-1.8-1.8-1.8s-1.8,0.8-1.8,1.8v34.3
		C6.4,305.1,7.2,305.9,8.2,305.9z"/>
	<path class="st1" d="M-12.9,305.9c1,0,1.8-0.8,1.8-1.8v-34.3c0-1-0.8-1.8-1.8-1.8s-1.8,0.8-1.8,1.8v34.3
		C-14.7,305.1-13.9,305.9-12.9,305.9z"/>
</g>
</svg>
