<?xml version="1.0" encoding="utf-8"?>
<!-- Generator: Adobe Illustrator 19.1.0, SVG Export Plug-In . SVG Version: 6.00 Build 0)  -->
<svg version="1.1" id="Layer_1" xmlns="http://www.w3.org/2000/svg" xmlns:xlink="http://www.w3.org/1999/xlink" x="0px" y="0px"
	 viewBox="-472.8 327.8 76.5 76.5" style="enable-background:new -472.8 327.8 76.5 76.5;" xml:space="preserve">
<style type="text/css">
	.st0{fill:#EBE8E8;}
	.st1{fill:#7A797A;stroke:#7A797A;stroke-width:2;stroke-miterlimit:10;}
	.st2{fill:#009900;stroke:#009900;stroke-width:2;stroke-miterlimit:10;}
	.st3{fill:none;stroke:#009900;stroke-width:5;stroke-miterlimit:10;}
	.st4{fill:none;stroke:#7A797A;stroke-width:5;stroke-miterlimit:10;}
	.st5{fill:#B1ADAD;stroke:#B1ADAD;stroke-width:2;stroke-miterlimit:10;}
	.st6{fill:none;stroke:#EBE8E8;stroke-width:5;stroke-miterlimit:10;}
</style>
<g>
	<path class="st1" d="M-431.9,366.1l13.1-13.1c0.4-0.4,0.6-0.8,0.6-1.3c0-0.5-0.2-1-0.6-1.3c-0.7-0.7-1.9-0.7-2.7,0l-13.1,13.1
		l-13.1-13.1c-0.7-0.7-1.9-0.7-2.7,0c-0.7,0.7-0.7,1.9,0,2.7l13.1,13.1l-13.1,13.1c-0.4,0.4-0.6,0.8-0.6,1.3s0.2,1,0.6,1.3
		c0.7,0.7,1.9,0.7,2.7,0l13.1-13.1l13.1,13.1c0.4,0.4,0.8,0.5,1.3,0.5c0.5,0,1-0.2,1.3-0.5c0.4-0.4,0.6-0.8,0.6-1.3s-0.2-1-0.6-1.3
		L-431.9,366.1z"/>
	<circle class="st4" cx="-434.5" cy="366.1" r="33.9"/>
</g>
</svg>
