<?xml version="1.0" encoding="utf-8"?>
<!-- Generator: Adobe Illustrator 19.1.0, SVG Export Plug-In . SVG Version: 6.00 Build 0)  -->
<svg version="1.1" id="Layer_1" xmlns="http://www.w3.org/2000/svg" xmlns:xlink="http://www.w3.org/1999/xlink" x="0px" y="0px"
	 viewBox="-126.4 242.5 76.5 76.5" style="enable-background:new -126.4 242.5 76.5 76.5;" xml:space="preserve">
<style type="text/css">
	.st0{fill:#7A797A;}
	.st1{fill:#B1ADAD;}
	.st2{fill:#009900;}
	.st3{fill:#EBE8E8;}
</style>
<g>
	<g>
		<path class="st3" d="M-79.6,285.3l4.5-3.3c-0.7-2.5-1-5.2-1-8.1c0-2.7,0.6-5.3,1.5-7.7c-0.7-1.9-1.5-3.3-2-4.1
			c-0.2-0.3-0.7-0.9-1.1-1.1c-3-2.1-5.7-1.7-7.1-1.4c-0.2,0.1-0.7,0.4-0.9,0.7l-2,2.6c-0.7,0.9-1.9,1.5-2.9,1.5h-15.1
			c-1.1,0-2.3-0.6-2.9-1.5l-2-2.6c-0.2-0.3-0.7-0.7-0.9-0.7c-0.5-0.2-1.3-0.3-2.1-0.3c-1.4,0-3.1,0.4-4.9,1.6
			c-0.3,0.2-0.8,0.8-1.1,1.1c-1.3,2.1-4.2,7.9-4.3,17.3c-0.2,13.1,1.6,14.4,4.7,14.9c2.9,0.5,6.2-6.1,7.4-8.6l0.2-0.4
			c0.4-0.8,1.2-1.8,2-2.3c1.7-1,5-2.3,11.2-2.4v0c0.2,0,0.5,0,0.7,0v0c6.2,0.1,9.5,1.3,11.2,2.4c0.8,0.5,1.6,1.5,2,2.3l0.2,0.4
			c1,1.9,3.2,6.3,5.5,8l-1.1-7.6C-80,285.8-79.9,285.5-79.6,285.3z M-108.4,273.2c0,0.3-0.2,0.6-0.5,0.6h-3v3.1
			c0,0.3-0.2,0.6-0.5,0.6h-3c-0.3,0-0.5-0.2-0.5-0.6v-3.1h-3c-0.3,0-0.5-0.2-0.5-0.6v-3.1c0-0.3,0.2-0.6,0.5-0.6h3v-3.1
			c0-0.3,0.2-0.6,0.5-0.6h3c0.3,0,0.5,0.2,0.5,0.6v3.1h3c0.3,0,0.5,0.2,0.5,0.6V273.2z M-76.5,271.8c0,1.3-1,2.4-2.3,2.4
			c-1.2,0-2.3-1.1-2.3-2.4c0-1.3,1-2.4,2.3-2.4C-77.6,269.4-76.5,270.5-76.5,271.8z M-82.5,265.8c1.3,0,2.3,1.1,2.3,2.4
			c0,1.3-1,2.4-2.3,2.4c-1.3,0-2.3-1.1-2.3-2.4C-84.8,266.8-83.8,265.8-82.5,265.8z M-86.2,274.2c-1.3,0-2.3-1.1-2.3-2.4
			c0-1.3,1-2.4,2.3-2.4c1.2,0,2.3,1.1,2.3,2.4C-84,273.1-85,274.2-86.2,274.2z M-82.5,277.8c-1.3,0-2.3-1.1-2.3-2.4
			c0-1.3,1-2.4,2.3-2.4c1.3,0,2.3,1.1,2.3,2.4C-80.3,276.7-81.3,277.8-82.5,277.8z"/>
	</g>
	<g>
		<path class="st3" d="M-66.8,294.6c0-0.1-0.1-0.2-0.2-0.3c-0.1-0.1-0.2-0.1-0.3,0l-2.5,1.1c-0.1,0.1-0.2,0.2-0.2,0.3l0.1,5.3
			c0,0.1,0,0.2,0.1,0.2l0,0l2.5,2.3l0,0c0.1,0.1,0.3,0.1,0.4,0.1c0.1-0.1,0.2-0.2,0.2-0.3L-66.8,294.6z"/>
		<path class="st3" d="M-63.2,294.6c0-0.1,0.1-0.2,0.2-0.3c0.1-0.1,0.2-0.1,0.3,0l2.5,1.1c0.1,0.1,0.2,0.2,0.2,0.3l-0.1,5.3
			c0,0.1,0,0.2-0.1,0.2l0,0l-2.5,2.3l0,0c-0.1,0.1-0.3,0.1-0.4,0.1c-0.1-0.1-0.2-0.2-0.2-0.3L-63.2,294.6z"/>
		<path class="st3" d="M-52.7,286.2L-57,283c0.6-2.4,0.9-5,0.9-7.7c0-8.7-6.7-16.7-8.9-17.4c-0.2-0.1-0.4-0.1-0.6,0
			c-2.2,0.7-8.9,8.7-8.9,17.4c0,2.7,0.3,5.3,0.9,7.7l-4.3,3.2c-0.3,0.2-0.4,0.5-0.3,0.8l1.8,12.1c0,0.3,0.3,0.6,0.7,0.7
			c0.4,0.1,0.8,0,1-0.3l6.8-7.5c1.7,0.9,3.6,0.9,5.3,0l6.8,7.5c0.2,0.2,0.5,0.3,0.7,0.3c0.1,0,0.2,0,0.3,0c0.4-0.1,0.6-0.4,0.7-0.7
			l1.8-12.1C-52.4,286.7-52.5,286.4-52.7,286.2z M-60.9,271.4c0,2.3-1.9,4.3-4.2,4.3c-2.3,0-4.2-1.9-4.2-4.3c0-2.3,1.9-4.3,4.2-4.3
			C-62.8,267.1-60.9,269-60.9,271.4z"/>
	</g>
</g>
</svg>
