<?xml version="1.0" encoding="utf-8"?>
<!-- Generator: Adobe Illustrator 19.1.0, SVG Export Plug-In . SVG Version: 6.00 Build 0)  -->
<svg version="1.1" id="Layer_1" xmlns="http://www.w3.org/2000/svg" xmlns:xlink="http://www.w3.org/1999/xlink" x="0px" y="0px"
	 viewBox="-217.9 242.5 76.5 76.5" style="enable-background:new -217.9 242.5 76.5 76.5;" xml:space="preserve">
<style type="text/css">
	.st0{fill:#EBE8E8;}
	.st1{fill:#7A797A;stroke:#7A797A;stroke-width:2;stroke-miterlimit:10;}
	.st2{fill:#009900;stroke:#009900;stroke-width:2;stroke-miterlimit:10;}
	.st3{fill:none;stroke:#009900;stroke-width:5;stroke-miterlimit:10;}
	.st4{fill:none;stroke:#7A797A;stroke-width:5;stroke-miterlimit:10;}
	.st5{fill:#B1ADAD;stroke:#B1ADAD;stroke-width:2;stroke-miterlimit:10;}
	.st6{fill:none;stroke:#EBE8E8;stroke-width:5;stroke-miterlimit:10;}
</style>
<g>
	<path class="st5" d="M-159.1,267.8l9.5,11.2h-37.6c-1,0-1.8,0.8-1.8,1.8c0,1,0.8,1.8,1.8,1.8h37.6l-9.5,11.2
		c-0.7,0.8-0.6,1.9,0.2,2.5c0.8,0.7,1.9,0.6,2.5-0.2l13.1-15.3l-13.1-15.3c-0.7-0.8-1.8-0.8-2.5-0.2
		C-159.7,266-159.8,267.1-159.1,267.8z"/>
	<path class="st5" d="M-169.2,307.6c0,3.2-2.5,5.6-5.6,5.6h-31.7c-3.1,0-5.6-2.5-5.6-5.6V254c0-3.2,2.5-5.6,5.6-5.6h31.7
		c3.1,0,5.6,2.5,5.6,5.6v12.5h3.7V254c0-5.2-4.1-9.5-9.4-9.5h-31.7c-5.1,0-9.4,4.2-9.4,9.5v53.5c0,5.2,4.1,9.5,9.4,9.5h31.7
		c5.1,0,9.4-4.2,9.4-9.5V295h-3.7V307.6z"/>
</g>
</svg>
