<?xml version="1.0" encoding="utf-8"?>
<!-- Generator: Adobe Illustrator 19.1.0, SVG Export Plug-In . SVG Version: 6.00 Build 0)  -->
<svg version="1.1" id="Layer_1" xmlns="http://www.w3.org/2000/svg" xmlns:xlink="http://www.w3.org/1999/xlink" x="0px" y="0px"
	 viewBox="-357.1 242.5 76.5 76.5" style="enable-background:new -357.1 242.5 76.5 76.5;" xml:space="preserve">
<style type="text/css">
	.st0{fill:#EBE8E8;}
	.st1{fill:#7A797A;stroke:#7A797A;stroke-width:2;stroke-miterlimit:10;}
	.st2{fill:#009900;stroke:#009900;stroke-width:2;stroke-miterlimit:10;}
	.st3{fill:none;stroke:#009900;stroke-width:5;stroke-miterlimit:10;}
	.st4{fill:none;stroke:#7A797A;stroke-width:5;stroke-miterlimit:10;}
	.st5{fill:#B1ADAD;stroke:#B1ADAD;stroke-width:2;stroke-miterlimit:10;}
	.st6{fill:none;stroke:#EBE8E8;stroke-width:5;stroke-miterlimit:10;}
</style>
<g>
	<g>
		<path class="st5" d="M-297.2,285.6h12.3c0.3,0,0.7-0.1,0.9-0.4c0.2-0.2,0.4-0.6,0.4-0.9c0-0.7-0.6-1.3-1.3-1.3h-12.3v-12.3
			c0-0.7-0.6-1.3-1.3-1.3c-0.7,0-1.3,0.6-1.3,1.3v12.3H-312c-0.3,0-0.7,0.1-0.9,0.4c-0.2,0.2-0.4,0.6-0.4,0.9c0,0.7,0.6,1.3,1.3,1.3
			h12.3v12.3c0,0.3,0.1,0.7,0.4,0.9c0.2,0.2,0.6,0.4,0.9,0.4s0.7-0.1,0.9-0.4c0.2-0.2,0.4-0.6,0.4-0.9V285.6z"/>
	</g>
	<g>
		<path class="st5" d="M-303.5,304.3h-50.6v-1.7c0-0.9,0.3-2,0.5-3.1c0.1-0.4,0.2-0.7,0.2-1c0.4-2.1,2.3-4,10.7-6.9
			c1.5-0.6,2.8-1,3.9-1.3c1.2-0.4,2.3-0.7,2.5-0.9c0.1-0.2,0.1-1.3,0.1-2.2v-0.4c0-0.8-0.1-0.8-0.5-1.3c-1-1.1-1.9-2.3-2.6-5.9
			c-0.1-0.7-0.2-0.7-0.3-0.9c-0.6-0.7-1.1-1.3-1.6-3.7c-0.4-1.7,0-2.7,0.4-3.5c0,0,0-0.1,0.1-0.1l-0.1-0.7c-0.1-0.8-0.2-1.5-0.3-3
			c-0.2-1.7,0.6-4.5,2.7-6.8c1.6-1.7,4.6-3.9,9.8-3.9c5.2,0,8.2,2.1,9.7,3.9c2,2.3,2.8,5,2.7,6.7c-0.1,1.5-0.2,2.3-0.3,3.1l-0.1,0.6
			c0,0,0,0.1,0.1,0.1c0.4,0.8,0.8,1.7,0.4,3.5c-0.6,2.3-1.1,3-1.6,3.7c-0.1,0.1-0.2,0.2-0.3,0.8c-0.7,3.6-1.6,4.8-2.6,5.9
			c-0.4,0.5-0.5,0.5-0.5,1.3v0.4c0,1,0,1.9,0.1,2.2c0.2,0.2,1.3,0.5,2.5,0.9c1,0.3,2.2,0.7,3.9,1.3c8.4,2.9,10.3,4.8,10.7,6.9
			c0.1,0.3,0.1,0.7,0.2,1.1c0.2,1,0.5,2.1,0.5,3L-303.5,304.3z M-350.5,300.9h43.4c0-0.2-0.1-0.5-0.1-0.7c-0.1-0.4-0.2-0.9-0.2-1.2
			c0-0.3-0.7-1.6-8.5-4.3c-1.5-0.5-2.7-0.9-3.8-1.2c-4.2-1.3-5-1.8-5-6.3v-0.4c0-1.9,0.7-2.8,1.3-3.6c0.6-0.6,1.2-1.3,1.7-4.1
			c0.3-1.4,0.7-1.9,1.2-2.5c0.2-0.2,0.5-0.5,0.9-2.2c0.2-0.6,0.1-0.8-0.1-1.1c-0.2-0.4-0.6-1-0.5-1.9l0.1-0.7
			c0.1-0.8,0.2-1.5,0.3-3.1c0.1-0.8-0.4-2.6-1.8-4.2c-1.6-1.8-4.1-2.8-7.3-2.8c-3.1,0-5.7,1-7.3,2.8c-1.4,1.6-1.8,3.5-1.8,4.2
			c0.1,1.4,0.2,2.2,0.3,3l0.1,0.8c0.1,0.9-0.2,1.4-0.4,1.8c-0.2,0.3-0.2,0.5-0.1,1.1c0.4,1.7,0.7,2,0.9,2.2c0.5,0.5,0.9,1.1,1.1,2.5
			c0.5,2.9,1.2,3.6,1.7,4.1c0.8,0.8,1.3,1.6,1.3,3.6v0.4c0,4.4-0.7,5-5,6.3c-1,0.3-2.2,0.7-3.8,1.2c-8,2.8-8.5,4.1-8.5,4.3
			c-0.1,0.4-0.1,0.7-0.2,1.2C-350.4,300.4-350.4,300.7-350.5,300.9z"/>
	</g>
</g>
</svg>
