<?xml version="1.0" encoding="utf-8"?>
<!DOCTYPE svg PUBLIC "-//W3C//DTD SVG 1.1//EN" "http://www.w3.org/Graphics/SVG/1.1/DTD/svg11.dtd">
<svg version="1.1" xmlns="http://www.w3.org/2000/svg" xmlns:xlink="http://www.w3.org/1999/xlink" x="0px" y="0px"
	 viewBox="0 0 383.1 247.5" enable-background="new 0 0 383.1 247.5" xml:space="preserve">
<path fill="#007AFF" d="M131.1,119.8h26.7l8.7,37h0.2l8.7-37h26.7v62.9h-17.7v-40.4h-0.2l-10.6,40.4h-14L149,142.4h-0.2v40.4h-17.7V119.8z"/>
<path fill="#007AFF" d="M231.3,119.8h18.3l22.2,62.9h-19.5l-2.5-9h-19.4l-2.8,9h-18.8L231.3,119.8z M246,160.3l-5.5-19.5h-0.2l-5.9,19.5H246z"/>
<path fill="#007AFF" d="M316.4,143.3c-0.1-0.7-0.2-1.5-0.5-2.6c-0.3-1-0.8-2-1.5-3c-0.7-1.1-1.6-2-2.9-2.8c-1.3-0.6-2.9-0.9-4.8-0.9
	c-4.3,0.1-7.3,1.9-9,5.5c-1.8,3.5-2.6,7.4-2.6,11.8c-0.1,4.4,0.8,8.4,2.6,11.8c1.8,3.6,4.8,5.4,9,5.5c3.1,0,5.4-1,7-3.1
	c1.5-2,2.4-4.4,2.9-7.4H335c-0.1,6.6-2.4,12.5-7.2,17.8c-4.7,5.4-11.6,8.2-20.7,8.4c-9.8-0.1-17.4-3.3-22.8-9.6
	c-5.4-6.1-8.1-13.9-8.1-23.4c0.1-10.1,2.9-18.1,8.4-24c5.5-5.9,13-8.9,22.5-9c16.7,0.5,25.9,8.8,27.6,24.9H316.4z"/>
<g fill="#007AFF">
	<path fill="#007AFF" d="M131.1,182.8h17.7v-1.4c-5.3-4.7-11.2-8.2-17.7-10.8V182.8z"/>
	<path fill="#007AFF" d="M148.8,147.3v-4.9h0.2l1.9,7.3c7.3,8.6,13.3,19.5,17.3,33.1h5.5l10.6-40.4h0.2v40.4h11.7l1.4-4l4.6-12.8v-46.1
		h-26.7l-8.7,37h-0.2l-8.7-37h-26.7v13.3C137.4,136.8,143.4,141.5,148.8,147.3z"/>
	<path fill="#007AFF" d="M128.5,32.8h-8.1c-4.5,0-8.1,3.6-8.1,8.1V49c0,4.5,3.6,8.1,8.1,8.1h8.1c4.4,0,8.1-3.6,8.1-8.1V41
		C136.5,36.5,132.9,32.8,128.5,32.8z"/>
	<path fill="#007AFF" d="M162.2,32.8h-8.1c-4.5,0-8.1,3.6-8.1,8.1V49c0,4.5,3.6,8.1,8.1,8.1h8.1c4.5,0,8.1-3.6,8.1-8.1V41
		C170.3,36.5,166.7,32.8,162.2,32.8z"/>
	<path fill="#007AFF" d="M307.1,184.3c9.1-0.2,16-3,20.7-8.4c4.7-5.2,7.1-11.1,7.2-17.8h-18.5c-0.4,3-1.4,5.5-2.9,7.4
		c-1.6,2-3.9,3.1-7,3.1c-4.3-0.1-7.3-1.9-9-5.5c-1.8-3.5-2.6-7.4-2.6-11.8c-0.1-4.4,0.8-8.4,2.6-11.8c1.8-3.5,4.8-5.4,9-5.5
		c2,0,3.6,0.3,4.8,0.9c1.3,0.7,2.3,1.6,2.9,2.8c0.7,1,1.2,2,1.5,3c0.3,1.1,0.4,1.9,0.5,2.6h18.3c-1.7-16.2-10.9-24.5-27.6-24.9
		c-9.5,0.1-17,3.1-22.5,9c-5.6,5.9-8.4,13.9-8.4,24c0,9.5,2.7,17.3,8.1,23.4C289.7,181,297.3,184.2,307.1,184.3z"/>
	<path fill="#007AFF" d="M230.4,173.8h19.4l2.5,9h19.5l-22.2-62.9h-18.3L214.1,168v14.8h13.6L230.4,173.8z M240.4,140.9h0.2l5.5,19.5
		h-11.5L240.4,140.9z"/>
	<rect x="180.6" y="33.7" fill="#007AFF" width="180" height="22.5"/>
	<path d="M119.1,120.3c0,0-30.6,0-44.4,0V94.1c0-2.1-1.3-3.9-3.5-4.7c-2.2-0.8-4.8-0.4-6.5,1.1l-62.9,48c-2.3,2-2.3,5.2,0,7.2
		l62.9,48.5c1.2,0.9,2.6,1.5,4.2,1.5c0.7,0,1.5-0.1,2.3-0.4c2.2-0.8,3.5-2.7,3.5-4.7v-22.9c17.2,0,44.4,0,44.4,0V120.3z"/>
	<path d="M159.6,182.8h8.6c-3.9-13.7-9.9-24.5-17.3-33.1L159.6,182.8z"/>
	<path d="M148.8,181.4v-34.1c-5.4-5.8-11.4-10.5-17.7-14.2v37.5C137.6,173.2,143.5,176.7,148.8,181.4z"/>
	<path d="M349.3,0H124.4c-18.6,0-33.7,15.1-33.7,33.7V101h22.5V78.8h247.4v134.9c0,6.2-5,11.3-11.3,11.3h-66.6h-0.8H124.4
		c-6.1,0-11.2-5-11.2-11.3V188H90.7v25.7c0,18.6,15.1,33.8,33.7,33.8h157.5h0.8h66.6c18.7,0,33.8-15.2,33.8-33.8v-180
		C383.1,15.1,368,0,349.3,0z M136.5,49c0,4.5-3.6,8.1-8.1,8.1h-8.1c-4.4,0-8.1-3.6-8.1-8.1V41c0-4.5,3.6-8.1,8.1-8.1h8.1
		c4.4,0,8.1,3.6,8.1,8.1V49z M170.3,49c0,4.5-3.6,8.1-8.1,8.1h-8.1c-4.5,0-8.1-3.6-8.1-8.1V41c0-4.5,3.6-8.1,8.1-8.1h8.1
		c4.4,0,8.1,3.6,8.1,8.1V49z M360.6,56.2h-180V33.7h180V56.2z"/>
</g>
</svg>