<?xml version="1.0" encoding="UTF-8" standalone="no"?>
<!-- Created with Inkscape (http://www.inkscape.org/) -->
<svg
   xmlns:svg="http://www.w3.org/2000/svg"
   xmlns="http://www.w3.org/2000/svg"
   version="1.0"
   width="21.431cm"
   height="23.086cm"
   viewBox="10.369 0.921 31.8 24.007"
   id="svg2">
  <defs
     id="defs121" />
  <line
     x1="19.25"
     y1="12.75"
     x2="19.25"
     y2="14.15"
     stroke="#000000"
     stroke-width="0.100"
     id="line4"
     style="stroke:#000000;stroke-width:0.1" />
  <polygon
     points="18.85,14.15 19.25,14.95 19.65,14.15 18.85,14.15 "
     id="polygon6"
     style="fill:#000000;stroke:none;stroke-width:0.1" />
  <line
     x1="12.5"
     y1="2.779"
     x2="12.5"
     y2="4.6500001"
     stroke="#000000"
     stroke-width="0.100"
     id="line8"
     style="stroke:#000000;stroke-width:0.1" />
  <polygon
     points="12.1,4.65 12.5,5.45 12.9,4.65 12.1,4.65 "
     id="polygon10"
     style="fill:#000000;stroke:none;stroke-width:0.1" />
  <path
     d="M 11.333,0.971 L 13.667,0.971 C 13.989,0.971 14.25,1.376 14.25,1.875 C 14.25,2.374 13.989,2.779 13.667,2.779 L 11.333,2.779 C 11.011,2.779 10.75,2.374 10.75,1.875 C 10.75,1.376 11.011,0.971 11.333,0.971"
     id="path12"
     style="fill:#dcdcdc;stroke:none;stroke-width:0.1" />
  <path
     d="M 11.333,0.971 L 13.667,0.971 C 13.989,0.971 14.25,1.376 14.25,1.875 C 14.25,2.374 13.989,2.779 13.667,2.779 L 11.333,2.779 C 11.011,2.779 10.75,2.374 10.75,1.875 C 10.75,1.376 11.011,0.971 11.333,0.971"
     id="path14"
     style="fill:none;stroke:#000000;stroke-width:0.1" />
  <text
     x="11.765"
     y="2.053"
     id="text16"
     style="font-size:1px;font-style:normal;font-weight:700;text-anchor:start;fill:#000000;font-family:luxi sans">UID</text>
  <line
     x1="12.489"
     y1="7.5"
     x2="12.497"
     y2="9.6499996"
     stroke="#000000"
     stroke-width="0.100"
     id="line18"
     style="stroke:#000000;stroke-width:0.1" />
  <polygon
     points="12.097,9.651 12.5,10.45 12.897,9.649 12.097,9.651 "
     id="polygon20"
     style="fill:#000000;stroke:none;stroke-width:0.1" />
  <path
     d="M 14.833,22.15 L 17.167,22.15 C 17.489,22.15 17.75,22.555 17.75,23.054 C 17.75,23.553 17.489,23.957 17.167,23.957 L 14.833,23.957 C 14.511,23.957 14.25,23.553 14.25,23.054 C 14.25,22.555 14.511,22.15 14.833,22.15"
     id="path22"
     style="fill:#d5d5d5;stroke:none;stroke-width:0.1" />
  <path
     d="M 14.833,22.15 L 17.167,22.15 C 17.489,22.15 17.75,22.555 17.75,23.054 C 17.75,23.553 17.489,23.957 17.167,23.957 L 14.833,23.957 C 14.511,23.957 14.25,23.553 14.25,23.054 C 14.25,22.555 14.511,22.15 14.833,22.15"
     id="path24"
     style="fill:none;stroke:#000000;stroke-width:0.1" />
  <text
     x="15.299"
     y="23.231001"
     id="text26"
     style="font-size:1px;font-style:normal;font-weight:700;text-anchor:start;fill:#000000;font-family:luxi sans">SID</text>
  <polygon
     points="12.5,10.5 14.5,12 12.5,13.5 10.5,12 12.5,10.5 "
     id="polygon28"
     style="fill:#b8f5fc;stroke:none;stroke-width:0.1" />
  <polygon
     points="12.5,10.5 14.5,12 12.5,13.5 10.5,12 12.5,10.5 "
     id="polygon30"
     style="fill:none;stroke:#000000;stroke-width:0.1" />
  <text
     x="11.023"
     y="12.25"
     id="text32"
     style="font-size:1px;font-style:normal;font-weight:700;text-anchor:start;fill:#000000;font-family:luxi sans">Found?</text>
  <text
     x="13.031"
     y="14.5"
     id="text34"
     style="font-size:0.80000001px;font-style:normal;font-weight:400;text-anchor:start;fill:#000000;font-family:luxi sans">Yes</text>
  <text
     x="14.854"
     y="11.75"
     id="text36"
     style="font-size:0.80000001px;font-style:normal;font-weight:400;text-anchor:start;fill:#000000;font-family:luxi sans">No</text>
  <line
     x1="14.5"
     y1="12"
     x2="16.4"
     y2="12"
     stroke="#000000"
     stroke-width="0.100"
     id="line38"
     style="stroke:#000000;stroke-width:0.1" />
  <polygon
     points="16.4,12.4 17.2,12 16.4,11.6 16.4,12.4 "
     id="polygon40"
     style="fill:#000000;stroke:none;stroke-width:0.1" />
  <line
     x1="16"
     y1="19.25"
     x2="16"
     y2="21.4"
     stroke="#000000"
     stroke-width="0.100"
     id="line42"
     style="stroke:#000000;stroke-width:0.1" />
  <polygon
     points="15.6,21.4 16,22.2 16.4,21.4 15.6,21.4 "
     id="polygon44"
     style="fill:#000000;stroke:none;stroke-width:0.1" />
  <path
     d="M 24.083,15.65 L 26.417,15.65 C 26.739,15.65 27,16.055 27,16.554 C 27,17.053 26.739,17.457 26.417,17.457 L 24.083,17.457 C 23.761,17.457 23.5,17.053 23.5,16.554 C 23.5,16.055 23.761,15.65 24.083,15.65"
     id="path46"
     style="fill:#d9d9d9;stroke:none;stroke-width:0.1" />
  <path
     d="M 24.083,15.65 L 26.417,15.65 C 26.739,15.65 27,16.055 27,16.554 C 27,17.053 26.739,17.457 26.417,17.457 L 24.083,17.457 C 23.761,17.457 23.5,17.053 23.5,16.554 C 23.5,16.055 23.761,15.65 24.083,15.65"
     id="path48"
     style="fill:none;stroke:#000000;stroke-width:0.1" />
  <text
     x="24.525999"
     y="16.731001"
     id="text50"
     style="font-size:1px;font-style:normal;font-weight:700;text-anchor:start;fill:#000000;font-family:luxi sans">Fail</text>
  <rect
     width="4.1399999"
     height="2.0999999"
     x="10.419"
     y="5.4000001"
     id="rect52"
     style="fill:#dcd7d7;stroke:none;stroke-width:0" />
  <rect
     width="4.1399999"
     height="2.0999999"
     x="10.419"
     y="5.4000001"
     id="rect54"
     style="fill:none;stroke:#000000;stroke-width:0.1" />
  <text
     x="10.969"
     y="6.6279998"
     id="text56"
     style="font-size:1px;font-style:normal;font-weight:700;text-anchor:start;fill:#000000;font-family:luxi sans">PassDB</text>
  <line
     x1="14.75"
     y1="5.25"
     x2="17"
     y2="4"
     stroke="#000000"
     stroke-width="0.050"
     id="line58"
     style="stroke:#000000;stroke-width:0.05" />
  <line
     x1="14.75"
     y1="7.5"
     x2="17"
     y2="8.75"
     stroke="#000000"
     stroke-width="0.050"
     id="line60"
     style="stroke:#000000;stroke-width:0.05" />
  <rect
     width="8"
     height="5.25"
     x="17.25"
     y="3.75"
     id="rect62"
     style="fill:#ffffff;stroke:none;stroke-width:0" />
  <rect
     width="8"
     height="5.25"
     x="17.25"
     y="3.75"
     id="rect64"
     style="fill:none;stroke:#000000;stroke-width:0.1" />
  <text
     x="20.089001"
     y="4.5"
     id="text66"
     style="font-size:1px;font-style:normal;font-weight:700;text-anchor:start;fill:#000000;font-family:luxi sans">guest</text>
  <text
     x="18.85"
     y="5.5"
     id="text68"
     style="font-size:1px;font-style:normal;font-weight:700;text-anchor:start;fill:#000000;font-family:luxi sans">smbpasswd</text>
  <text
     x="19.709"
     y="6.5"
     id="text70"
     style="font-size:1px;font-style:normal;font-weight:700;text-anchor:start;fill:#000000;font-family:luxi sans">tdbsam</text>
  <text
     x="19.511999"
     y="7.5"
     id="text72"
     style="font-size:1px;font-style:normal;font-weight:700;text-anchor:start;fill:#000000;font-family:luxi sans">ldapsam</text>
  <text
     x="17.799999"
     y="8.5"
     id="text74"
     style="font-size:1px;font-style:normal;font-weight:700;text-anchor:start;fill:#000000;font-family:luxi sans">ldapsam_compat</text>
  <line
     x1="17.25"
     y1="4.75"
     x2="25.25"
     y2="4.75"
     stroke="#000000"
     stroke-width="0.050"
     id="line76"
     style="stroke:#000000;stroke-width:0.05" />
  <line
     x1="17.25"
     y1="5.75"
     x2="25.25"
     y2="5.75"
     stroke="#000000"
     stroke-width="0.050"
     id="line78"
     style="stroke:#000000;stroke-width:0.05" />
  <line
     x1="17.25"
     y1="6.75"
     x2="25.25"
     y2="6.75"
     stroke="#000000"
     stroke-width="0.050"
     id="line80"
     style="stroke:#000000;stroke-width:0.05" />
  <line
     x1="17.25"
     y1="7.75"
     x2="25.25"
     y2="7.75"
     stroke="#000000"
     stroke-width="0.050"
     id="line82"
     style="stroke:#000000;stroke-width:0.05" />
  <polyline
     fill="none"
     stroke="#000000"
     stroke-width="0.100"
     points="12.500,13.500 12.500,19.000 19.250,19.000 19.250,18.000 "
     id="polyline84"
     style="fill:none;stroke:#000000;stroke-width:0.1" />
  <rect
     width="4.4899998"
     height="2.0999999"
     x="16.993999"
     y="10.9"
     id="rect86"
     style="fill:#d7d7d7;stroke:none;stroke-width:0" />
  <rect
     width="4.4899998"
     height="2.0999999"
     x="16.993999"
     y="10.9"
     id="rect88"
     style="fill:none;stroke:#000000;stroke-width:0.1" />
  <text
     x="17.544001"
     y="12.128"
     id="text90"
     style="font-size:1px;font-style:normal;font-weight:700;text-anchor:start;fill:#000000;font-family:luxi sans">Winbind</text>
  <line
     x1="21.5"
     y1="12.5"
     x2="23.5"
     y2="13.25"
     stroke="#000000"
     stroke-width="0.050"
     id="line92"
     style="stroke:#000000;stroke-width:0.05" />
  <line
     x1="21.5"
     y1="11.25"
     x2="23.5"
     y2="10.5"
     stroke="#000000"
     stroke-width="0.050"
     id="line94"
     style="stroke:#000000;stroke-width:0.05" />
  <rect
     width="7.6669998"
     height="2.75"
     x="23.75"
     y="10.5"
     id="rect96"
     style="fill:#ffffff;stroke:none;stroke-width:0" />
  <rect
     width="7.6669998"
     height="2.75"
     x="23.75"
     y="10.5"
     id="rect98"
     style="fill:none;stroke:#000000;stroke-width:0.1" />
  <text
     x="23.433001"
     y="11.507"
     id="text100"
     style="font-size:1px;font-style:normal;font-weight:700;text-anchor:start;fill:#000000;font-family:luxi sans">winbindd_idmap.tdb</text>
  <text
     x="25.761999"
     y="12.75"
     id="text102"
     style="font-size:1px;font-style:normal;font-weight:700;text-anchor:start;fill:#000000;font-family:luxi sans">ldapsam</text>
  <line
     x1="31.417"
     y1="11.875"
     x2="23.75"
     y2="11.875"
     stroke="#000000"
     stroke-width="0.050"
     id="line104"
     style="stroke:#000000;stroke-width:0.05" />
  <polygon
     points="19.25,15 21.25,16.5 19.25,18 17.25,16.5 19.25,15 "
     id="polygon106"
     style="fill:#bcf9ff;stroke:none;stroke-width:0.1" />
  <polygon
     points="19.25,15 21.25,16.5 19.25,18 17.25,16.5 19.25,15 "
     id="polygon108"
     style="fill:none;stroke:#000000;stroke-width:0.1" />
  <text
     x="17.773001"
     y="16.75"
     id="text110"
     style="font-size:1px;font-style:normal;font-weight:700;text-anchor:start;fill:#000000;font-family:luxi sans">Found?</text>
  <text
     x="19.781"
     y="19"
     id="text112"
     style="font-size:0.80000001px;font-style:normal;font-weight:400;text-anchor:start;fill:#000000;font-family:luxi sans">Yes</text>
  <text
     x="21.604"
     y="16.25"
     id="text114"
     style="font-size:0.80000001px;font-style:normal;font-weight:400;text-anchor:start;fill:#000000;font-family:luxi sans">No</text>
  <line
     x1="21.25"
     y1="16.5"
     x2="22.65"
     y2="16.5"
     stroke="#000000"
     stroke-width="0.100"
     id="line116"
     style="stroke:#000000;stroke-width:0.1" />
  <polygon
     points="22.65,16.9 23.45,16.5 22.65,16.1 22.65,16.9 "
     id="polygon118"
     style="fill:#000000;stroke:none;stroke-width:0.1" />
</svg>
