<?xml version="1.0" encoding="UTF-8" standalone="no"?>
<!-- Created with Inkscape (http://www.inkscape.org/) -->
<svg
   xmlns:svg="http://www.w3.org/2000/svg"
   xmlns="http://www.w3.org/2000/svg"
   version="1.0"
   width="26.294001cm"
   height="2.4000001cm"
   viewBox="0.45 1.35 26.744 3.75"
   id="svg2">
  <defs
     id="defs41" />
  <path
     d="M 13.02,1.721 L 15.23,1.721 C 15.535,1.721 15.782,2.126 15.782,2.625 C 15.782,3.124 15.535,3.529 15.23,3.529 L 13.02,3.529 C 12.715,3.529 12.468,3.124 12.468,2.625 C 12.468,2.126 12.715,1.721 13.02,1.721"
     id="path4"
     style="fill:#d7d7d7;stroke:none;stroke-width:0.1" />
  <path
     d="M 13.02,1.721 L 15.23,1.721 C 15.535,1.721 15.782,2.126 15.782,2.625 C 15.782,3.124 15.535,3.529 15.23,3.529 L 13.02,3.529 C 12.715,3.529 12.468,3.124 12.468,2.625 C 12.468,2.126 12.715,1.721 13.02,1.721"
     id="path6"
     style="fill:none;stroke:#000000;stroke-width:0.1" />
  <text
     x="13.424"
     y="2.803"
     id="text8"
     style="font-size:1px;font-style:normal;font-weight:700;text-anchor:start;fill:#000000;font-family:luxi sans">SID</text>
  <path
     d="M 1.083,1.65 L 3.417,1.65 C 3.739,1.65 4,2.055 4,2.554 C 4,3.053 3.739,3.457 3.417,3.457 L 1.083,3.457 C 0.761,3.457 0.5,3.053 0.5,2.554 C 0.5,2.055 0.761,1.65 1.083,1.65"
     id="path10"
     style="fill:#d7d7d7;stroke:none;stroke-width:0.1" />
  <path
     d="M 1.083,1.65 L 3.417,1.65 C 3.739,1.65 4,2.055 4,2.554 C 4,3.053 3.739,3.457 3.417,3.457 L 1.083,3.457 C 0.761,3.457 0.5,3.053 0.5,2.554 C 0.5,2.055 0.761,1.65 1.083,1.65"
     id="path12"
     style="fill:none;stroke:#000000;stroke-width:0.1" />
  <text
     x="1.511"
     y="2.7309999"
     id="text14"
     style="font-size:1px;font-style:normal;font-weight:700;text-anchor:start;fill:#000000;font-family:luxi sans">GID</text>
  <line
     x1="16"
     y1="3"
     x2="18"
     y2="3.5"
     stroke="#000000"
     stroke-width="0.050"
     id="line16"
     style="stroke:#000000;stroke-width:0.05" />
  <line
     x1="16"
     y1="2"
     x2="18"
     y2="1.5"
     stroke="#000000"
     stroke-width="0.050"
     id="line18"
     style="stroke:#000000;stroke-width:0.05" />
  <line
     x1="4"
     y1="2.5539999"
     x2="11.65"
     y2="2.618"
     stroke="#000000"
     stroke-width="0.100"
     id="line20"
     style="stroke:#000000;stroke-width:0.1" />
  <polygon
     points="11.647,3.018 12.45,2.625 11.653,2.218 11.647,3.018 "
     id="polygon22"
     style="fill:#000000;stroke:none;stroke-width:0.1" />
  <rect
     width="6.9219999"
     height="2.0999999"
     x="4.572"
     y="1.4"
     id="rect24"
     style="fill:#d7d7d7;stroke:none;stroke-width:0" />
  <rect
     width="6.9219999"
     height="2.0999999"
     x="4.572"
     y="1.4"
     id="rect26"
     style="fill:none;stroke:#000000;stroke-width:0.1" />
  <text
     x="5.1220002"
     y="2.6270001"
     id="text28"
     style="font-size:1px;font-style:normal;font-weight:700;text-anchor:start;fill:#000000;font-family:luxi sans">net groupmap</text>
  <rect
     width="8.1999998"
     height="2.2"
     x="18.25"
     y="1.5"
     id="rect30"
     style="fill:#ffffff;stroke:none;stroke-width:0" />
  <rect
     width="8.1999998"
     height="2.2"
     x="18.25"
     y="1.5"
     id="rect32"
     style="fill:none;stroke:#000000;stroke-width:0.1" />
  <text
     x="20.511999"
     y="2.25"
     id="text34"
     style="font-size:1px;font-style:normal;font-weight:700;text-anchor:start;fill:#000000;font-family:luxi sans">ldapsam</text>
  <text
     x="17.955999"
     y="3.2"
     id="text36"
     style="font-size:1px;font-style:normal;font-weight:700;text-anchor:start;fill:#000000;font-family:luxi sans">groupmap_idmap.tdb</text>
  <line
     x1="26.549999"
     y1="2.45"
     x2="18.35"
     y2="2.45"
     stroke="#000000"
     stroke-width="0.050"
     id="line38"
     style="stroke:#000000;stroke-width:0.05" />
</svg>
