<?xml version="1.0" encoding="utf-8"?>
<!-- Generator: Adobe Illustrator 19.0.0, SVG Export Plug-In . SVG Version: 6.00 Build 0)  -->
<svg width="668px" height="688px" version="1.1" id="Capa_1" xmlns:sketch="http://www.bohemiancoding.com/sketch/ns"
	 xmlns="http://www.w3.org/2000/svg" xmlns:xlink="http://www.w3.org/1999/xlink" x="0px" y="0px" viewBox="28.5 52.5 668 688"
	 style="enable-background:new 28 53 668 688;" xml:space="preserve">
<style type="text/css">
	.st0{fill:#2F383B;}
</style>
<title>ClientList/icon_all@fw</title>
<desc>Created with Sketch.</desc>
<g id="_x31_111" sketch:type="MSPage">
	<g id="Artboard-5" transform="translate(-3181.000000, -310.000000)" sketch:type="MSArtboardGroup">
		<g id="Imported-Layers-Copy-63" transform="translate(3194.000000, 323.000000)" sketch:type="MSLayerGroup">
			<path id="Fill-1" sketch:type="MSShapeGroup" class="st0" d="M52.5,66.5L52.5,66.5c0,0,0,0.1,0,0.2V66.5L52.5,66.5"/>
			<path id="Fill-2" sketch:type="MSShapeGroup" class="st0" d="M52.2,69.6L52.2,69.6L52.2,69.6L52.2,69.6"/>
			<path id="Fill-3" sketch:type="MSShapeGroup" class="st0" d="M52.9,69.6L52.9,69.6L52.9,69.6"/>
			<path id="Fill-4" sketch:type="MSShapeGroup" class="st0" d="M68,74.5c-2.2-1.6-2.5-6.3-2.5-6.3c-0.2-8.4-6.1-15.1-13.4-15.1
				s-13.2,6.7-13.4,15.1c0,0-0.3,4.7-2.5,6.3c-2.2,1.6-7.1,5.6-7.1,7.7s3.7-2.2,6.6-1.9c0,0.2,0,0.4,0,0.6c0,3.7,1.2,7.2,3.3,9.9
				c0.3-0.1,0.6-0.2,0.9-0.3c-0.5-1.7-0.8-3.4-0.8-5.3c0-5.7,2.5-10.7,6.3-13.4c-1.4-1-2.4-2.9-2.4-5.1c0-3.2,2.1-5.8,4.6-5.8
				s4.6,2.6,4.6,5.8c0,0.1,0,0.2,0,0.2c0,0.1,0,0.1,0,0.2c0,0.3,0,0.6-0.1,0.8c-0.1,0.6-0.3,1.1-0.5,1.6c0.2,0,0.4,0,0.6,0l0,0l0,0
				c0.3,0,0.5,0,0.8,0l0,0c0.3,0,0.5,0,0.8,0.1l0,0c-0.7-0.7-1.2-1.6-1.2-2.5c0-0.2,0-0.4,0-0.5s0-0.2,0-0.3c0-2.4,2.2-4.4,4.9-4.4
				c2.2,0,4.1,1.3,4.7,3.2c-0.8-1.6-2.5-2.6-4.5-2.6c-1.2,0-2.3,0.4-3.2,1.1c0.7-0.4,1.5-0.7,2.4-0.7c2.4,0,4.4,1.8,4.4,4
				c0,2.1-1.7,3.8-3.9,4l0,0l0.1,0.1l0,0c4.5,2.5,7.7,7.9,7.7,14.3c0,1.9-0.3,3.7-0.8,5.3c0.3,0.1,0.6,0.2,0.8,0.3
				c2.1-2.8,3.3-6.2,3.3-9.9c0-0.2,0-0.4,0-0.6c2.9-0.4,6.6,4,6.6,1.9C75.3,80.1,70.3,76.1,68,74.5"/>
			<path id="Fill-6" sketch:type="MSShapeGroup" class="st0" d="M51.2,65.3L51.2,65.3L51.2,65.3"/>
			<path id="Fill-7" sketch:type="MSShapeGroup" class="st0" d="M50.9,65.3L50.9,65.3L50.9,65.3L50.9,65.3"/>
			<path id="Fill-8" sketch:type="MSShapeGroup" class="st0" d="M52.3,67c-0.1-0.9-0.5-1.6-1.1-1.7c0.1,0,0.3,0.1,0.4,0.2
				c0.3,0.3,0.4,0.7,0.3,0.9c-0.2,0.2-0.6,0.2-0.9-0.1c-0.3-0.3-0.4-0.7-0.3-0.9c0.1-0.1,0.1-0.1,0.2-0.1c-0.6,0.1-1.1,0.9-1.1,1.9
				c0,1.1,0.6,2,1.2,2c0.5,0,0.9-0.5,1.1-1.1c0.1-0.2,0.1-0.5,0.1-0.8C52.3,67.2,52.3,67.1,52.3,67"/>
			<path id="Fill-9" sketch:type="MSShapeGroup" class="st0" d="M52.9,68L52.9,68c0.5,0.7,1.3,1,1.7,0.6s0.4-1.1-0.1-1.8
				c-0.5-0.6-1.2-0.9-1.6-0.7h-0.1c-0.1,0.1-0.2,0.2-0.2,0.3v0.1c0,0.2,0,0.3,0,0.5s0.1,0.5,0.3,0.7L52.9,68L52.9,68z M53.4,66.3
				c0.1-0.1,0.4-0.1,0.6,0.1c0.2,0.2,0.3,0.4,0.2,0.5s-0.4,0.1-0.6-0.1S53.3,66.4,53.4,66.3L53.4,66.3z"/>
			<path id="Fill-10" sketch:type="MSShapeGroup" class="st0" d="M57.4,70.9c-1.1-0.6-2.4-1-3.6-1.2c-0.3,0-0.5-0.1-0.8-0.1l0,0
				c-0.3,0-0.5,0-0.8,0l0,0l0,0c-0.2,0-0.4,0-0.6,0c-1.4,0.1-2.8,0.4-4,1c-1,1.2,4.6,6.1,4.6,6.1h0.3c0,0,6.1-4.5,5.1-5.7l0,0
				L57.4,70.9"/>
			<path id="Fill-11" sketch:type="MSShapeGroup" class="st0" d="M61.7,90.2c-4.5,0-8.1,2.8-8.1,6.2c0,0.6,0.1,1.1,0.3,1.7h15.6
				c0.2-0.5,0.3-1.1,0.3-1.7c0-2.4-1.8-4.4-4.4-5.5c-0.3-0.1-0.5-0.2-0.8-0.3C63.5,90.3,62.7,90.2,61.7,90.2"/>
			<path id="Fill-12" sketch:type="MSShapeGroup" class="st0" d="M34.7,96.3c0,0.6,0.1,1.2,0.3,1.7h15.6c0.2-0.5,0.3-1.1,0.3-1.7
				c0-3.4-3.6-6.2-8.1-6.2c-1,0-2,0.1-2.9,0.4c-0.3,0.1-0.6,0.2-0.9,0.3C36.4,91.9,34.7,94,34.7,96.3"/>
		</g>
		<g id="Imported-Layers-Copy-64" transform="translate(3188.000000, 428.000000)" sketch:type="MSLayerGroup">
			<path id="Fill-1_1_" sketch:type="MSShapeGroup" class="st0" d="M44.5,88.4c-0.5,0.9-1.7,2-1.2,2.9s1.4,0.8,2.4,0.8h11.8
				c1,0,1.9,0,2.4-0.8c0.5-0.9-0.7-2-1.2-2.9l-0.5-0.9H45L44.5,88.4"/>
			<path id="Fill-2_1_" sketch:type="MSShapeGroup" class="st0" d="M67.9,52.5H35.3c-3.7,0-6.7,3-6.7,6.8v20.8c0,3.7,3,6.8,6.7,6.8
				h32.6c3.7,0,6.7-3,6.7-6.8V59.3C74.5,55.6,71.5,52.5,67.9,52.5L67.9,52.5z M70.5,80.1c0,1.5-1.2,2.6-2.6,2.6H35.3
				c-1.4,0-2.6-1.2-2.6-2.6V59.3c0-1.5,1.2-2.6,2.6-2.6h32.6c1.4,0,2.6,1.2,2.6,2.6V80.1L70.5,80.1z"/>
			<path id="Fill-3_1_" sketch:type="MSShapeGroup" class="st0" d="M75.4,54.6h7.7c0.5,0,0.9,0.5,0.9,1v1c0,0.6-0.4,1-0.9,1h-6.6
				c0.1,0.5,0.1,1,0.1,1.6v0.6H83c0.5,0,0.9,0.5,0.9,1v1c0,0.6-0.4,1-0.9,1h-6.4v14.9h9.3V55.2c0-1.5-1.2-2.6-2.6-2.6h-9.5
				c-0.1,0-0.2,0-0.3,0C74.3,53.1,74.9,53.8,75.4,54.6"/>
			<path id="Fill-4_1_" sketch:type="MSShapeGroup" class="st0" d="M75.4,84.8h8c1.4,0,2.6-1.2,2.6-2.6v-2.8h-9.3v0.8
				C76.8,81.8,76.3,83.4,75.4,84.8L75.4,84.8z M78.8,81c0.6,0,1.1,0.5,1.1,1.1s-0.5,1.1-1.1,1.1s-1.1-0.5-1.1-1.1S78.1,81,78.8,81
				L78.8,81z"/>
			<path id="Fill-5" sketch:type="MSShapeGroup" class="st0" d="M73.4,83.9c-0.2,0.2-0.3,0.4-0.5,0.7C73.1,84.3,73.3,84.1,73.4,83.9
				"/>
			<path id="Fill-6_1_" sketch:type="MSShapeGroup" class="st0" d="M51.5,66.9L51.5,66.9c0.1,0,0.2,0.1,0.3,0.1
				c0.2,0.2,0.2,0.4,0.1,0.5s-0.3,0.1-0.5-0.1c-0.2-0.2-0.2-0.4-0.1-0.5C51.4,66.9,51.4,66.9,51.5,66.9c-0.4,0.1-0.7,0.5-0.7,1.1
				s0.3,1.1,0.7,1.1s0.7-0.5,0.7-1.1S51.9,66.9,51.5,66.9"/>
			<path id="Fill-7_1_" sketch:type="MSShapeGroup" class="st0" d="M53.4,67.9c-0.2-0.4-0.7-0.6-0.9-0.4c-0.2,0.2-0.2,0.6,0.1,1
				c0.3,0.4,0.7,0.5,0.9,0.3C53.8,68.7,53.8,68.2,53.4,67.9L53.4,67.9z M53.3,67.9c-0.1,0.1-0.2,0.1-0.3,0s-0.1-0.2-0.1-0.3
				c0.1-0.1,0.2-0.1,0.3,0C53.3,67.7,53.3,67.8,53.3,67.9L53.3,67.9z"/>
			<path id="Fill-8_1_" sketch:type="MSShapeGroup" class="st0" d="M50.3,69.7c-0.4,0.5,2,2.7,2,2.7h0.2c0,0,2.7-2,2.2-2.5
				c-0.7-0.4-1.5-0.6-2.4-0.6C51.5,69.3,50.8,69.4,50.3,69.7"/>
			<path id="Fill-9_1_" sketch:type="MSShapeGroup" class="st0" d="M59.3,71.5c-1-0.7-1.1-2.8-1.1-2.8c-0.1-3.8-2.7-6.8-5.9-6.8
				c-3.2,0-5.9,3-6,6.8c0,0-0.1,2.1-1.1,2.8S42.1,74,42.1,75s1.6-1,2.9-0.8c0,0.1,0,0.2,0,0.3c0,1.7,0.5,3.2,1.5,4.5
				c-1.2,0.5-1.9,1.4-1.9,2.4c0,0.3,0,0.5,0.1,0.8h6.9c0.1-0.2,0.1-0.5,0.1-0.8c0-1.5-1.6-2.8-3.6-2.8c-0.5,0-0.9,0.1-1.3,0.2
				c-0.2-0.7-0.3-1.5-0.3-2.4c0-2.6,1.1-4.8,2.8-6c-0.6-0.4-1.1-1.3-1.1-2.3c0-1.4,0.9-2.6,2-2.6s2,1.2,2,2.6c0,0.5-0.1,0.9-0.3,1.3
				c0.1,0,0.2,0,0.2,0c0.2,0,0.5,0,0.7,0.1c-0.3-0.3-0.6-0.8-0.6-1.3c0-0.1,0-0.2,0-0.2c0-1.1,1-2,2.2-2c1,0,1.8,0.6,2.1,1.4
				c-0.3-0.7-1.1-1.2-2-1.2c-0.5,0-1,0.2-1.4,0.5c0.3-0.2,0.7-0.3,1.1-0.3c1.1,0,2,0.8,2,1.8c0,0.9-0.8,1.7-1.7,1.8
				c2,1.1,3.5,3.6,3.5,6.5c0,0.8-0.1,1.6-0.3,2.4c-0.4-0.1-0.8-0.2-1.3-0.2c-2,0-3.6,1.2-3.6,2.8c0,0.3,0,0.5,0.1,0.7h6.9
				c0.1-0.2,0.1-0.5,0.1-0.8c0-1.1-0.8-2-2-2.5c0.9-1.2,1.5-2.8,1.5-4.4c0-0.1,0-0.2,0-0.3c1.3-0.2,2.9,1.8,2.9,0.8
				C62.4,74,60.3,72.2,59.3,71.5L59.3,71.5z M52.3,67.7c-0.1-1.4-1-2.4-2.2-2.5c-1.2,0-2.1,1.1-2.2,2.4c0-0.1,0-0.1,0-0.2
				c0-1.4,1-2.6,2.2-2.6c1.2,0,2.2,1.2,2.2,2.6C52.3,67.6,52.3,67.7,52.3,67.7L52.3,67.7z"/>
		</g>
		<g id="Imported-Layers-Copy-65" transform="translate(3295.000000, 323.000000)" sketch:type="MSLayerGroup">
			<path id="Fill-1_2_" sketch:type="MSShapeGroup" class="st0" d="M46.3,75c8.1-0.1,16.1-0.2,24.2-0.2V53l-24.2,4.8L46.3,75"/>
			<path id="Fill-2_2_" sketch:type="MSShapeGroup" class="st0" d="M46.3,77v17c8.1,1.6,16.1,3.2,24.2,4.8V77.2
				C62.4,77.1,54.3,77.1,46.3,77"/>
			<path id="Fill-3_2_" sketch:type="MSShapeGroup" class="st0" d="M44.3,75V58.3c-5.1,1-10.1,2-15.2,3v13.9
				C34.2,75.1,39.3,75.1,44.3,75"/>
			<path id="Fill-4_2_" sketch:type="MSShapeGroup" class="st0" d="M44.3,76.9c-5.1-0.1-10.1-0.1-15.2-0.2v13.8c5.1,1,10.1,2,15.2,3
				V76.9"/>
		</g>
		<g id="Imported-Layers-Copy-66" transform="translate(3287.000000, 428.000000)" sketch:type="MSLayerGroup">
			<path id="Fill-1_3_" sketch:type="MSShapeGroup" class="st0" d="M44.5,88.5c-0.5,0.9-1.7,2-1.2,2.9s1.4,0.8,2.4,0.8h11.8
				c1,0,1.9,0,2.4-0.8c0.5-0.9-0.7-2-1.2-2.9l-0.5-0.9H45L44.5,88.5"/>
			<path id="Fill-2_3_" sketch:type="MSShapeGroup" class="st0" d="M67.9,52.7H35.3c-3.7,0-6.7,3-6.7,6.8v20.8c0,3.7,3,6.8,6.7,6.8
				h32.6c3.7,0,6.7-3,6.7-6.8V59.5C74.5,55.8,71.5,52.7,67.9,52.7L67.9,52.7z M70.5,80.3c0,1.5-1.2,2.6-2.6,2.6H35.3
				c-1.4,0-2.6-1.2-2.6-2.6V59.5c0-1.5,1.2-2.6,2.6-2.6h32.6c1.4,0,2.6,1.2,2.6,2.6V80.3L70.5,80.3z"/>
			<path id="Fill-3_3_" sketch:type="MSShapeGroup" class="st0" d="M75.4,54.8h7.7c0.5,0,0.9,0.5,0.9,1v1c0,0.6-0.4,1-0.9,1h-6.6
				c0.1,0.5,0.1,1,0.1,1.6V60H83c0.5,0,0.9,0.5,0.9,1v1c0,0.6-0.4,1-0.9,1h-6.4v14.9h9.3V55.4c0-1.5-1.2-2.6-2.6-2.6h-9.5
				c-0.1,0-0.2,0-0.3,0C74.3,53.3,74.9,54,75.4,54.8"/>
			<path id="Fill-4_3_" sketch:type="MSShapeGroup" class="st0" d="M75.4,84.9h8c1.4,0,2.6-1.2,2.6-2.6v-2.8h-9.3v0.8
				C76.8,82,76.3,83.6,75.4,84.9L75.4,84.9z M78.8,81.2c0.6,0,1.1,0.5,1.1,1.1s-0.5,1.1-1.1,1.1s-1.1-0.5-1.1-1.1
				S78.1,81.2,78.8,81.2L78.8,81.2z"/>
			<path id="Fill-5_1_" sketch:type="MSShapeGroup" class="st0" d="M73.4,84.1c-0.2,0.2-0.3,0.4-0.5,0.7
				C73.1,84.5,73.3,84.3,73.4,84.1"/>
			<path id="Fill-6_2_" sketch:type="MSShapeGroup" class="st0" d="M50.3,70.3c3.2,0,6.3-0.1,9.5-0.1v-8.6c-3.2,0.6-6.3,1.3-9.5,1.9
				V70.3"/>
			<path id="Fill-7_2_" sketch:type="MSShapeGroup" class="st0" d="M50.3,71v6.7c3.2,0.6,6.3,1.3,9.5,1.9V71
				C56.5,71.1,53.4,71.1,50.3,71"/>
			<path id="Fill-8_2_" sketch:type="MSShapeGroup" class="st0" d="M49.4,70.3v-6.6c-2,0.4-4,0.8-5.9,1.2v5.5
				C45.5,70.3,47.4,70.3,49.4,70.3"/>
			<path id="Fill-9_2_" sketch:type="MSShapeGroup" class="st0" d="M49.4,71c-2,0-4,0-5.9-0.1v5.5c2,0.4,4,0.8,5.9,1.2V71"/>
		</g>
		<g id="Imported-Layers-Copy-94" transform="translate(3784.000000, 634.000000)" sketch:type="MSLayerGroup">
			<path id="Fill-1_4_" sketch:type="MSShapeGroup" class="st0" d="M44.5,88.5c-0.5,0.9-1.7,2-1.2,2.9s1.4,0.8,2.4,0.8h11.8
				c1,0,1.9,0,2.4-0.8c0.5-0.9-0.7-2-1.2-2.9l-0.5-0.9H45L44.5,88.5"/>
			<path id="Fill-2_4_" sketch:type="MSShapeGroup" class="st0" d="M67.9,52.7H35.3c-3.7,0-6.7,3-6.7,6.8v20.8c0,3.7,3,6.8,6.7,6.8
				h32.6c3.7,0,6.7-3,6.7-6.8V59.5C74.5,55.8,71.5,52.7,67.9,52.7L67.9,52.7z M70.5,80.3c0,1.5-1.2,2.6-2.6,2.6H35.3
				c-1.4,0-2.6-1.2-2.6-2.6V59.5c0-1.5,1.2-2.6,2.6-2.6h32.6c1.4,0,2.6,1.2,2.6,2.6V80.3L70.5,80.3z"/>
			<path id="Fill-3_4_" sketch:type="MSShapeGroup" class="st0" d="M75.4,54.8h7.7c0.5,0,0.9,0.5,0.9,1v1c0,0.6-0.4,1-0.9,1h-6.6
				c0.1,0.5,0.1,1,0.1,1.6V60H83c0.5,0,0.9,0.5,0.9,1v1c0,0.6-0.4,1-0.9,1h-6.4v14.9h9.3V55.4c0-1.5-1.2-2.6-2.6-2.6h-9.5
				c-0.1,0-0.2,0-0.3,0C74.3,53.3,74.9,54,75.4,54.8"/>
			<path id="Fill-4_4_" sketch:type="MSShapeGroup" class="st0" d="M75.4,84.9h8c1.4,0,2.6-1.2,2.6-2.6v-2.8h-9.3v0.8
				C76.8,82,76.3,83.6,75.4,84.9L75.4,84.9z M78.8,81.2c0.6,0,1.1,0.5,1.1,1.1s-0.5,1.1-1.1,1.1s-1.1-0.5-1.1-1.1
				S78.1,81.2,78.8,81.2L78.8,81.2z"/>
		</g>
		<g id="Imported-Layers-Copy-67" transform="translate(3287.000000, 530.000000)" sketch:type="MSLayerGroup">
			<path id="Fill-1_5_" sketch:type="MSShapeGroup" class="st0" d="M79.3,52.8H35.5c-1.7,0-3.1,1.5-3.1,3.3v26.5
				c0,1.8,1.4,3.3,3.1,3.3h43.8c1.7,0,3.1-1.5,3.1-3.3V56.2C82.3,54.3,81,52.8,79.3,52.8L79.3,52.8z M77.3,79.9
				c0,1.4-1.1,2.6-2.5,2.6H39.9c-1.4,0-2.5-1.2-2.5-2.6v-21c0-1.5,1.1-2.6,2.5-2.6h34.9c1.4,0,2.5,1.2,2.5,2.6L77.3,79.9L77.3,79.9z
				"/>
			<path id="Fill-2_5_" sketch:type="MSShapeGroup" class="st0" d="M86,87.6H28.7c0,0.2-0.1,0.4-0.1,0.6V89c0,1.8,1.4,3.3,3.1,3.3
				h51.2c1.7,0,3.1-1.5,3.1-3.3v-0.8C86.1,88,86,87.8,86,87.6L86,87.6z M76.3,90.8h-2.7c-0.3,0-0.6-0.3-0.6-0.6s0.3-0.6,0.6-0.6h2.7
				c0.3,0,0.6,0.3,0.6,0.6S76.6,90.8,76.3,90.8L76.3,90.8z M80.9,90.8h-2.7c-0.3,0-0.6-0.3-0.6-0.6c0-0.3,0.3-0.6,0.6-0.6h2.7
				c0.3,0,0.6,0.3,0.6,0.6S81.3,90.8,80.9,90.8L80.9,90.8z"/>
			<path id="Fill-3_5_" sketch:type="MSShapeGroup" class="st0" d="M56.2,69.1c2.8,0,5.7-0.1,8.5-0.1v-7.6c-2.8,0.6-5.7,1.1-8.5,1.7
				L56.2,69.1"/>
			<path id="Fill-4_5_" sketch:type="MSShapeGroup" class="st0" d="M56.2,69.8v6c2.8,0.6,5.7,1.1,8.5,1.7v-7.6
				C61.8,69.8,59,69.8,56.2,69.8"/>
			<path id="Fill-5_2_" sketch:type="MSShapeGroup" class="st0" d="M55.4,69.1v-5.9c-1.8,0.4-3.6,0.7-5.3,1.1v4.9
				C51.9,69.1,53.7,69.1,55.4,69.1"/>
			<path id="Fill-6_3_" sketch:type="MSShapeGroup" class="st0" d="M55.4,69.8c-1.8,0-3.6,0-5.3-0.1v4.8c1.8,0.4,3.6,0.7,5.3,1.1
				V69.8"/>
		</g>
		<g id="Imported-Layers-Copy-68" transform="translate(3297.000000, 628.000000)" sketch:type="MSLayerGroup">
			<path id="Fill-1_6_" sketch:type="MSShapeGroup" class="st0" d="M61.4,52.8H33.3c-2.5,0-4.5,2-4.5,4.4v49.7c0,2.4,2,4.4,4.5,4.4
				h28.2c2.5,0,4.5-2,4.5-4.4V57.2C65.9,54.8,63.8,52.8,61.4,52.8L61.4,52.8z M51.2,108.2h-7.7c-0.7,0-1.4-0.6-1.4-1.3
				c0-0.7,0.6-1.4,1.4-1.4h7.7c0.7,0,1.4,0.6,1.4,1.4C52.5,107.6,51.9,108.2,51.2,108.2L51.2,108.2z M61.9,61v40.8H32.7V58.2h29.3
				V61L61.9,61z"/>
			<path id="Fill-2_6_" sketch:type="MSShapeGroup" class="st0" d="M45.8,79.6c3.7,0,7.4-0.1,11.1-0.1v-9.8
				c-3.7,0.7-7.4,1.5-11.1,2.2V79.6"/>
			<path id="Fill-3_6_" sketch:type="MSShapeGroup" class="st0" d="M45.8,80.5v7.7c3.7,0.7,7.4,1.5,11.1,2.2v-9.8
				C53.2,80.5,49.4,80.5,45.8,80.5"/>
			<path id="Fill-4_6_" sketch:type="MSShapeGroup" class="st0" d="M44.8,79.6V72c-2.3,0.5-4.6,0.9-7,1.4v6.3
				C40.2,79.6,42.4,79.6,44.8,79.6"/>
			<path id="Fill-5_3_" sketch:type="MSShapeGroup" class="st0" d="M44.8,80.5c-2.3,0-4.6,0-7-0.1v6.2c2.3,0.5,4.6,0.9,7,1.4V80.5"
				/>
		</g>
		<g id="Imported-Layers-Copy-69" transform="translate(3395.000000, 323.000000)" sketch:type="MSLayerGroup">
			<path id="Fill-1_7_" sketch:type="MSShapeGroup" class="st0" d="M66.3,67.2c-1.6,0-2.9,1.3-2.9,2.9v11.3c0,1.6,1.3,2.9,2.9,2.9
				s2.9-1.3,2.9-2.9V70.1C69.1,68.5,67.9,67.2,66.3,67.2L66.3,67.2z M31.6,67.2c-1.6,0-2.9,1.3-2.9,2.9v11.3c0,1.6,1.3,2.9,2.9,2.9
				s2.9-1.3,2.9-2.9V70.1C34.4,68.5,33.2,67.2,31.6,67.2L31.6,67.2z"/>
			<path id="Fill-2_7_" sketch:type="MSShapeGroup" class="st0" d="M36.3,67.3v20.6c0,1.2,1,2.2,2.2,2.2H41v6.3
				c0,1.6,1.3,2.9,2.9,2.9c1.6,0,2.9-1.3,2.9-2.9v-6.3h4.5v6.3c0,1.6,1.3,2.9,2.9,2.9c1.6,0,2.9-1.3,2.9-2.9v-6.3h2.4
				c1.2,0,2.2-1,2.2-2.2V67.3H36.3"/>
			<path id="Fill-3_7_" sketch:type="MSShapeGroup" class="st0" d="M55,56.6l2.4-3.4c0.1-0.2,0.1-0.5-0.1-0.6
				c-0.2-0.1-0.4-0.1-0.6,0.1l-2.5,3.5c-1.6-0.6-3.4-1-5.3-1c-1.9,0-3.7,0.4-5.3,1l-2.5-3.5c-0.1-0.2-0.4-0.3-0.6-0.1
				c-0.2,0.1-0.2,0.4-0.1,0.6l2.4,3.4c-3.8,1.7-6.4,5-6.7,8.8h25.6C61.4,61.6,58.8,58.3,55,56.6L55,56.6z M43.5,62
				c-0.8,0-1.4-0.6-1.4-1.4c0-0.8,0.6-1.4,1.4-1.4c0.8,0,1.4,0.6,1.4,1.4C44.9,61.3,44.3,62,43.5,62L43.5,62z M54.5,62
				c-0.8,0-1.4-0.6-1.4-1.4c0-0.8,0.6-1.4,1.4-1.4c0.8,0,1.4,0.6,1.4,1.4C55.9,61.3,55.3,62,54.5,62L54.5,62z"/>
		</g>
		<g id="Imported-Layers-Copy-70" transform="translate(3397.000000, 418.000000)" sketch:type="MSLayerGroup">
			<path id="Fill-1_8_" sketch:type="MSShapeGroup" class="st0" d="M61,52.9H33c-2.4,0-4.4,2-4.4,4.4V107c0,2.4,2,4.4,4.4,4.4h28
				c2.4,0,4.4-2,4.4-4.4V57.3C65.4,54.9,63.4,52.9,61,52.9L61,52.9z M50.8,108.4h-7.6c-0.7,0-1.4-0.6-1.4-1.3c0-0.7,0.6-1.3,1.4-1.3
				h7.6c0.7,0,1.4,0.6,1.4,1.3C52.2,107.8,51.5,108.4,50.8,108.4L50.8,108.4z M61.5,61.2V102H32.4V58.4h29.1V61.2L61.5,61.2z"/>
			<path id="Fill-2_8_" sketch:type="MSShapeGroup" class="st0" d="M55,79.1c-0.8,0.8-0.8,2,0,2.8l5.5,5.5c0.8,0.8,2,0.8,2.8,0
				c0.8-0.8,0.8-2,0-2.8l-5.5-5.5C57,78.4,55.8,78.4,55,79.1L55,79.1z M38.3,95.9c-0.8,0.8-0.8,2,0,2.8l5.5,5.5c0.8,0.8,2,0.8,2.8,0
				s0.8-2,0-2.8L41,95.9C40.3,95.1,39,95.1,38.3,95.9L38.3,95.9z"/>
			<path id="Fill-3_8_" sketch:type="MSShapeGroup" class="st0" d="M40.5,93.7l10.1,10.1c0.6,0.6,1.6,0.6,2.2,0l1.2-1.2l3.1,3.1
				c0.8,0.8,2,0.8,2.8,0c0.8-0.8,0.8-2,0-2.8l-3.1-3.1l2.2-2.2l3.1,3.1c0.8,0.8,2,0.8,2.8,0s0.8-2,0-2.8l-3.1-3.1l1.2-1.2
				c0.6-0.6,0.6-1.6,0-2.2l-10.1-10L40.5,93.7"/>
			<path id="Fill-4_7_" sketch:type="MSShapeGroup" class="st0" d="M44.4,79.4l-0.5-2.8c0-0.2-0.2-0.3-0.3-0.3
				c-0.2,0-0.2,0.2-0.2,0.4l0.5,2.9c-1.1,0.5-2.1,1.2-3,2.1c-0.9,0.9-1.6,2-2.1,3l-2.9-0.5c-0.2,0-0.3,0.1-0.4,0.2
				c0,0.1,0.1,0.3,0.3,0.3l2.8,0.5c-1,2.7-0.6,5.5,1.1,7.6L52,80.5C49.9,78.8,47,78.4,44.4,79.4L44.4,79.4z M41.4,87.6
				c-0.4,0.4-1,0.4-1.4,0c-0.4-0.4-0.4-1,0-1.4c0.4-0.4,1-0.4,1.4,0C41.8,86.6,41.8,87.2,41.4,87.6L41.4,87.6z M46.8,82.3
				c-0.4,0.4-1,0.4-1.4,0c-0.4-0.4-0.4-1,0-1.4c0.4-0.4,1-0.4,1.4,0C47.2,81.3,47.2,81.9,46.8,82.3L46.8,82.3z"/>
		</g>
		<g id="Imported-Layers-Copy-71" transform="translate(3394.000000, 523.000000)" sketch:type="MSLayerGroup">
			<path id="Fill-1_9_" sketch:type="MSShapeGroup" class="st0" d="M67.8,52.9H32.4c-1.8,0-3.4,1.5-3.4,3.4v46.6
				c0,1.9,1.5,3.4,3.4,3.4h35.3c1.8,0,3.4-1.5,3.4-3.4V56.2C71.1,54.4,69.6,52.9,67.8,52.9L67.8,52.9z M33.3,57h33.6v39.7H33.3V57z
				 M52.8,103.3h-6.7c-0.5,0-1-0.4-1-1v-0.6c0-0.5,0.4-1,1-1h6.7c0.5,0,1,0.4,1,1v0.6C53.8,102.9,53.3,103.3,52.8,103.3L52.8,103.3z
				"/>
			<path id="Fill-2_9_" sketch:type="MSShapeGroup" class="st0" d="M59.7,70.6c-0.8,0.8-0.8,2.1,0,2.9l5.8,5.8
				c0.8,0.8,2.1,0.8,2.9,0s0.8-2.1,0-2.9l-5.8-5.8C61.8,69.8,60.4,69.8,59.7,70.6L59.7,70.6z M42.2,88.2c-0.8,0.8-0.8,2.1,0,2.9
				l5.8,5.8c0.8,0.8,2.1,0.8,2.9,0c0.8-0.8,0.8-2.1,0-2.9l-5.8-5.8C44.3,87.4,42.9,87.4,42.2,88.2L42.2,88.2z"/>
			<path id="Fill-3_9_" sketch:type="MSShapeGroup" class="st0" d="M44.5,85.9L55,96.5c0.6,0.6,1.6,0.6,2.3,0l1.3-1.3l3.2,3.2
				c0.8,0.8,2.1,0.8,2.9,0s0.8-2.1,0-2.9l-3.2-3.2l2.3-2.3l3.2,3.2c0.8,0.8,2.1,0.8,2.9,0s0.8-2.1,0-2.9l-3.2-3.2l1.3-1.3
				c0.6-0.6,0.6-1.7,0-2.3L57.4,72.9L44.5,85.9"/>
			<path id="Fill-4_8_" sketch:type="MSShapeGroup" class="st0" d="M48.5,70.8L48,67.9c0-0.2-0.2-0.3-0.3-0.3
				c-0.2,0-0.3,0.2-0.2,0.4l0.6,3.1c-1.1,0.5-2.2,1.2-3.2,2.2s-1.7,2.1-2.2,3.2l-3-0.6c-0.2,0-0.3,0.1-0.4,0.2
				c0,0.2,0.1,0.3,0.3,0.3l2.9,0.5c-1,2.8-0.7,5.8,1.1,8l12.9-13C54.3,70.2,51.3,69.8,48.5,70.8L48.5,70.8z M45.5,79.4
				c-0.4,0.4-1,0.4-1.4,0c-0.4-0.4-0.4-1,0-1.4c0.4-0.4,1-0.4,1.4,0C45.9,78.4,45.9,79,45.5,79.4L45.5,79.4z M51,73.8
				c-0.4,0.4-1,0.4-1.4,0c-0.4-0.4-0.4-1,0-1.4c0.4-0.4,1-0.4,1.4,0C51.4,72.8,51.4,73.4,51,73.8L51,73.8z"/>
		</g>
		<g id="Imported-Layers-Copy-72" transform="translate(3494.000000, 323.000000)" sketch:type="MSLayerGroup">
			<path id="Fill-1_10_" sketch:type="MSShapeGroup" class="st0" d="M69.4,86.9c-1.1,2.4-1.7,3.5-3.1,5.6c-2,3-4.8,6.7-8.3,6.7
				c-3.1,0-3.9-2-8.1-2c-4.2,0-5.1,2-8.2,2c-3.5,0-6.2-3.4-8.2-6.4c-5.6-8.3-6.2-18.1-2.7-23.3c2.5-3.7,6.3-5.9,10-5.9
				c3.7,0,6.1,2,9.1,2s4.8-2,9.1-2c3.2,0,6.7,1.7,9.1,4.7C60,72.7,61.3,83.9,69.4,86.9"/>
			<path id="Fill-2_10_" sketch:type="MSShapeGroup" class="st0" d="M55.8,60.4c1.6-2,2.7-4.7,2.3-7.5c-2.6,0.2-5.5,1.8-7.3,3.8
				c-1.6,1.9-2.9,4.7-2.4,7.4C51.2,64.1,54,62.5,55.8,60.4"/>
		</g>
		<g id="Imported-Layers-Copy-73" transform="translate(3499.000000, 418.000000)" sketch:type="MSLayerGroup">
			<path id="Fill-1_11_" sketch:type="MSShapeGroup" class="st0" d="M43.3,104.8c-1,0-1.9,0.8-1.9,1.9s0.9,1.9,1.9,1.9
				c1.1,0,1.9-0.8,1.9-1.9S44.3,104.8,43.3,104.8"/>
			<path id="Fill-2_11_" sketch:type="MSShapeGroup" class="st0" d="M52.3,52.6H34.4c-3.2,0-5.9,2.6-5.9,5.8v47.4
				c0,3.2,2.6,5.8,5.9,5.8h17.8c3.2,0,5.9-2.6,5.9-5.8V58.3C58,55.2,55.4,52.6,52.3,52.6L52.3,52.6z M55.5,103.1
				c0,0.2-0.2,0.4-0.4,0.4h-24c-0.2,0-0.4-0.2-0.4-0.4V60.6c0-0.2,0.2-0.4,0.4-0.4h24c0.2,0,0.4,0.2,0.4,0.4V103.1L55.5,103.1z
				 M43.3,109.3c-1.5,0-2.7-1.2-2.7-2.6s1.2-2.6,2.7-2.6s2.7,1.2,2.7,2.6C46,108.1,44.8,109.3,43.3,109.3L43.3,109.3z M45.3,57.3
				c0.2,0,0.4,0.2,0.4,0.4s-0.2,0.4-0.4,0.4h-4.3c-0.2,0-0.4-0.2-0.4-0.4s0.2-0.4,0.4-0.4H45.3L45.3,57.3z M42.9,55.6
				c0-0.2,0.2-0.4,0.4-0.4c0.2,0,0.4,0.2,0.4,0.4S43.6,56,43.3,56C43.2,56,42.9,55.8,42.9,55.6L42.9,55.6z M39.4,57.3
				c0.2,0,0.4,0.2,0.4,0.4s-0.2,0.4-0.4,0.4c-0.2,0-0.4-0.2-0.4-0.4S39.3,57.3,39.4,57.3L39.4,57.3z"/>
			<path id="Fill-3_10_" sketch:type="MSShapeGroup" class="st0" d="M52,86.7c-0.5,1-0.7,1.5-1.3,2.4c-0.9,1.3-2.1,2.9-3.6,2.9
				c-1.3,0-1.7-0.9-3.5-0.8c-1.8,0-2.2,0.9-3.5,0.8c-1.5,0-2.6-1.5-3.5-2.7c-2.4-3.6-2.6-7.8-1.2-10c1-1.6,2.7-2.5,4.3-2.5
				s2.6,0.9,3.9,0.9c1.3,0,2-0.9,3.9-0.9c1.4,0,2.8,0.7,3.9,2C48,80.6,48.5,85.4,52,86.7"/>
			<path id="Fill-4_9_" sketch:type="MSShapeGroup" class="st0" d="M46.2,75.3c0.7-0.8,1.2-2,1-3.2c-1.1,0.1-2.4,0.8-3.1,1.6
				c-0.7,0.8-1.2,2-1,3.2C44.3,76.9,45.4,76.2,46.2,75.3"/>
		</g>
		<g id="Imported-Layers-Copy-74" transform="translate(3485.000000, 530.000000)" sketch:type="MSLayerGroup">
			<path id="Fill-1_12_" sketch:type="MSShapeGroup" class="st0" d="M79.3,52.8H35.5c-1.7,0-3.1,1.5-3.1,3.3v26.5
				c0,1.8,1.4,3.3,3.1,3.3h43.8c1.7,0,3.1-1.5,3.1-3.3V56.2C82.3,54.3,81,52.8,79.3,52.8L79.3,52.8z M77.3,79.9
				c0,1.4-1.1,2.6-2.5,2.6H39.9c-1.4,0-2.5-1.2-2.5-2.6v-21c0-1.5,1.1-2.6,2.5-2.6h34.9c1.4,0,2.5,1.2,2.5,2.6L77.3,79.9L77.3,79.9z
				"/>
			<path id="Fill-2_12_" sketch:type="MSShapeGroup" class="st0" d="M86,87.6H28.7c0,0.2-0.1,0.4-0.1,0.6V89c0,1.8,1.4,3.3,3.1,3.3
				h51.2c1.7,0,3.1-1.5,3.1-3.3v-0.8C86.1,88,86,87.8,86,87.6L86,87.6z M76.3,90.8h-2.7c-0.3,0-0.6-0.3-0.6-0.6
				c0-0.3,0.3-0.6,0.6-0.6h2.7c0.3,0,0.6,0.3,0.6,0.6S76.6,90.8,76.3,90.8L76.3,90.8z M80.9,90.8h-2.7c-0.3,0-0.6-0.3-0.6-0.6
				c0-0.3,0.3-0.6,0.6-0.6h2.7c0.3,0,0.6,0.3,0.6,0.6S81.3,90.8,80.9,90.8L80.9,90.8z"/>
			<path id="Fill-3_11_" sketch:type="MSShapeGroup" class="st0" d="M65.4,73.8c-0.4,1-0.6,1.4-1.2,2.3c-0.8,1.2-1.9,2.7-3.3,2.7
				c-1.2,0-1.5-0.8-3.2-0.8c-1.7,0-2,0.8-3.2,0.8c-1.4,0-2.4-1.4-3.2-2.6c-2.2-3.4-2.4-7.3-1.1-9.4c1-1.5,2.5-2.4,3.9-2.4
				c1.5,0,2.4,0.8,3.6,0.8s1.9-0.8,3.6-0.8c1.3,0,2.6,0.7,3.6,1.9C61.8,68.1,62.3,72.6,65.4,73.8"/>
			<path id="Fill-4_10_" sketch:type="MSShapeGroup" class="st0" d="M60,63.1c0.6-0.8,1.1-1.9,0.9-3.1c-1,0.1-2.2,0.7-2.9,1.5
				c-0.6,0.8-1.1,1.9-0.9,3C58.3,64.6,59.3,63.9,60,63.1"/>
		</g>
		<g id="Imported-Layers-Copy-75" transform="translate(3493.000000, 632.000000)" sketch:type="MSLayerGroup">
			<path id="Fill-1_13_" sketch:type="MSShapeGroup" class="st0" d="M62.3,88.2H50.3h-1.3H37.2c-4.2,0-7.7-2.6-8.4-6.6
				c0.2,1.8,0.3,3.1,0.5,5c0.9,4.2,5.9,5.7,8.5,5.7h11.3h1.3h11.3c2.7,0,7.7-1.5,8.5-5.7c0.2-1.8,0.3-3.1,0.5-5
				C69.8,85.6,66.3,88.2,62.3,88.2"/>
			<path id="Fill-2_13_" sketch:type="MSShapeGroup" class="st0" d="M70.3,78.1L70.3,78.1v1.2C70.3,78.9,70.3,78.5,70.3,78.1"/>
			<path id="Fill-3_12_" sketch:type="MSShapeGroup" class="st0" d="M69.6,71.6l-1-10.2c-0.3-4.6-4.4-8.3-9-8.3H39.8
				c-4.7,0-8.7,3.8-9,8.3L29,78.2c-0.3,4.6,3.2,8.3,7.9,8.3h25.4c4.3,0,7.6-3.1,7.9-7.2V78L69.6,71.6L69.6,71.6z M50,59.8
				c0.8-0.9,2.1-1.6,3.2-1.7c0.2,1.3-0.3,2.5-1,3.3c-0.7,0.9-2,1.6-3.2,1.6C48.8,61.8,49.3,60.6,50,59.8L50,59.8z M56.9,75.7
				c-0.9,1.3-2.1,3-3.7,3c-1.4,0-1.7-0.9-3.6-0.9c-1.9,0-2.2,0.9-3.6,0.9c-1.5,0-2.7-1.5-3.6-2.8c-1.5-2.3-2.2-4.7-2.1-6.9
				c0-1.4,0.3-2.6,0.9-3.5c1.1-1.6,2.8-2.6,4.4-2.6c1.6,0,2.7,0.9,4,0.9c1.3,0,2.1-0.9,4-0.9c1.4,0,2.9,0.8,4,2.1
				c-1.7,0.9-2.4,2.5-2.4,4c0,1.8,1.1,3.5,3,4.2C57.8,74.3,57.5,74.7,56.9,75.7L56.9,75.7z"/>
		</g>
		<g id="Imported-Layers-Copy-76" transform="translate(3488.000000, 734.000000)" sketch:type="MSLayerGroup">
			<path id="Fill-1_14_" sketch:type="MSShapeGroup" class="st0" d="M77.8,53.2H31.9c-1.8,0-3.3,1.5-3.3,3.3v32.6
				c0,1.8,1.5,3.3,3.3,3.3h20.7v1.8h-9.1c-1.2,0-2.2,1-2.2,2.2s1,2.2,2.2,2.2H66c1.2,0,2.2-1,2.2-2.2s-1-2.2-2.2-2.2h-9.1v-1.8h20.7
				c1.8,0,3.3-1.5,3.3-3.3V56.5C81,54.7,79.6,53.2,77.8,53.2L77.8,53.2z M55,89.3c-0.8,0-1.4-0.6-1.4-1.4s0.6-1.4,1.4-1.4
				c0.8,0,1.4,0.6,1.4,1.4S55.8,89.3,55,89.3L55,89.3z M34.3,57.6h40.8v26.1H34.3V57.6z"/>
			<path id="Fill-2_14_" sketch:type="MSShapeGroup" class="st0" d="M61.8,73.6c-0.4,0.9-0.6,1.2-1.1,2c-0.7,1-1.7,2.4-2.9,2.4
				c-1.1,0-1.3-0.7-2.8-0.7c-1.4,0-1.8,0.7-2.8,0.7c-1.2,0-2.1-1.2-2.8-2.2c-1.9-2.9-2.1-6.4-0.9-8.2c0.8-1.3,2.2-2.1,3.4-2.1
				c1.3,0,2.1,0.7,3.1,0.7s1.6-0.7,3.1-0.7c1.1,0,2.3,0.6,3.1,1.7C58.7,68.6,59.2,72.5,61.8,73.6"/>
			<path id="Fill-3_13_" sketch:type="MSShapeGroup" class="st0" d="M57.2,64.3c0.5-0.7,0.9-1.7,0.8-2.7c-0.9,0.1-1.9,0.6-2.5,1.3
				c-0.5,0.7-1,1.6-0.8,2.6C55.7,65.6,56.5,65,57.2,64.3"/>
		</g>
		<g id="Imported-Layers-Copy-77" transform="translate(3493.000000, 829.000000)" sketch:type="MSLayerGroup">
			<path id="Fill-1_15_" sketch:type="MSShapeGroup" class="st0" d="M67.8,52.6H32.4c-1.8,0-3.4,1.5-3.4,3.4v46.6
				c0,1.9,1.5,3.4,3.4,3.4h35.3c1.8,0,3.4-1.5,3.4-3.4V56C71.1,54.1,69.6,52.6,67.8,52.6L67.8,52.6z M50.2,103.1
				c-1.1,0-2.1-0.9-2.1-2.1c0-1.1,0.9-2.1,2.1-2.1c1.1,0,2.1,0.9,2.1,2.1C52.2,102.2,51.3,103.1,50.2,103.1L50.2,103.1z M33.3,56.7
				h33.6v39.8H33.3V56.7z"/>
			<path id="Fill-2_15_" sketch:type="MSShapeGroup" class="st0" d="M59.4,80.1c-0.5,1.1-0.8,1.7-1.4,2.7c-0.9,1.4-2.2,3.2-3.8,3.2
				c-1.4,0-1.8-0.9-3.7-0.9S48.3,86,46.8,86c-1.6,0-2.8-1.6-3.7-3c-2.6-3.9-2.8-8.6-1.3-11c1.1-1.7,2.9-2.8,4.6-2.8
				c1.7,0,2.8,0.9,4.2,0.9s2.2-0.9,4.2-0.9c1.5,0,3.1,0.8,4.2,2.2C55.2,73.4,55.8,78.7,59.4,80.1"/>
			<path id="Fill-3_14_" sketch:type="MSShapeGroup" class="st0" d="M53.2,67.6c0.7-0.9,1.3-2.2,1.1-3.6c-1.2,0.1-2.5,0.8-3.3,1.8
				c-0.7,0.9-1.3,2.2-1.1,3.5C51,69.3,52.3,68.6,53.2,67.6"/>
		</g>
		<g id="Imported-Layers-Copy-78" transform="translate(3581.000000, 339.000000)" sketch:type="MSLayerGroup">
			<path id="Fill-1_16_" sketch:type="MSShapeGroup" class="st0" d="M84.8,62.6H73.3v3.5h12c3-0.2,3.4-3.2,3.4-3.2
				c0.1-0.8,0-1.4,0-1.4c-0.1-0.7-1.1-2.9-3.1-3.1c-1.2-0.1-12.2-0.8-12.2-0.8c0.3,1.2,0.8,1.5,1.1,1.9c0.8,0.8,1.9,0.9,1.9,0.9
				c0.3,0,8.5,0.7,8.5,0.7c0.3,0,0.8,0,0.8,0.7c0,0.2-0.1,0.4-0.2,0.5C85.4,62.4,85.1,62.6,84.8,62.6"/>
			<path id="Fill-2_16_" sketch:type="MSShapeGroup" class="st0" d="M38.3,57.1l-3.7-0.4l-5.7,9.6h3.9L38.3,57.1"/>
			<path id="Fill-3_15_" sketch:type="MSShapeGroup" class="st0" d="M62.2,56.4v-3.5h-3.4v3.5H62.2"/>
			<path id="Fill-4_11_" sketch:type="MSShapeGroup" class="st0" d="M58.3,52.9H47c-1.5,0.1-2.2,0.9-2.7,1.4
				c-0.5,0.6-0.8,1.8-0.8,1.8v-3.2h-6c-0.4,0-0.9,0.2-1.2,0.7c-0.3,0.5-1.7,2.8-1.7,2.8l23.6-0.1V52.9"/>
			<path id="Fill-5_4_" sketch:type="MSShapeGroup" class="st0" d="M58.8,61.6c-0.1-0.5-1-2.8-3.1-3c-1.2-0.1-12.1-1-12.1-1
				c0.2,1.2,0.7,1.7,1,2.1c0.8,0.8,2,1,2,1c0.3,0,8.4,0.7,8.4,0.7c0.3,0,0.7,0.1,0.7,0.8c0,0.1-0.1,0.7-0.7,0.7H43.3v-5.3L40,57.4v9
				l15.7-0.1c2.7-0.6,3-3.2,3-3.2c0-0.2,0.1-0.4,0.1-0.6v-0.6C58.8,61.6,58.8,61.6,58.8,61.6"/>
			<path id="Fill-6_4_" sketch:type="MSShapeGroup" class="st0" d="M90.8,55.3v-0.7h0.4c0.1,0,0.1,0,0.2,0s0.1,0.1,0.1,0.2v0.3
				c0,0.1,0,0.1,0,0.1s0,0,0,0.1h0.2l0,0c0,0,0,0-0.1-0.1v-0.1v-0.2c0-0.1,0-0.2,0-0.2l-0.1-0.1c0.1,0,0.1-0.1,0.2-0.2
				c0-0.1,0.1-0.1,0.1-0.2c0-0.2-0.1-0.3-0.2-0.4c-0.1,0-0.2-0.1-0.3-0.1h-0.7v1.6L90.8,55.3L90.8,55.3z M91.1,53.9
				c0.1,0,0.1,0,0.2,0s0.1,0.1,0.1,0.2c0,0.1,0,0.2-0.1,0.2s-0.1,0.1-0.2,0.1h-0.5v-0.6L91.1,53.9L91.1,53.9z"/>
			<path id="Fill-7_3_" sketch:type="MSShapeGroup" class="st0" d="M73.1,56.4v-3.5h-3.4v3.5H73.1"/>
			<path id="Fill-8_3_" sketch:type="MSShapeGroup" class="st0" d="M58.8,61.7c0,0.1,0,0.4,0,0.6v0.6c0.5,3,3.1,3.2,3.1,3.2h0.3h7.6
				c0,0,3.3-0.3,3.3-3.6v-4.9l-3.3-0.2v4.1c0,0,0,1.2-1.1,1.2h-5.7c0,0-1-0.1-1-1.2v-4.7l-3.3-0.2L58.8,61.7"/>
			<path id="Fill-9_3_" sketch:type="MSShapeGroup" class="st0" d="M91,55.9c0.4,0,0.7-0.2,1-0.4c0.3-0.3,0.4-0.7,0.4-1.1
				c0-0.4-0.1-0.8-0.4-1.1s-0.6-0.4-1-0.4c-0.8,0-1.4,0.7-1.4,1.5C89.6,55.3,90.3,55.9,91,55.9L91,55.9z M91,53
				c0.3,0,0.7,0.1,0.9,0.4c0.2,0.3,0.4,0.6,0.4,1s-0.1,0.7-0.4,1c-0.2,0.3-0.6,0.4-0.9,0.4c-0.7,0-1.3-0.6-1.3-1.4
				C89.8,53.7,90.3,53,91,53L91,53z"/>
			<path id="Fill-10_1_" sketch:type="MSShapeGroup" class="st0" d="M88.8,56.3v-3.5h-12c-1.5,0.1-2.2,0.9-2.7,1.4
				c-0.5,0.6-0.8,1.8-0.8,1.8v0.3H88.8"/>
		</g>
		<g id="Imported-Layers-Copy-79" transform="translate(3594.000000, 418.000000)" sketch:type="MSLayerGroup">
			<path id="Fill-1_17_" sketch:type="MSShapeGroup" class="st0" d="M61.4,52.8H33.3c-2.5,0-4.5,2-4.5,4.4v49.7c0,2.4,2,4.4,4.5,4.4
				h28.2c2.5,0,4.5-2,4.5-4.4V57.2C65.9,54.8,63.8,52.8,61.4,52.8L61.4,52.8z M51.2,108.2h-7.7c-0.7,0-1.4-0.6-1.4-1.3
				c0-0.7,0.6-1.4,1.4-1.4h7.7c0.7,0,1.4,0.6,1.4,1.4C52.5,107.6,51.9,108.2,51.2,108.2L51.2,108.2z M61.9,61v40.8H32.7V58.2h29.3
				V61L61.9,61z"/>
			<path id="Fill-2_17_" sketch:type="MSShapeGroup" class="st0" d="M57.3,81.2h-4.9v1.4h5.1c1.3-0.1,1.4-1.3,1.4-1.3
				c0-0.3,0-0.6,0-0.6c0-0.3-0.4-1.1-1.3-1.2c-0.5,0-5.1-0.3-5.1-0.3c0.1,0.5,0.3,0.6,0.5,0.7c0.3,0.3,0.8,0.4,0.8,0.4
				c0.1,0,3.6,0.3,3.6,0.3c0.1,0,0.3,0,0.3,0.3c0,0.1,0,0.2-0.1,0.2S57.3,81.2,57.3,81.2"/>
			<path id="Fill-3_16_" sketch:type="MSShapeGroup" class="st0" d="M37.5,79.1l-1.6-0.2l-2.4,3.8h1.7L37.5,79.1"/>
			<path id="Fill-4_12_" sketch:type="MSShapeGroup" class="st0" d="M47.7,78.8v-1.4h-1.4v1.4H47.7"/>
			<path id="Fill-5_5_" sketch:type="MSShapeGroup" class="st0" d="M45.9,77.4h-4.7c-0.6,0-0.9,0.3-1.1,0.6
				c-0.2,0.2-0.4,0.7-0.4,0.7v-1.3h-2.5c-0.2,0-0.4,0.1-0.5,0.3c-0.1,0.2-0.7,1.1-0.7,1.1h10L45.9,77.4"/>
			<path id="Fill-6_5_" sketch:type="MSShapeGroup" class="st0" d="M46.3,80.8c0-0.2-0.4-1.1-1.3-1.2c-0.5,0-5.1-0.4-5.1-0.4
				c0.1,0.5,0.3,0.7,0.4,0.8c0.3,0.3,0.8,0.4,0.8,0.4c0.1,0,3.5,0.3,3.5,0.3c0.1,0,0.3,0,0.3,0.3c0,0,0,0.3-0.3,0.3h-5v-2.1
				l-1.4-0.1v3.5h6.6c1.2-0.2,1.3-1.3,1.3-1.3c0-0.1,0-0.2,0-0.2L46.3,80.8L46.3,80.8"/>
			<path id="Fill-7_4_" sketch:type="MSShapeGroup" class="st0" d="M59.8,78.4v-0.3h0.2H60c0,0,0,0,0,0.1v0.1l0,0l0,0h0.1l0,0l0,0
				c0,0,0,0,0-0.1v-0.1V78c0,0,0,0-0.1,0c0,0,0,0,0.1-0.1v-0.1c0-0.1,0-0.1-0.1-0.2h-0.1h-0.3L59.8,78.4L59.8,78.4L59.8,78.4z
				 M59.9,77.8L59.9,77.8C60,77.8,60,77.9,59.9,77.8L60,78h-0.1h-0.2v-0.2H59.9L59.9,77.8z"/>
			<path id="Fill-8_4_" sketch:type="MSShapeGroup" class="st0" d="M52.3,78.8v-1.4h-1.4v1.4H52.3"/>
			<path id="Fill-9_4_" sketch:type="MSShapeGroup" class="st0" d="M46.3,80.9c0,0.1,0,0.1,0,0.2v0.2c0.2,1.2,1.3,1.3,1.3,1.3h0.1
				h3.2c0,0,1.4-0.1,1.4-1.4v-1.9l-1.4-0.1v1.6c0,0,0,0.5-0.5,0.5h-2.4c0,0-0.4,0-0.4-0.5V79l-1.4-0.1L46.3,80.9"/>
			<path id="Fill-10_2_" sketch:type="MSShapeGroup" class="st0" d="M59.8,78.6c0.2,0,0.3-0.1,0.4-0.2s0.2-0.3,0.2-0.4
				s-0.1-0.3-0.2-0.4c-0.1-0.1-0.3-0.2-0.4-0.2c-0.3,0-0.6,0.3-0.6,0.6C59.3,78.3,59.5,78.6,59.8,78.6L59.8,78.6z M59.8,77.5
				c0.1,0,0.3,0.1,0.4,0.2s0.2,0.2,0.2,0.4c0,0.1-0.1,0.3-0.2,0.4c-0.1,0.1-0.2,0.2-0.4,0.2c-0.3,0-0.5-0.2-0.6-0.5
				C59.3,77.7,59.5,77.5,59.8,77.5L59.8,77.5z"/>
			<path id="Fill-11_1_" sketch:type="MSShapeGroup" class="st0" d="M58.8,78.7v-1.4h-5.1c-0.6,0-0.9,0.3-1.1,0.6
				c-0.2,0.2-0.3,0.7-0.3,0.7v0.1L58.8,78.7"/>
		</g>
		<g id="Imported-Layers-Copy-93" transform="translate(3794.000000, 519.000000)" sketch:type="MSLayerGroup">
			<path id="Fill-1_18_" sketch:type="MSShapeGroup" class="st0" d="M61.4,52.8H33.3c-2.5,0-4.5,2-4.5,4.4v49.7c0,2.4,2,4.4,4.5,4.4
				h28.2c2.5,0,4.5-2,4.5-4.4V57.2C65.9,54.8,63.8,52.8,61.4,52.8L61.4,52.8z M51.2,108.2h-7.7c-0.7,0-1.4-0.6-1.4-1.3
				c0-0.7,0.6-1.4,1.4-1.4h7.7c0.7,0,1.4,0.6,1.4,1.4C52.5,107.6,51.9,108.2,51.2,108.2L51.2,108.2z M61.9,61v40.8H32.7V58.2h29.3
				V61L61.9,61z"/>
		</g>
		<g id="Imported-Layers-Copy-80" transform="translate(3584.000000, 530.000000)" sketch:type="MSLayerGroup">
			<path id="Fill-1_19_" sketch:type="MSShapeGroup" class="st0" d="M79.3,52.5H35.5c-1.7,0-3.1,1.5-3.1,3.3v26.5
				c0,1.8,1.4,3.3,3.1,3.3h43.8c1.7,0,3.1-1.5,3.1-3.3V55.8C82.3,54,81,52.5,79.3,52.5L79.3,52.5z M77.3,79.6c0,1.4-1.1,2.6-2.5,2.6
				H39.9c-1.4,0-2.5-1.2-2.5-2.6V58.5c0-1.5,1.1-2.6,2.5-2.6h34.9c1.4,0,2.5,1.2,2.5,2.6L77.3,79.6L77.3,79.6z"/>
			<path id="Fill-2_18_" sketch:type="MSShapeGroup" class="st0" d="M86,87.3H28.7c0,0.2-0.1,0.4-0.1,0.6v0.8c0,1.8,1.4,3.3,3.1,3.3
				h51.2c1.7,0,3.1-1.5,3.1-3.3v-0.8C86.1,87.7,86,87.5,86,87.3L86,87.3z M76.3,90.5h-2.7c-0.3,0-0.6-0.3-0.6-0.6
				c0-0.3,0.3-0.6,0.6-0.6h2.7c0.3,0,0.6,0.3,0.6,0.6S76.6,90.5,76.3,90.5L76.3,90.5z M80.9,90.5h-2.7c-0.3,0-0.6-0.3-0.6-0.6
				c0-0.3,0.3-0.6,0.6-0.6h2.7c0.3,0,0.6,0.3,0.6,0.6S81.3,90.5,80.9,90.5L80.9,90.5z"/>
			<path id="Fill-3_17_" sketch:type="MSShapeGroup" class="st0" d="M71.8,71.5h-6.6v1.9H72c1.7-0.1,1.9-1.7,1.9-1.7
				c0.1-0.4,0-0.8,0-0.8c-0.1-0.4-0.6-1.5-1.8-1.6c-0.7-0.1-6.9-0.4-6.9-0.4c0.2,0.6,0.4,0.8,0.6,1c0.4,0.4,1.1,0.5,1.1,0.5
				c0.2,0,4.8,0.4,4.8,0.4c0.2,0,0.5,0,0.5,0.4c0,0.1-0.1,0.2-0.1,0.3C72,71.4,71.9,71.5,71.8,71.5"/>
			<path id="Fill-4_13_" sketch:type="MSShapeGroup" class="st0" d="M45.3,68.6l-2.1-0.2l-3.3,5.1h2.2L45.3,68.6"/>
			<path id="Fill-5_6_" sketch:type="MSShapeGroup" class="st0" d="M58.8,68.2v-1.9h-1.9v1.9H58.8"/>
			<path id="Fill-6_6_" sketch:type="MSShapeGroup" class="st0" d="M56.5,66.3h-6.4c-0.9,0.1-1.2,0.5-1.5,0.8c-0.3,0.3-0.5,1-0.5,1
				v-1.7h-3.4c-0.3,0-0.5,0.1-0.7,0.4c-0.2,0.3-1,1.5-1,1.5l13.4-0.1L56.5,66.3"/>
			<path id="Fill-7_5_" sketch:type="MSShapeGroup" class="st0" d="M56.9,71c0-0.3-0.6-1.5-1.8-1.6c-0.7-0.1-6.9-0.5-6.9-0.5
				c0.1,0.6,0.4,0.9,0.6,1.1c0.4,0.4,1.1,0.5,1.1,0.5c0.2,0,4.8,0.4,4.8,0.4c0.1,0,0.4,0,0.4,0.4c0,0,0,0.4-0.4,0.4H48v-2.8
				l-1.9-0.1v4.8H55c1.6-0.3,1.7-1.7,1.7-1.7c0-0.1,0-0.2,0-0.3L56.9,71L56.9,71"/>
			<path id="Fill-8_5_" sketch:type="MSShapeGroup" class="st0" d="M75,67.6v-0.4h0.3h0.1l0.1,0.1v0.1v0.1l0,0h0.1l0,0
				c0,0,0,0,0-0.1c0,0,0,0,0-0.1v-0.1c0-0.1,0-0.1,0-0.1s0,0-0.1-0.1c0,0,0.1,0,0.1-0.1v-0.1c0-0.1,0-0.2-0.1-0.2c0,0-0.1,0-0.2,0
				h-0.4L75,67.6L75,67.6L75,67.6z M75.3,66.9C75.3,66.9,75.4,66.9,75.3,66.9c0.1,0,0.2,0.1,0.2,0.1c0,0.1,0,0.1,0,0.1h-0.1h-0.3
				v-0.3L75.3,66.9L75.3,66.9z"/>
			<path id="Fill-9_5_" sketch:type="MSShapeGroup" class="st0" d="M65.1,68.2v-1.9h-1.9v1.9H65.1"/>
			<path id="Fill-10_3_" sketch:type="MSShapeGroup" class="st0" d="M56.9,71.1c0,0.1,0,0.2,0,0.3v0.3c0.3,1.6,1.8,1.7,1.8,1.7
				s0.1,0,0.2,0h4.4c0,0,1.9-0.2,1.9-1.9v-2.6l-1.9-0.1V71c0,0,0,0.6-0.6,0.6h-3.2c0,0-0.5,0-0.5-0.6v-2.5l-1.9-0.1L56.9,71.1"/>
			<path id="Fill-11_2_" sketch:type="MSShapeGroup" class="st0" d="M75.3,68c0.2,0,0.4-0.1,0.6-0.2c0.2-0.2,0.2-0.4,0.2-0.6
				s-0.1-0.4-0.2-0.6c-0.2-0.2-0.3-0.2-0.6-0.2c-0.4,0-0.8,0.4-0.8,0.8C74.4,67.6,74.8,68,75.3,68L75.3,68z M75.3,66.4
				c0.2,0,0.4,0.1,0.5,0.2s0.2,0.3,0.2,0.5s-0.1,0.4-0.2,0.5s-0.3,0.2-0.5,0.2c-0.4,0-0.7-0.3-0.7-0.7
				C74.5,66.8,74.8,66.4,75.3,66.4L75.3,66.4z"/>
			<path id="Fill-12_1_" sketch:type="MSShapeGroup" class="st0" d="M73.9,68.2v-1.9h-6.8c-0.9,0.1-1.2,0.5-1.5,0.8s-0.5,1-0.5,1
				v0.2L73.9,68.2"/>
		</g>
		<g id="Imported-Layers-Copy-81" transform="translate(3584.000000, 633.000000)" sketch:type="MSLayerGroup">
			<path id="Fill-1_20_" sketch:type="MSShapeGroup" class="st0" d="M87.3,80.6v-2.7c0-1.6-1.3-3-2.9-3H73.8V57.4c0.6-0.4,1-1.2,1-2
				c0-1.3-1-2.4-2.3-2.4s-2.3,1.1-2.3,2.4c0,0.8,0.4,1.5,1,2v17.5H31.4c-1.6,0-2.9,1.3-2.9,3v11.2c0,1.6,1.3,3,2.9,3h52.9
				c1.6,0,2.9-1.3,2.9-3v-3.4h-5v-1.2h5v-0.8h-5v-1.2h5v-0.8h-5v-1.2L87.3,80.6L87.3,80.6z M81,85c0,0.5-0.4,1-1,1H42.3
				c-0.9,1.3-2.3,2.2-4,2.2c-2.7,0-4.8-2.2-4.8-5c0-2.7,2.2-5,4.8-5c1.7,0,3.2,0.9,4,2.2h37.7c0.5,0,1,0.4,1,1L81,85L81,85z"/>
			<path id="Fill-2_19_" sketch:type="MSShapeGroup" class="st0" d="M38.3,79.7c-2,0-3.5,1.6-3.5,3.7c0,2,1.6,3.7,3.5,3.7
				c2,0,3.5-1.6,3.5-3.7C41.9,81.3,40.3,79.7,38.3,79.7"/>
			<path id="Fill-3_18_" sketch:type="MSShapeGroup" class="st0" d="M61.5,82.4h4.9v2h-4.9V82.4z"/>
			<path id="Fill-4_14_" sketch:type="MSShapeGroup" class="st0" d="M67.9,82.4h4.9v2h-4.9V82.4z"/>
			<path id="Fill-5_7_" sketch:type="MSShapeGroup" class="st0" d="M74.4,82.4h4.9v2h-4.9V82.4z"/>
		</g>
		<path id="Imported-Layers-Copy-82" sketch:type="MSShapeGroup" class="st0" d="M3659.6,783.5c-1.5,0-2.8,1.3-2.8,2.8
			c0,1,0.5,1.8,1.2,2.3v18.2h-1.9v-8.2c0-2.4-1.9-4.3-4.3-4.3h-1.8v5.1h-1v-5.1h-2v5.1h-1v-5.1h-2v5.1h-1v-5.1h-2v5.1h-1v-5.1h-2
			v5.1h-1v-5.1h-2v5.1h-1v-5.1h-2.3c-2.4,0-4.3,2-4.3,4.3v8.2h-2.5v-18.2c0.7-0.5,1.2-1.3,1.2-2.3c0-1.6-1.2-2.8-2.8-2.8
			c-1.5,0-2.8,1.3-2.8,2.8c0,1,0.5,1.8,1.2,2.3V809c0,0.7,0.6,1.2,1.2,1.2h0.4v1.2c0,1.2,1,2.2,2.2,2.2h1.9v17.3
			c0,2.4,1.9,4.3,4.3,4.3h20c2.4,0,4.3-2,4.3-4.3v-17.3h1.3c1.2,0,2.2-1,2.2-2.2v-1.2h0.4c0.7,0,1.2-0.6,1.2-1.2v-20.4
			c0.7-0.5,1.2-1.3,1.2-2.3C3662.3,784.8,3661.1,783.5,3659.6,783.5L3659.6,783.5z M3650.3,826.9c-0.9,0-1.6-0.7-1.6-1.6
			c0-0.9,0.7-1.6,1.6-1.6c0.9,0,1.6,0.7,1.6,1.6S3651.1,826.9,3650.3,826.9L3650.3,826.9z M3650.3,821.2c-0.9,0-1.6-0.7-1.6-1.6
			c0-0.9,0.7-1.6,1.6-1.6c0.9,0,1.6,0.7,1.6,1.6C3651.8,820.4,3651.1,821.2,3650.3,821.2L3650.3,821.2z M3650.3,815.6
			c-0.9,0-1.6-0.7-1.6-1.6c0-0.9,0.7-1.6,1.6-1.6c0.9,0,1.6,0.7,1.6,1.6C3651.8,814.8,3651.1,815.6,3650.3,815.6L3650.3,815.6z"/>
		<g id="Imported-Layers-Copy-83" transform="translate(3596.000000, 835.000000)" sketch:type="MSLayerGroup">
			<path id="Fill-1_21_" sketch:type="MSShapeGroup" class="st0" d="M45.9,63.2c-4.4,0-7.9,3.6-7.9,7.9c0,4.4,3.6,7.9,8,7.9
				c4.5,0,8.1-3.6,8-8C53.9,66.7,50.3,63.2,45.9,63.2L45.9,63.2z M46.2,76.7c-3.1,0-5.8-2.5-5.8-5.6c0-3.2,2.5-5.8,5.8-5.8
				c3,0,5.6,2.6,5.6,5.6C51.8,74,49.3,76.7,46.2,76.7L46.2,76.7z"/>
			<path id="Fill-2_20_" sketch:type="MSShapeGroup" class="st0" d="M49.7,70.9c0,2.1-1.5,3.7-3.6,3.7s-3.7-1.5-3.8-3.5
				c-0.1-2.1,1.5-3.8,3.7-3.8C48,67.3,49.7,68.9,49.7,70.9L49.7,70.9z M44.3,69.3c-0.8,0.7-1.1,1.6-0.7,2s1.3,0.2,2.1-0.6
				c0.8-0.7,1.1-1.6,0.7-2C46.2,68.4,45.2,68.6,44.3,69.3L44.3,69.3z"/>
			<path id="Fill-3_19_" sketch:type="MSShapeGroup" class="st0" d="M45.9,52.7c-9.5,0-17.1,7.7-17.1,17.1c0,9.5,7.6,17.1,17.1,17.1
				s17.2-7.7,17.2-17.2C63.2,60.4,55.3,52.7,45.9,52.7L45.9,52.7z M45.9,55c0.6,0,1,0.5,1,1c0,0.6-0.5,1-1,1s-1-0.5-1-1
				S45.4,55,45.9,55L45.9,55z M45.9,81.9c-6.2,0-11.2-5-11.1-11.2c0-6.1,5-11.1,11.2-11.1c6.2,0,11.2,5.1,11.2,11.3
				C57.2,76.9,52,81.9,45.9,81.9L45.9,81.9z"/>
			<path id="Fill-4_15_" sketch:type="MSShapeGroup" class="st0" d="M61.7,93c-1.6-3.2-4.5-4.7-7.7-5.7c-0.3-0.1-0.8,0.1-1.1,0.3
				c-2.3,0.9-4.5,1.4-6.8,1.4c-2.3,0-4.5-0.5-6.8-1.4c-0.4-0.1-0.8-0.4-1.1-0.3c-3.2,1-6.1,2.5-7.7,5.7c-0.7,1.4-0.2,2.4,1.3,2.4
				c0.2-0.1,0.6-0.2,1-0.3c4.4-1.6,8.9-2.3,13.3-2.3c4.5,0,8.9,0.8,13.3,2.3c0.4,0.1,0.8,0.2,1,0.3C61.8,95.4,62.3,94.4,61.7,93"/>
		</g>
		<g id="Imported-Layers-Copy-84" transform="translate(3685.000000, 326.000000)" sketch:type="MSLayerGroup">
			<path id="Fill-1_22_" sketch:type="MSShapeGroup" class="st0" d="M28.7,71.3V76c9,0,16.3,7.4,16.3,16.4h4.6
				C49.7,80.8,40.3,71.3,28.7,71.3"/>
			<path id="Fill-2_21_" sketch:type="MSShapeGroup" class="st0" d="M28.7,78.4v4.7c5.1,0,9.3,4.2,9.3,9.4h4.6
				C42.7,84.6,36.4,78.4,28.7,78.4"/>
			<path id="Fill-3_20_" sketch:type="MSShapeGroup" class="st0" d="M28.7,85.4v7h7C35.7,88.5,32.5,85.4,28.7,85.4"/>
			<path id="Fill-4_16_" sketch:type="MSShapeGroup" class="st0" d="M48.2,84.8c0.1,0.3,0.2,0.6,0.3,1
				C48.4,85.4,48.3,85.1,48.2,84.8"/>
			<path id="Fill-5_8_" sketch:type="MSShapeGroup" class="st0" d="M49.3,88.7L49.3,88.7c-0.2-1-0.4-2-0.8-3
				C48.8,86.7,49.2,87.7,49.3,88.7"/>
			<path id="Fill-6_7_" sketch:type="MSShapeGroup" class="st0" d="M35.3,72.4c-1-0.3-2-0.6-3-0.8C33.3,71.8,34.3,72.1,35.3,72.4"/>
			<path id="Fill-7_6_" sketch:type="MSShapeGroup" class="st0" d="M76.8,52.8H35.7c-1.8,0-3.3,1.5-3.3,3.3v11.5
				c1.3,0.2,2.7,0.5,4,0.9V56.8h39.8v28H52.3c0.4,1.3,0.7,2.6,0.9,4h23.5c1.8,0,3.3-1.5,3.3-3.3V56.1C80,54.3,78.5,52.8,76.8,52.8"
				/>
			<path id="Fill-8_6_" sketch:type="MSShapeGroup" class="st0" d="M36.3,72.8L36.3,72.8c-0.3-0.1-0.6-0.2-1-0.3
				C35.7,72.5,35.9,72.7,36.3,72.8"/>
		</g>
		<g id="Imported-Layers-Copy-85" transform="translate(3692.000000, 426.000000)" sketch:type="MSLayerGroup">
			<path id="Fill-1_23_" sketch:type="MSShapeGroup" class="st0" d="M52.8,76.7l1.5,3.1H40.8l1.5-3.1H52.8 M54.3,74.5H40.9
				c-1.2,2.5-2.5,5-3.7,7.5h20.7C56.8,79.5,55.4,77,54.3,74.5"/>
			<path id="Fill-2_22_" sketch:type="MSShapeGroup" class="st0" d="M66,86.9c-1.4-4.6-2.8-9.1-4.2-13.7c-0.1-0.2-0.1-0.4-0.2-0.6
				l0,0c-0.1-0.3-0.3-0.5-0.4-0.7c-0.2-0.4-0.3-1,0-2.1c0.6-1.8,3.3-10.2,5-15.6c0.2-0.7-0.3-1.3-1.2-1.3H30.2
				c-0.9,0-1.4,0.6-1.2,1.3c1.7,5.5,4.9,14.8,5.2,15.9c0.2,0.8,0.1,1.3-0.2,1.8c-0.1,0.2-0.2,0.3-0.3,0.5c0,0,0,0,0,0.1l0,0
				c-0.1,0.2-0.2,0.5-0.3,0.7c-1.4,4.6-2.8,9.1-4.2,13.7c0,0.1-0.4,1-0.4,1.5v3.8c0,1.6,1.1,3,2.8,3h31.9c1.8,0,3-1.4,3-3.1v-3.2
				C66.4,88.3,66,86.9,66,86.9L66,86.9z M58,91.3c-0.5,0-1-0.4-1-1c0-0.5,0.4-1,1-1s1,0.4,1,1S58.7,91.3,58,91.3L58,91.3z
				 M60.8,91.3c-0.5,0-1-0.4-1-1c0-0.5,0.4-1,1-1c0.5,0,1,0.4,1,1S61.3,91.3,60.8,91.3L60.8,91.3z M63.5,85.5
				c-0.1,0.1-0.4,0.2-0.8,0.2H32.4c-0.4,0-0.7-0.1-0.8-0.2c-0.1-0.1-0.1-0.2,0-0.3l4-11.7c0.1-0.4,0.4-0.6,0.7-0.8h22.7
				c0.2,0.2,0.4,0.5,0.5,0.8l4,11.7C63.5,85.3,63.5,85.4,63.5,85.5L63.5,85.5z"/>
		</g>
		<g id="Imported-Layers-Copy-86" transform="translate(3687.000000, 529.000000)" sketch:type="MSLayerGroup">
			<path id="Fill-1_24_" sketch:type="MSShapeGroup" class="st0" d="M66.9,55.7c0-1.7-1.4-3-3-3H41c-1.7,0-3,1.3-3,3v9h28.9V55.7
				L66.9,55.7z"/>
			<path id="Fill-2_23_" sketch:type="MSShapeGroup" class="st0" d="M71.3,66.7H33.7c-2.8,0-4.9,2.1-4.9,4.8V86
				c0,2.7,2.1,4.8,4.9,4.8h1.6V78h34.4v12.9h1.6c2.8,0,4.9-2.1,4.9-4.8V71.5C76.3,68.8,74,66.7,71.3,66.7L71.3,66.7z M66.3,74.8
				c-1,0-1.6-0.6-1.6-1.6s0.7-1.6,1.6-1.6c1,0,1.6,0.6,1.6,1.6C68,74.1,67.3,74.8,66.3,74.8L66.3,74.8z"/>
			<path id="Fill-3_21_" sketch:type="MSShapeGroup" class="st0" d="M38,92.2c0,1.6,1.4,3,3,3h22.8c1.7,0,3-1.4,3-3v-12H38V92.2
				L38,92.2z M41,84.7h22.8v1.5H41V84.7z M41,89.2h22.8v1.5H41V89.2z"/>
		</g>
		<g id="Imported-Layers-Copy-87" transform="translate(3689.000000, 631.000000)" sketch:type="MSLayerGroup">
			<path id="Fill-1_25_" sketch:type="MSShapeGroup" class="st0" d="M69.6,52.6H30.5c-1,0-1.9,0.8-1.9,1.9V63c0,1,0.8,1.9,1.9,1.9
				h39.1c1,0,1.9-0.8,1.9-1.9v-8.5C71.4,53.5,70.6,52.6,69.6,52.6L69.6,52.6z M35,61.8c-1.7,0-3.1-1.4-3.1-3.1
				c0-1.7,1.4-3.1,3.1-3.1c1.7,0,3.1,1.4,3.1,3.1C38.3,60.4,36.8,61.8,35,61.8L35,61.8z M57,60.2c-0.9,0-1.6-0.7-1.6-1.6
				S56.2,57,57,57c0.9,0,1.6,0.7,1.6,1.6S57.9,60.2,57,60.2L57,60.2z M61.8,60.2c-0.9,0-1.6-0.7-1.6-1.6S61,57,61.8,57
				c0.9,0,1.6,0.7,1.6,1.6S62.7,60.2,61.8,60.2L61.8,60.2z M66.5,60.2c-0.9,0-1.6-0.7-1.6-1.6s0.7-1.6,1.6-1.6s1.6,0.7,1.6,1.6
				S67.3,60.2,66.5,60.2L66.5,60.2z"/>
			<path id="Fill-2_24_" sketch:type="MSShapeGroup" class="st0" d="M69.8,65.9H30.3c-0.9,0-1.7,0.8-1.7,1.7v8.8
				c0,0.9,0.8,1.7,1.7,1.7h39.4c0.9,0,1.7-0.8,1.7-1.7v-8.8C71.4,66.6,70.8,65.9,69.8,65.9L69.8,65.9z M37.2,74.4
				c-3.2,2.2-6.6-1.3-4.5-4.5c0.1-0.2,0.2-0.3,0.4-0.4c3.2-2.1,6.6,1.3,4.5,4.5C37.4,74.1,37.3,74.2,37.2,74.4L37.2,74.4z
				 M57.3,73.4c-1.1,0.2-2-0.7-1.8-1.8c0.1-0.6,0.6-1.1,1.2-1.2c1.1-0.2,2,0.7,1.8,1.8C58.5,72.8,58,73.3,57.3,73.4L57.3,73.4z
				 M62.2,73.4c-1.1,0.2-2-0.7-1.8-1.8c0.1-0.6,0.6-1.1,1.2-1.2c1.1-0.2,2,0.7,1.8,1.8C63.3,72.8,62.8,73.3,62.2,73.4L62.2,73.4z
				 M66.8,73.4c-1.1,0.2-2-0.7-1.8-1.8c0.1-0.6,0.6-1.1,1.2-1.2c1.1-0.2,2,0.7,1.8,1.8C67.9,72.8,67.4,73.3,66.8,73.4L66.8,73.4z"/>
			<path id="Fill-3_22_" sketch:type="MSShapeGroup" class="st0" d="M69.6,79.1H30.5c-1,0-1.9,0.8-1.9,1.9v8.5c0,1,0.8,1.9,1.9,1.9
				h39.1c1,0,1.9-0.8,1.9-1.9V81C71.4,80,70.6,79.1,69.6,79.1L69.6,79.1z M35,88.3c-1.7,0-3.1-1.4-3.1-3.1s1.4-3.1,3.1-3.1
				c1.7,0,3.1,1.4,3.1,3.1C38.3,86.9,36.8,88.3,35,88.3L35,88.3z M57,86.7c-0.9,0-1.6-0.7-1.6-1.6s0.7-1.6,1.6-1.6
				c0.9,0,1.6,0.7,1.6,1.6S57.9,86.7,57,86.7L57,86.7z M61.8,86.7c-0.9,0-1.6-0.7-1.6-1.6s0.7-1.6,1.6-1.6c0.9,0,1.6,0.7,1.6,1.6
				C63.3,86,62.7,86.7,61.8,86.7L61.8,86.7z M66.5,86.7c-0.9,0-1.6-0.7-1.6-1.6s0.7-1.6,1.6-1.6s1.6,0.7,1.6,1.6
				C68,86,67.3,86.7,66.5,86.7L66.5,86.7z"/>
			<path id="Fill-4_17_" sketch:type="MSShapeGroup" class="st0" d="M49,60.2h2.1v35.2H49V60.2z"/>
			<path id="Fill-5_9_" sketch:type="MSShapeGroup" class="st0" d="M63.8,97.9H36.3c-0.4,0-0.7-0.3-0.7-0.7c0-0.4,0.3-0.7,0.7-0.7
				h27.3c0.4,0,0.7,0.3,0.7,0.7C64.4,97.6,64.2,97.9,63.8,97.9"/>
			<path id="Fill-6_8_" sketch:type="MSShapeGroup" class="st0" d="M54,99.5h-8c-0.6,0-1.1-0.5-1.1-1.1V96c0-0.6,0.5-1.1,1.1-1.1h8
				c0.6,0,1.1,0.5,1.1,1.1v2.4C55.2,99,54.7,99.5,54,99.5"/>
		</g>
		<g id="Imported-Layers-Copy-88" transform="translate(3696.000000, 731.000000)" sketch:type="MSLayerGroup">
			<path id="Fill-1_26_" sketch:type="MSShapeGroup" class="st0" d="M49.5,89.8h-15c-1.3,0-2.4-1.1-2.4-2.4V70.1
				c0-1.3,1.1-2.4,2.4-2.4h15c1.3,0,2.4,1.1,2.4,2.4v17.4C51.9,88.7,50.8,89.8,49.5,89.8"/>
			<path id="Fill-2_25_" sketch:type="MSShapeGroup" class="st0" d="M57,73.6v-1.3c0-0.8-0.6-1.5-1.4-1.7v4.6
				C56.4,75.1,57,74.4,57,73.6"/>
			<path id="Fill-3_23_" sketch:type="MSShapeGroup" class="st0" d="M56.8,86.7v-7.5c0-0.6-0.5-1.1-1.1-1.2v9.9
				C56.3,87.8,56.8,87.3,56.8,86.7"/>
			<path id="Fill-4_18_" sketch:type="MSShapeGroup" class="st0" d="M55.2,70.6v-4.5c0-1.1-0.9-2-2-2h-1.2c-0.1,0-0.1,0-0.2,0.1
				c-0.3,0.2-0.7,0.4-1.2,0.4h-0.1H33.5h-0.1c-0.4,0-0.8-0.1-1.1-0.3c-0.1-0.1-0.2-0.1-0.2-0.1h-1.2c-1.1,0-2,0.9-2,2v25.9
				c0,1.1,0.9,2,2,2h0.8c0.1,0,0.2,0,0.2-0.1c0.3-0.5,0.9-0.7,1.5-0.7h17.1c0.7,0,1.2,0.3,1.5,0.7c0,0.1,0.1,0.1,0.2,0.1H53
				c1.1,0,2-0.9,2-2L55.2,70.6L55.2,70.6z M50.8,91.5H33.3c-1.4,0-2.6-1.2-2.6-2.6v-20c0-1.4,1.2-2.6,2.6-2.6h17.5
				c1.5,0,2.6,1.2,2.6,2.6v20C53.4,90.3,52.3,91.5,50.8,91.5L50.8,91.5z"/>
			<path id="Fill-5_10_" sketch:type="MSShapeGroup" class="st0" d="M50,54.9c-0.2-1.2-1.1-2.1-2-2.1H36c-0.9,0-1.8,0.9-2,2.1
				c-0.3,2.2-0.7,4.5-1,6.7c-0.1,0.9,0.5,1.6,1.4,1.6h15.1c0.9,0,1.5-0.8,1.4-1.6C50.7,59.4,50.3,57.2,50,54.9"/>
			<path id="Fill-6_9_" sketch:type="MSShapeGroup" class="st0" d="M34,102.3c0.2,1.2,1.1,2.1,2,2.1h12c0.9,0,1.8-0.9,2-2.1
				c0.3-2.1,0.6-4.2,1-6.4c0.1-0.8-0.5-1.5-1.3-1.5H34.4c-0.8,0-1.4,0.7-1.3,1.5C33.4,98,33.8,100.2,34,102.3"/>
		</g>
		<g id="Imported-Layers-Copy-89" transform="translate(3684.000000, 833.000000)" sketch:type="MSLayerGroup">
			<path id="Fill-1_27_" sketch:type="MSShapeGroup" class="st0" d="M77.8,53.2H31.9c-1.8,0-3.3,1.5-3.3,3.3v32.6
				c0,1.8,1.5,3.3,3.3,3.3h20.7v1.8h-9.1c-1.2,0-2.2,1-2.2,2.2s1,2.2,2.2,2.2H66c1.2,0,2.2-1,2.2-2.2s-1-2.2-2.2-2.2h-9.1v-1.8h20.7
				c1.8,0,3.3-1.5,3.3-3.3V56.5C81,54.7,79.6,53.2,77.8,53.2L77.8,53.2z M55,89.3c-0.8,0-1.4-0.6-1.4-1.4s0.6-1.4,1.4-1.4
				s1.4,0.6,1.4,1.4S55.8,89.3,55,89.3L55,89.3z M34.3,57.6h40.8v26.1H34.3V57.6z"/>
			<path id="Fill-2_26_" sketch:type="MSShapeGroup" class="st0" d="M37.8,73.4c0.8,1,3,1.1,3,0.1c0-0.6-0.8-0.8-1.6-0.9
				c-1.3-0.2-2.7-0.7-2.7-2.3c0.1-1.4,1.6-2.1,3.1-2.1c1.1,0,2.1,0.4,2.8,1.3L41,70.3c-0.4-0.5-0.9-0.7-1.4-0.7
				c-0.7,0-1.3,0.2-1.3,0.7l0,0c0,0.6,0.7,0.7,1.5,0.8c1.5,0.2,2.9,0.7,2.8,2.4c-0.1,1.4-1.7,2.1-3.2,2.1c-1.1,0-2.2-0.5-2.9-1.4
				L37.8,73.4"/>
			<path id="Fill-3_24_" sketch:type="MSShapeGroup" class="st0" d="M48.3,74.6h-1.1l-1-2.3l-0.3-1h-0.1l0.2,1.4v2.9h-1.5v-7.3H46
				l1.8,4.2l1.8-4.2h1.6v7.3h-1.7v-2.9l0.2-1.4h-0.2l-0.3,1L48.3,74.6"/>
			<path id="Fill-4_19_" sketch:type="MSShapeGroup" class="st0" d="M59,75.6h-1.6l-0.6-1.7h-2.2l-0.6,1.7h-1.6l2.5-7.3h1.4L59,75.6
				L59,75.6z M55,72.5h1.4l-0.5-1.6l-0.2-1h-0.1l-0.2,1L55,72.5L55,72.5z"/>
			<path id="Fill-5_11_" sketch:type="MSShapeGroup" class="st0" d="M62.4,72.9h-0.5v2.7h-1.5v-7.3h2.9c1.5,0,2.6,0.7,2.6,2.3
				c0,1.3-0.6,2-1.7,2.2l2.2,2.8h-1.9L62.4,72.9L62.4,72.9z M63.3,71.5c0.7,0,1.1-0.3,1.1-0.9s-0.5-0.8-1.1-0.8h-1.3v1.7L63.3,71.5
				L63.3,71.5z"/>
			<path id="Fill-6_10_" sketch:type="MSShapeGroup" class="st0" d="M70.6,69.8v5.7h-1.5v-5.7H67v-1.5h5.7v1.5H70.6"/>
		</g>
		<g id="Imported-Layers-Copy-90" transform="translate(3784.000000, 326.000000)" sketch:type="MSLayerGroup">
			<path id="Fill-1_28_" sketch:type="MSShapeGroup" class="st0" d="M79.3,52.8H35.5c-1.7,0-3.1,1.5-3.1,3.3v26.5
				c0,1.8,1.4,3.3,3.1,3.3h43.7c1.7,0,3.1-1.5,3.1-3.3V56.1C82.3,54.3,80.9,52.8,79.3,52.8L79.3,52.8z M77.3,80
				c0,1.5-1.1,2.6-2.5,2.6H40c-1.4,0-2.5-1.2-2.5-2.6V58.8c0-1.5,1.1-2.6,2.5-2.6h34.8c1.4,0,2.5,1.2,2.5,2.6L77.3,80L77.3,80z"/>
			<path id="Fill-2_27_" sketch:type="MSShapeGroup" class="st0" d="M86,87.7H28.7c0,0.2-0.1,0.4-0.1,0.6v0.8c0,1.8,1.4,3.3,3.1,3.3
				h51.1c1.7,0,3.1-1.5,3.1-3.3v-0.8C86,88,86,87.8,86,87.7L86,87.7z M76.3,90.9h-2.7c-0.3,0-0.6-0.3-0.6-0.6c0-0.3,0.3-0.6,0.6-0.6
				h2.7c0.3,0,0.6,0.3,0.6,0.6S76.6,90.9,76.3,90.9L76.3,90.9z M80.8,90.8h-2.7c-0.3,0-0.6-0.3-0.6-0.6c0-0.3,0.3-0.6,0.6-0.6h2.7
				c0.3,0,0.6,0.3,0.6,0.6S81.3,90.8,80.8,90.8L80.8,90.8z"/>
		</g>
		<g id="Imported-Layers-Copy-91" transform="translate(3784.000000, 426.000000)" sketch:type="MSLayerGroup">
			<path id="Fill-1_29_" sketch:type="MSShapeGroup" class="st0" d="M70.8,77.4c0.1,0.2,0.1,0.3,0.1,0.5
				C70.9,77.7,70.8,77.5,70.8,77.4z M83,53H71.8c-1.7,0-3.1,1.4-3.1,3v11.6c0.3,0.4,0.7,0.7,1,1.2c2.6,3.6,4.3,10.2,5,12.8
				c0.4,1.8,1.2,5.4,1.3,8.2h7.1c1.7,0,3.1-1.4,3.1-3V56C86.1,54.4,84.8,53,83,53z M76.4,58.6c0-0.5,0.4-1,1-1c0.5,0,1,0.4,1,1v16.9
				c0,0.5-0.4,1-1,1c-0.5,0-1-0.4-1-1V58.6L76.4,58.6z M77.5,85.5c-1.3,0-2.4-1-2.4-2.3s1.1-2.3,2.4-2.3s2.4,1,2.4,2.3
				C79.9,84.4,78.8,85.5,77.5,85.5z M46,78.5c0-1.2-0.6-2.2-1.5-2.8c-0.6-0.3-1.3-0.5-2.1-0.5c-0.8,0-1.5,0.2-2.1,0.5
				c-0.9,0.6-1.5,1.7-1.5,2.8c0,1.2,0.6,2.2,1.5,2.8c0.6,0.3,1.3,0.5,2.1,0.5c0.8,0,1.5-0.2,2.1-0.5C45.4,80.7,46,79.6,46,78.5z
				 M41.3,79.3l-1.6-0.8l1.5-0.9L41.3,79.3L41.3,79.3z M42.5,81l-0.9-1.5h1.8L42.5,81L42.5,81z M41.7,77.1l0.9-1.5l0.9,1.5H41.7
				L41.7,77.1z M72.9,85.6c-0.1-0.5-0.2-1-0.3-1.5c-0.2-0.8-0.4-1.6-0.6-2.4c-0.1-0.3-0.1-0.5-0.2-0.8c-0.3-1-0.6-2.1-0.9-3
				c0-0.2-0.1-0.3-0.1-0.5c-0.7-2.1-1.5-4-2.4-5.5c-0.1-0.2-0.3-0.4-0.4-0.6c0-0.1-0.1-0.1-0.1-0.2c-0.1-0.2-0.2-0.3-0.4-0.5
				l-0.1-0.1c-0.1-0.1-0.2-0.2-0.2-0.3c0-0.1-0.1-0.1-0.1-0.1C67.1,70,67,69.9,67,69.9c-0.1,0-0.1-0.1-0.2-0.1
				c-0.1-0.2-0.2-0.3-0.3-0.3s-0.1-0.1-0.2-0.1c-0.1-0.1-0.1-0.1-0.2-0.2c-0.1,0-0.1-0.1-0.2-0.1c-0.1-0.1-0.2-0.1-0.2-0.2
				c-0.1,0-0.1-0.1-0.2-0.1c-0.1-0.1-0.2-0.1-0.3-0.1l-0.1-0.1c-0.1-0.1-0.2-0.1-0.3-0.2c0,0,0,0-0.1,0c-0.1-0.1-0.3-0.1-0.4-0.2
				h-0.1c-0.1,0-0.2-0.1-0.3-0.1h-0.1c-0.1,0-0.2,0-0.2-0.1c-0.1,0-0.1,0-0.2,0s-0.2,0-0.2-0.1c-0.1,0-0.1,0-0.2,0s-0.1,0-0.2,0
				c-0.1,0-0.1,0-0.2,0s-0.1,0-0.2,0c-0.1,0-0.1,0-0.2,0s-0.2,0-0.2,0h-0.1c-0.1,0-0.2,0-0.3,0h-0.1c-0.2,0-0.3,0-0.5,0h-0.1
				c-0.2,0-0.3,0-0.5,0h-0.1c-0.2,0-0.3,0-0.4,0.1c0,0,0,0-0.1,0s-0.3,0-0.4,0.1l0,0c-0.1,0-0.3,0.1-0.4,0.1c0,0,0,0-0.1,0
				s-0.2,0.1-0.3,0.1c0,0,0,0-0.1,0s-0.2,0.1-0.3,0.1s-0.2,0-0.3,0.1c-0.4,0.1-0.7,0.2-1.2,0.4c-0.7,0.3-1.4,0.6-2.3,0.9
				c-0.6,0.2-1.3,0.4-2,0.5c-0.4,0.1-0.8,0.1-1.2,0.2c-0.4,0-0.8-0.1-1.2-0.2c-0.8-0.1-1.4-0.3-2-0.5c-0.9-0.3-1.7-0.6-2.3-0.9
				c-0.4-0.2-0.8-0.3-1.2-0.4c-0.1,0-0.2,0-0.3-0.1c-0.1,0-0.2,0-0.3-0.1c0,0,0,0-0.1,0s-0.2-0.1-0.3-0.1c0,0,0,0-0.1,0
				s-0.3-0.1-0.4-0.1l0,0c-0.1,0-0.3-0.1-0.4-0.1c0,0,0,0-0.1,0s-0.3,0-0.4-0.1H42c-0.2,0-0.3,0-0.5,0h-0.1c-0.2,0-0.3,0-0.5,0h-0.1
				c-0.1,0-0.2,0-0.2,0h-0.1c-0.1,0-0.1,0-0.2,0s-0.1,0-0.2,0c-0.1,0-0.1,0-0.2,0s-0.1,0-0.2,0c-0.1,0-0.1,0-0.2,0s-0.1,0-0.2,0
				c-0.1,0-0.1,0-0.2,0s-0.1,0-0.2,0c-0.1,0-0.2,0-0.2,0.1c-0.1,0-0.1,0-0.2,0c-0.1,0-0.2,0.1-0.3,0.1H38c-0.1,0-0.3,0.1-0.4,0.2
				h-0.1c-0.1,0-0.2,0.1-0.3,0.1l-0.1,0.1c-0.1,0-0.2,0.1-0.2,0.1c-0.1,0-0.1,0.1-0.2,0.1c-0.1,0.1-0.2,0.1-0.2,0.2
				c-0.1,0-0.1,0.1-0.2,0.1c-0.1,0.1-0.1,0.1-0.2,0.2c-0.1,0-0.1,0.1-0.2,0.1c-0.1,0.1-0.1,0.1-0.2,0.2c-0.1,0-0.1,0.1-0.2,0.1
				c-0.1,0.1-0.2,0.2-0.2,0.2c0,0.1-0.1,0.1-0.1,0.2c-0.1,0.1-0.2,0.2-0.2,0.3l-0.1,0.1c-0.1,0.1-0.2,0.3-0.4,0.5
				c0,0.1-0.1,0.1-0.1,0.2c-0.1,0.2-0.3,0.4-0.4,0.6c-0.9,1.4-1.7,3.4-2.4,5.5c-0.1,0.2-0.1,0.3-0.1,0.5c-0.3,1-0.6,2-0.9,3
				c-0.1,0.3-0.1,0.5-0.2,0.8c-0.2,0.8-0.4,1.6-0.6,2.4c-0.1,0.5-0.2,1-0.3,1.5c-0.5,3-0.7,5.4-0.4,6.2c0.2,0.4,0.4,0.8,0.5,1.1
				c0.1,0.1,0.1,0.2,0.2,0.3c0.4,0.6,0.9,1.1,1.6,1.4c0.1,0.1,0.2,0.1,0.3,0.1c0.2,0.1,0.5,0.2,0.8,0.2c0.4,0.1,0.9,0.1,1.4,0.1
				c0.2,0,0.4,0,0.6-0.1c0.4-0.1,0.8-0.3,1.3-0.5c0.7-0.4,1.5-0.9,2.3-1.5c2.6-1.9,5.4-4.6,6.6-4.9c0.7-0.2,1.9-0.3,3-0.4
				c1.4-0.1,2.9-0.1,3.4-0.2c0.5,0,2,0,3.4,0.2c1.1,0.1,2.2,0.2,3,0.4c1.2,0.3,4,3,6.6,4.9c0.8,0.6,1.6,1.1,2.3,1.5
				c0.5,0.2,0.9,0.4,1.3,0.5c0.2,0,0.4,0.1,0.6,0.1c0.5,0,1,0,1.4-0.1c0.3-0.1,0.5-0.1,0.8-0.2c0.1,0,0.2-0.1,0.3-0.1
				c0.7-0.3,1.1-0.8,1.6-1.4c0.1-0.1,0.1-0.2,0.2-0.3c0.2-0.3,0.4-0.7,0.5-1.1C73.6,91.1,73.5,88.6,72.9,85.6z M61.2,74
				c0.2-0.2,0.5-0.4,0.9-0.5c0.1,0,0.2,0,0.3,0s0.2,0,0.3,0c0.8,0.2,1.4,0.8,1.4,1.6c0,0.8-0.6,1.5-1.4,1.6c-0.1,0-0.2,0-0.3,0
				s-0.2,0-0.3,0c-0.3-0.1-0.6-0.2-0.9-0.5s-0.5-0.7-0.5-1.2S60.8,74.3,61.2,74L61.2,74z M42.4,83.8c-0.6,0-1.2-0.1-1.8-0.2
				c-0.4-0.1-0.7-0.2-1.1-0.4c-0.5-0.2-1-0.6-1.4-0.9c-1.1-1-1.8-2.3-1.8-3.8c0-0.3,0-0.7,0.1-1c0-0.1,0-0.1,0-0.2
				c0.1-0.4,0.3-0.8,0.5-1.2c0.1-0.1,0.1-0.2,0.2-0.3c0.3-0.4,0.6-0.7,0.9-1.1c0.4-0.4,0.9-0.7,1.4-0.9c0.3-0.2,0.7-0.3,1.1-0.4
				c0.6-0.2,1.2-0.2,1.8-0.2c2.1,0,3.9,0.9,5,2.4c0.2,0.3,0.4,0.6,0.6,0.9c0.1,0.2,0.1,0.3,0.2,0.5c0.2,0.5,0.3,1,0.3,1.6
				s-0.1,1.1-0.3,1.6c-0.1,0.2-0.1,0.3-0.2,0.5c-0.2,0.3-0.3,0.6-0.6,0.9C46.3,82.9,44.5,83.8,42.4,83.8L42.4,83.8z M52.8,83.8
				c0,0.2-0.1,0.3-0.2,0.5c-0.1,0.2-0.3,0.2-0.4,0.2h-4.4c-0.1,0-0.2,0-0.3-0.1c-0.2-0.1-0.3-0.2-0.4-0.4c0-0.1-0.1-0.2-0.1-0.3
				v-0.1c0-0.1,0-0.2,0.1-0.3c0.1-0.2,0.2-0.3,0.4-0.4c0.1,0,0.2-0.1,0.3-0.1h4.4c0.2,0,0.4,0.1,0.5,0.2S52.8,83.6,52.8,83.8
				L52.8,83.8L52.8,83.8z M59.8,83.8c0,0.1,0,0.2-0.1,0.3c-0.1,0.2-0.2,0.3-0.4,0.4c-0.1,0-0.2,0.1-0.3,0.1h-4.4
				c-0.2,0-0.4-0.1-0.5-0.2s-0.2-0.3-0.2-0.5v-0.1c0-0.2,0.1-0.3,0.2-0.5c0.1-0.2,0.3-0.2,0.5-0.2h4.4c0.1,0,0.2,0,0.3,0.1
				c0.2,0.1,0.3,0.2,0.4,0.4C59.8,83.6,59.8,83.6,59.8,83.8L59.8,83.8L59.8,83.8z M59,79.9c-0.9,0-1.7-0.7-1.7-1.7
				c0-0.7,0.4-1.3,1-1.5c0.1,0,0.2-0.1,0.3-0.1s0.2,0,0.3,0c0.9,0,1.7,0.7,1.7,1.7S59.9,79.9,59,79.9L59,79.9z M62.4,82.9
				c-0.1,0-0.2,0-0.3,0c-0.2,0-0.5,0-0.7-0.1c-0.6-0.3-1-0.8-1-1.5s0.4-1.3,1-1.5c0.2-0.1,0.4-0.1,0.7-0.1c0.1,0,0.2,0,0.3,0
				c0.8,0.2,1.4,0.8,1.4,1.6S63.3,82.7,62.4,82.9L62.4,82.9z M65.5,80c-0.9,0-1.7-0.7-1.7-1.7c0-0.9,0.8-1.7,1.7-1.7
				s1.7,0.7,1.7,1.7C67.3,79.2,66.4,80,65.5,80z M62.3,75.8c0.3,0,0.6-0.3,0.6-0.6c0-0.3-0.3-0.6-0.6-0.6c-0.3,0-0.6,0.3-0.6,0.6
				S62,75.8,62.3,75.8z M59,78.8c0.3,0,0.6-0.3,0.6-0.6c0-0.3-0.3-0.6-0.6-0.6c-0.3,0-0.6,0.3-0.6,0.6S58.8,78.8,59,78.8z
				 M62.2,80.8c-0.3,0-0.6,0.3-0.6,0.6c0,0.3,0.3,0.6,0.6,0.6c0.3,0,0.6-0.3,0.6-0.6C62.8,81,62.4,80.8,62.2,80.8z"/>
		</g>
		<g id="Imported-Layers-Copy-92" transform="translate(3593.000000, 934.000000)" sketch:type="MSLayerGroup">
			<path id="Fill-1_30_" sketch:type="MSShapeGroup" class="st0" d="M67.8,53.1H32.4c-1.8,0-3.4,1.5-3.4,3.4v46.6
				c0,1.9,1.5,3.4,3.4,3.4h35.3c1.8,0,3.4-1.5,3.4-3.4V56.4C71.1,54.6,69.6,53.1,67.8,53.1L67.8,53.1z M33.3,57.2h33.6v39.7H33.3
				V57.2z M52.8,103.5h-6.7c-0.5,0-1-0.4-1-1v-0.6c0-0.5,0.4-1,1-1h6.7c0.5,0,1,0.4,1,1v0.6C53.8,103.1,53.3,103.5,52.8,103.5z
				 M61.2,79.1h-5.4v1.5h5.6c1.4-0.1,1.6-1.4,1.6-1.4c0-0.3,0-0.6,0-0.6c0-0.3-0.5-1.2-1.4-1.3c-0.6-0.1-5.6-0.3-5.6-0.3
				c0.2,0.5,0.4,0.7,0.5,0.8c0.4,0.3,0.9,0.4,0.9,0.4c0.1,0,3.9,0.3,3.9,0.3c0.1,0,0.4,0,0.4,0.3c0,0.1,0,0.2-0.1,0.2
				C61.3,79,61.3,79.1,61.2,79.1z M39.4,76.7l-1.7-0.2L35,80.7h1.8L39.4,76.7z M50.7,76.4v-1.5h-1.6v1.5H50.7z M48.8,74.8h-5.2
				c-0.7,0-1,0.4-1.2,0.6c-0.2,0.3-0.4,0.8-0.4,0.8v-1.4h-2.8c-0.2,0-0.4,0.1-0.6,0.3c-0.2,0.2-0.8,1.2-0.8,1.2h10.9L48.8,74.8z
				 M49,78.6c0-0.2-0.5-1.2-1.4-1.3C47,77.2,42,76.9,42,76.9c0.1,0.5,0.3,0.8,0.5,0.9c0.4,0.3,0.9,0.4,0.9,0.4
				c0.1,0,3.9,0.3,3.9,0.3c0.1,0,0.3,0,0.3,0.3c0,0,0,0.3-0.3,0.3h-5.4v-2.3l-1.5-0.1v3.9h7.3c1.3-0.3,1.4-1.4,1.4-1.4
				c0-0.1,0-0.2,0-0.3L49,78.6L49,78.6z M63.8,75.9v-0.3h0.2h0.1c0,0,0,0,0,0.1v0.1c0,0,0,0,0,0.1l0,0h0.1l0,0l0,0c0,0,0,0,0-0.1
				v-0.1v-0.1c0,0,0,0-0.1,0c0,0,0.1,0,0.1-0.1v-0.1c0-0.1,0-0.1-0.1-0.2h-0.1h-0.3L63.8,75.9L63.8,75.9z M55.8,76.3v-1.5h-1.6v1.5
				H55.8z M49,78.7c0,0.1,0,0.2,0,0.3v0.3c0.3,1.3,1.4,1.4,1.4,1.4h0.1H54c0,0,1.5-0.1,1.5-1.6V77L54,76.9v1.8c0,0,0,0.5-0.5,0.5
				h-2.6c0,0-0.4,0-0.4-0.5v-2L49,76.5V78.7z M63.9,76.1c0.2,0,0.3-0.1,0.5-0.2c0.1-0.1,0.2-0.3,0.2-0.5s-0.1-0.3-0.2-0.5
				c-0.1-0.1-0.3-0.2-0.5-0.2c-0.4,0-0.7,0.3-0.7,0.7C63.3,75.9,63.7,76.1,63.9,76.1z M63.9,74.9c0.2,0,0.3,0.1,0.4,0.2
				c0.2,0.1,0.2,0.2,0.2,0.4s-0.1,0.3-0.2,0.4s-0.3,0.2-0.4,0.2c-0.3,0-0.6-0.3-0.6-0.6S63.7,74.9,63.9,74.9z M62.9,76.3v-1.5h-5.6
				c-0.7,0-1,0.4-1.2,0.6c-0.2,0.3-0.4,0.8-0.4,0.8v0.1H62.9z"/>
		</g>
		<g id="Imported-Layers" transform="translate(3783.000000, 747.000000)" sketch:type="MSLayerGroup">
			<path id="Fill-1_31_" sketch:type="MSShapeGroup" class="st0" d="M85.4,52.6H31.6c-1.6,0-2.9,1.3-2.9,2.9v16.6
				c0,1.6,1.3,2.9,2.9,2.9h53.8c1.6,0,2.9-1.3,2.9-2.9V55.5C88.3,53.9,87,52.6,85.4,52.6L85.4,52.6z M83.8,67.4
				c0,0.8-0.6,1.4-1.4,1.4H34.8c-0.8,0-1.4-0.6-1.4-1.4v-7.2c0-0.8,0.6-1.4,1.4-1.4h47.4c0.8,0,1.4,0.6,1.4,1.4L83.8,67.4L83.8,67.4
				z"/>
			<path id="Fill-2_28_" sketch:type="MSShapeGroup" class="st0" d="M58.5,61.3c-1.4,0-2.5,1.1-2.5,2.5c0,1.4,1.1,2.5,2.5,2.5
				s2.5-1.1,2.5-2.5C61.2,62.4,59.9,61.3,58.5,61.3L58.5,61.3z M58.5,64.8c-0.6,0-1.1-0.5-1.1-1c0-0.6,0.5-1,1.1-1s1.1,0.5,1.1,1
				C59.7,64.4,59.2,64.8,58.5,64.8L58.5,64.8z"/>
			<path id="Fill-3_25_" sketch:type="MSShapeGroup" class="st0" d="M68.5,61.3c-1.4,0-2.5,1.1-2.5,2.5c0,1.4,1.1,2.5,2.5,2.5
				s2.5-1.1,2.5-2.5C71,62.4,69.9,61.3,68.5,61.3L68.5,61.3z M68.5,64.8c-0.6,0-1.1-0.5-1.1-1c0-0.6,0.5-1,1.1-1s1.1,0.5,1.1,1
				C69.5,64.4,69,64.8,68.5,64.8L68.5,64.8z"/>
			<path id="Fill-4_20_" sketch:type="MSShapeGroup" class="st0" d="M80.9,63.8c0,1.4-1.1,2.5-2.5,2.5s-2.5-1.1-2.5-2.5
				c0-1.4,1.1-2.5,2.5-2.5S80.9,62.4,80.9,63.8L80.9,63.8z"/>
			<path id="Fill-5_12_" sketch:type="MSShapeGroup" class="st0" d="M51.2,63.8c0,1.4-1.1,2.5-2.5,2.5s-2.5-1.1-2.5-2.5
				c0-1.4,1.1-2.5,2.5-2.5C50,61.3,51.2,62.4,51.2,63.8L51.2,63.8z"/>
			<path id="Fill-6_11_" sketch:type="MSShapeGroup" class="st0" d="M41.3,63.8c0,1.4-1.1,2.5-2.5,2.5s-2.5-1.1-2.5-2.5
				c0-1.4,1.1-2.5,2.5-2.5S41.3,62.4,41.3,63.8L41.3,63.8z"/>
		</g>
		<g id="Imported-Layers_1_" transform="translate(3783.000000, 840.000000)" sketch:type="MSLayerGroup">
			<path id="Fill-1_32_" sketch:type="MSShapeGroup" class="st0" d="M32.2,73.6c1.6,2,8,3.6,8.9,3.9c-0.9-0.4-6.7-2.9-8.2-5
				c-1.6-2.1-3.9-5.3-4.1-5.6C28.9,67.3,30.5,71.5,32.2,73.6 M28.7,66.8L28.7,66.8c0.4,0.3,8.4,7.8,12.4,10.6l0,0
				C37.2,74.6,28.7,66.8,28.7,66.8"/>
			<path id="Fill-2_29_" sketch:type="MSShapeGroup" class="st0" d="M32.2,73.6c1.6,2,8,3.6,8.9,3.9c-0.9-0.4-6.7-2.9-8.2-5
				c-1.6-2.1-3.9-5.3-4.1-5.6C28.9,67.3,30.5,71.5,32.2,73.6 M28.7,66.8L28.7,66.8c0.4,0.3,8.4,7.8,12.4,10.6l0,0
				C37.2,74.6,28.7,66.8,28.7,66.8"/>
			<path id="Fill-3_26_" sketch:type="MSShapeGroup" class="st0" d="M32.2,73.6c1.6,2,8,3.6,8.9,3.9c-0.9-0.4-6.7-2.9-8.2-5
				c-1.6-2.1-3.9-5.3-4.1-5.6C28.9,67.3,30.5,71.5,32.2,73.6 M28.7,66.8L28.7,66.8c0.4,0.3,8.4,7.8,12.4,10.6l0,0
				C37.2,74.6,28.7,66.8,28.7,66.8"/>
			<path id="Fill-4_21_" sketch:type="MSShapeGroup" class="st0" d="M73.6,62.3C64.3,66.8,48.4,78,48.4,78l4-0.2l0,0
				c0.2-0.1,0.5-0.3,0.7-0.4c-0.2,0.1-0.5,0.3-0.7,0.4l0,0c0.1,0,0.1,0.1,0.2,0.1c3.3,1.6,10,4,14.8,4c0.9,0,1.8-0.1,2.5-0.3
				c4.6-1.2,9.7-10.6,10.5-12.3c0.1-0.1,0.1-0.2,0.1-0.2s0,0,0,0.1c0,0,0,0,0-0.1l0,0l0,0l0,0l0,0l0,0l0,0l5.5-5.3
				c0,0-6.2,2.4-12.5,5.4c-5.2,2.4-8.4,4-9.9,4.8c-0.2,0.1-0.3,0.1-0.3,0.1l0.3-0.1c-0.7,0.3-1,0.5-1,0.5l17.9-5.3l-3.2,1
				c0,0-3.9,9.2-9,10.2c-0.6,0.1-1.3,0.2-2.1,0.2c-5.1,0-12.1-2.7-12.1-2.7c0.8-0.6,10.2-7.6,32.5-16.7h0.1c0.6-0.2,1.3-1.3,1.6-2.3
				v-0.7C87.3,58.2,80.1,59.1,73.6,62.3L73.6,62.3z M78.9,72.2c-0.1,0.1-0.1,0.2-0.2,0.3C78.8,72.3,78.9,72.2,78.9,72.2
				C78.9,72.1,78.9,72.1,78.9,72.2C78.9,72.1,78.9,72.1,78.9,72.2L78.9,72.2z M78.8,72.5C78.8,72.5,78.8,72.6,78.8,72.5
				c-0.1,0.2-0.2,0.3-0.2,0.4l0,0C78.5,72.8,78.6,72.6,78.8,72.5L78.8,72.5L78.8,72.5z M78.8,72.3L78.8,72.3
				C78.8,72.4,78.8,72.3,78.8,72.3L78.8,72.3z M78.6,72.7C78.6,72.7,78.5,72.8,78.6,72.7C78.5,72.8,78.6,72.7,78.6,72.7L78.6,72.7z
				 M78.4,73c-0.1,0.1-0.1,0.2-0.2,0.3l0,0C78.3,73.2,78.3,73.1,78.4,73L78.4,73L78.4,73z M78.3,73.2L78.3,73.2L78.3,73.2L78.3,73.2
				z M78.1,73.4c-0.1,0.1-0.1,0.2-0.2,0.3l0.1-0.1l-0.1,0.1l0,0l0,0c0,0,0,0,0,0.1C78,73.6,78.1,73.5,78.1,73.4L78.1,73.4L78.1,73.4
				z M77.8,74L77.8,74L77.8,74L77.8,74c-0.1,0.1-0.1,0.1-0.1,0.2C77.8,74.1,77.8,74,77.8,74C77.8,74,77.8,74.1,77.8,74
				C77.8,74.1,77.8,74,77.8,74L77.8,74z M77.5,74.4c0,0.1-0.1,0.1-0.1,0.2l0,0l0,0c0,0,0,0.1-0.1,0.1C77.4,74.6,77.4,74.5,77.5,74.4
				L77.5,74.4L77.5,74.4L77.5,74.4z M77.3,74.8c0,0.1-0.1,0.1-0.1,0.2l0,0l0,0l-0.1,0.1C77,75,77.1,74.9,77.3,74.8
				c-0.1,0.1-0.1,0.1-0.1,0.2C77.1,74.9,77.3,74.8,77.3,74.8L77.3,74.8z M76.3,76.1C76.3,76,76.3,76,76.3,76.1c0,0-0.1,0.1-0.1,0.2
				l0,0C76.3,76.1,76.3,76.1,76.3,76.1L76.3,76.1z M76.6,75.6L76.6,75.6L76.6,75.6L76.6,75.6L76.6,75.6z M76.6,75.7L76.6,75.7
				C76.5,75.8,76.5,75.8,76.6,75.7L76.6,75.7L76.6,75.7z M76.9,75.2c0,0.1-0.1,0.1-0.1,0.2C76.8,75.3,76.9,75.3,76.9,75.2L76.9,75.2
				L76.9,75.2z M76.8,75.4c0,0.1-0.1,0.1-0.1,0.2l0,0C76.8,75.5,76.8,75.4,76.8,75.4C76.8,75.3,76.8,75.4,76.8,75.4L76.8,75.4z
				 M76.5,75.8c0,0.1-0.1,0.1-0.1,0.2l0,0C76.4,75.9,76.4,75.9,76.5,75.8L76.5,75.8L76.5,75.8z M76.1,76.3c0,0.1-0.1,0.1-0.1,0.2
				l0,0l0,0l-0.1,0.1c0,0,0-0.1,0.1-0.1l0,0l0,0C76,76.4,76.1,76.3,76.1,76.3C76.3,76.2,76.3,76.2,76.1,76.3L76.1,76.3z M75.9,76.6
				L75.9,76.6L75.9,76.6L75.9,76.6L75.9,76.6z M75.8,76.7c0,0.1-0.1,0.1-0.1,0.2c0,0,0,0,0,0.1l0,0c0,0.1-0.1,0.1-0.1,0.2l0,0
				c0,0,0-0.1,0.1-0.1l0,0C75.8,76.8,75.8,76.8,75.8,76.7L75.8,76.7L75.8,76.7z M75.4,77.2C75.3,77.3,75.3,77.3,75.4,77.2
				C75.3,77.3,75.3,77.3,75.4,77.2c-0.1,0.1-0.1,0.1-0.2,0.2C75.3,77.4,75.3,77.4,75.4,77.2C75.3,77.3,75.3,77.3,75.4,77.2
				C75.4,77.2,75.4,77.1,75.4,77.2L75.4,77.2L75.4,77.2z M75,77.6C75,77.7,75,77.7,75,77.6C75,77.7,75,77.7,75,77.6
				c-0.1,0.1-0.1,0.1-0.2,0.2C74.9,77.8,74.9,77.7,75,77.6c-0.1,0.1-0.1,0.1-0.1,0.2C75,77.7,75,77.7,75,77.6
				C75.1,77.6,75,77.6,75,77.6L75,77.6z M74.6,78.1L74.6,78.1C74.6,78.2,74.6,78.1,74.6,78.1C74.6,78.2,74.5,78.2,74.6,78.1
				C74.6,78.2,74.6,78.1,74.6,78.1C74.8,78,74.6,78.1,74.6,78.1L74.6,78.1L74.6,78.1z M74.3,78.5c-0.1,0.1-0.1,0.1-0.2,0.2l0,0
				C74.3,78.6,74.3,78.5,74.3,78.5C74.3,78.6,74.3,78.6,74.3,78.5C74.3,78.6,74.3,78.5,74.3,78.5L74.3,78.5L74.3,78.5L74.3,78.5z
				 M73.9,78.9c-0.1,0.1-0.1,0.1-0.2,0.2C73.8,79,73.9,78.9,73.9,78.9C73.9,78.8,73.9,78.8,73.9,78.9L73.9,78.9z M73.3,79.6
				c-0.1,0.1-0.1,0.1-0.2,0.2C73,79.7,73.1,79.6,73.3,79.6L73.3,79.6z M73,79.7C73,79.8,72.9,79.8,73,79.7L73,79.7L73,79.7L73,79.7z
				 M73.3,79.4c0.1-0.1,0.2-0.1,0.2-0.2l0,0C73.5,79.3,73.4,79.3,73.3,79.4L73.3,79.4L73.3,79.4z M73.5,79.2
				c-0.1,0.1-0.1,0.1-0.2,0.2C73.4,79.4,73.5,79.3,73.5,79.2L73.5,79.2z M72.4,80.2c-0.1,0.1-0.3,0.2-0.4,0.3
				C72.1,80.4,72.3,80.3,72.4,80.2L72.4,80.2z M72.8,79.9c-0.1,0.1-0.2,0.1-0.3,0.2C72.6,80,72.8,80,72.8,79.9L72.8,79.9z
				 M73.8,79.1L73.8,79.1c0.1-0.1,0.1-0.1,0.2-0.1C73.8,79,73.8,79,73.8,79.1L73.8,79.1z M80.4,69.6C80.4,69.5,80.4,69.5,80.4,69.6
				C80.4,69.5,80.4,69.5,80.4,69.6L80.4,69.6z M79,72.1L79,72.1C79,72,79,72,79,72.1L79,72.1z M79.3,71.7L79.3,71.7
				C79.3,71.6,79.3,71.7,79.3,71.7L79.3,71.7z M79.4,71.4C79.4,71.4,79.4,71.3,79.4,71.4C79.4,71.3,79.4,71.3,79.4,71.4L79.4,71.4z
				 M79.6,71.1C79.6,71.1,79.6,71,79.6,71.1C79.6,71,79.6,71,79.6,71.1L79.6,71.1z M79.8,70.8C79.8,70.8,79.8,70.7,79.8,70.8
				C79.8,70.7,79.8,70.7,79.8,70.8L79.8,70.8z M79.9,70.5C79.9,70.4,79.9,70.4,79.9,70.5C79.9,70.4,79.9,70.4,79.9,70.5L79.9,70.5z
				 M80,70.2C80.1,70.2,80.1,70.2,80,70.2C80.1,70.2,80.1,70.2,80,70.2L80,70.2z M80.3,70C80.3,69.9,80.3,69.9,80.3,70
				C80.3,69.9,80.3,69.9,80.3,70L80.3,70z M80.3,69.8C80.3,69.7,80.3,69.7,80.3,69.8C80.3,69.7,80.3,69.7,80.3,69.8L80.3,69.8z
				 M80.5,69.4L80.5,69.4L80.5,69.4L80.5,69.4z M79,72c0.1-0.1,0.1-0.2,0.2-0.3C79.1,71.8,79.1,71.9,79,72L79,72z M79.3,71.6
				c0-0.1,0.1-0.2,0.1-0.2S79.3,71.5,79.3,71.6L79.3,71.6z M79.5,71.2c0-0.1,0.1-0.1,0.1-0.2C79.5,71.1,79.5,71.2,79.5,71.2
				L79.5,71.2z M79.8,70.9c0-0.1,0.1-0.1,0.1-0.2C79.8,70.7,79.8,70.8,79.8,70.9L79.8,70.9z M79.8,70.6c0-0.1,0.1-0.1,0.1-0.2
				C79.9,70.4,79.9,70.5,79.8,70.6L79.8,70.6z M80,70.3c0-0.1,0.1-0.1,0.1-0.2C80.1,70.2,80,70.2,80,70.3L80,70.3z M80.1,70
				C80.1,70,80.1,69.9,80.1,70C80.3,69.9,80.3,70,80.1,70L80.1,70z M80.3,69.8C80.3,69.8,80.3,69.7,80.3,69.8
				C80.3,69.7,80.3,69.7,80.3,69.8L80.3,69.8z M80.4,69.6C80.4,69.5,80.4,69.5,80.4,69.6C80.4,69.5,80.4,69.5,80.4,69.6L80.4,69.6z
				 M80.5,69.3C80.5,69.3,80.6,69.3,80.5,69.3C80.6,69.3,80.5,69.3,80.5,69.3L80.5,69.3z M69.6,81.6c-0.3,0.1-0.7,0.1-1.1,0.2
				C68.9,81.7,69.3,81.7,69.6,81.6L69.6,81.6z M74.5,65.7c-0.5,0.3-1.1,0.5-1.6,0.8C73.5,66.2,74,66,74.5,65.7L74.5,65.7z
				 M81.8,62.7c-0.5,0.2-1,0.4-1.6,0.6C80.8,63.1,81.3,62.9,81.8,62.7L81.8,62.7z M79.9,63.4c-0.5,0.2-1.1,0.4-1.6,0.7
				C78.9,63.8,79.4,63.6,79.9,63.4L79.9,63.4z M78.3,64.1c-0.5,0.2-1.1,0.5-1.6,0.7C77.3,64.5,77.8,64.3,78.3,64.1L78.3,64.1z
				 M76.4,64.9c-0.5,0.2-1.1,0.5-1.6,0.7C75.4,65.3,75.9,65.1,76.4,64.9L76.4,64.9z M53.8,77c2.1-1.2,4.1-2.4,6.1-3.5
				C57.9,74.6,55.9,75.8,53.8,77L53.8,77z M72.8,66.6c-0.5,0.3-1.1,0.5-1.6,0.8C71.8,67.1,72.3,66.8,72.8,66.6L72.8,66.6z M71,67.4
				c-0.5,0.3-1.1,0.6-1.6,0.8C69.9,68,70.5,67.7,71,67.4L71,67.4z M69.1,68.4c-0.5,0.3-1.1,0.6-1.6,0.9C68,69,68.6,68.7,69.1,68.4
				L69.1,68.4z M67.3,69.4c-1.1,0.6-2.3,1.2-3.4,1.9C65,70.6,66.1,70,67.3,69.4L67.3,69.4z M63.7,71.4c-0.6,0.3-1.1,0.6-1.7,0.9
				C62.5,72,63,71.7,63.7,71.4L63.7,71.4z M61.8,72.5c-0.6,0.3-1.1,0.6-1.7,1C60.5,73.1,61.2,72.8,61.8,72.5L61.8,72.5z M82.1,62.6
				c1.5-0.5,3-1,4.5-1.4C85.1,61.6,83.6,62,82.1,62.6L82.1,62.6z"/>
			<path id="Fill-5_13_" sketch:type="MSShapeGroup" class="st0" d="M80.6,69.1L80.6,69.1L80.6,69.1"/>
			<path id="Fill-6_12_" sketch:type="MSShapeGroup" class="st0" d="M70,81.8c-0.8,0.2-1.6,0.3-2.5,0.3c-4.9,0-11.7-2.6-15-4.3
				l-3.2,0.1c0,0,1.2,0.7,2.2,1.1c6.7,3,15.2,4.6,18.8,4.6c0.5,0,0.9,0,1.2-0.1c5.9-2,11.9-13.7,14.5-19.5l-5,4.7
				C81,68.9,75.1,80.4,70,81.8"/>
			<path id="Fill-7_7_" sketch:type="MSShapeGroup" class="st0" d="M46.5,78.6c-0.6-1.1,0.1-2.6,4.9-6.1
				c4.3-3.2,19.8-16.1,34.6-19.6c0,0-1.4-0.2-3.8-0.2c-3.3,0-8.6,0.4-15.1,2.4c-4,1.2-9.8,6.7-20.4,17.1C45.2,73,40,70,37.1,68.6
				c0,0,5,7.8,6.7,10.2c2.7,3.6,7.6,5.8,7.6,5.8s0,0-0.1-0.1C50.8,83.9,47.5,80.6,46.5,78.6"/>
			<path id="Fill-8_7_" sketch:type="MSShapeGroup" class="st0" d="M29.9,68.1c-0.1-0.1-0.1-0.1-0.2-0.2c0.9,1.2,2.2,3,3.3,4.4
				c0.8,1,2.5,2.1,4.2,3c1,0.6,2,1,2.8,1.4C36.8,74.3,32.2,70.1,29.9,68.1"/>
			<path id="Fill-9_6_" sketch:type="MSShapeGroup" class="st0" d="M41.3,77.5c0,0-1.5-0.6-3.2-1.5C39.8,76.8,41.3,77.5,41.3,77.5"
				/>
		</g>
		<g id="Imported-Layers_2_" transform="translate(3793.000000, 934.000000)" sketch:type="MSLayerGroup">
			<path id="Fill-1_33_" sketch:type="MSShapeGroup" class="st0" d="M67,52.5H32.8c-2.4,0-4.3,1.9-4.3,4.3v47.5
				c0,2.4,1.9,4.3,4.3,4.3h34.2c2.4,0,4.3-1.9,4.3-4.3V56.8C71.3,54.4,69.4,52.5,67,52.5L67,52.5z M67.8,104.3
				c0,0.4-0.3,0.7-0.7,0.7H32.8c-0.4,0-0.7-0.3-0.7-0.7V56.8c0-0.4,0.3-0.7,0.7-0.7h34.2c0.4,0,0.7,0.3,0.7,0.7V104.3L67.8,104.3z"
				/>
			<path id="Fill-2_30_" sketch:type="MSShapeGroup" class="st0" d="M63.2,60.5H36.8c-1,0-1.8,0.8-1.8,1.8v34.5c0,1,0.8,1.8,1.8,1.8
				h26.4c1,0,1.8-0.8,1.8-1.8V62.3C64.9,61.3,64.2,60.5,63.2,60.5L63.2,60.5z M38.5,64.1h22.8V95H38.5V64.1z"/>
			<path id="Fill-3_27_" sketch:type="MSShapeGroup" class="st0" d="M41.8,69.4H58V73H41.8V69.4z"/>
			<path id="Fill-4_22_" sketch:type="MSShapeGroup" class="st0" d="M41.8,86.2H58v3.6H41.8V86.2z"/>
			<path id="Fill-5_14_" sketch:type="MSShapeGroup" class="st0" d="M41.8,77.8H58v3.6H41.8V77.8z"/>
		</g>
		<g transform="translate(3394.000000, 523.000000)" sketch:type="MSLayerGroup">
			<path id="Fill-1_34_" sketch:type="MSShapeGroup" class="st0" d="M-31.8,262.3h-35.3c-1.8,0-3.4,1.5-3.4,3.4v46.6
				c0,1.9,1.5,3.4,3.4,3.4h35.3c1.8,0,3.4-1.5,3.4-3.4v-46.6C-28.5,263.8-30,262.3-31.8,262.3L-31.8,262.3z M-66.3,266.4h33.6v39.7
				h-33.6V266.4z M-46.8,312.7h-6.7c-0.5,0-1-0.4-1-1v-0.6c0-0.5,0.4-1,1-1h6.7c0.5,0,1,0.4,1,1v0.6
				C-45.8,312.3-46.2,312.7-46.8,312.7L-46.8,312.7z"/>
			<path id="Fill-2_31_" sketch:type="MSShapeGroup" class="st0" d="M-51.1,286.1c3.7,0,7.4-0.1,11.1-0.1v-9.8
				c-3.7,0.7-7.4,1.5-11.1,2.2V286.1"/>
			<path id="Fill-3_28_" sketch:type="MSShapeGroup" class="st0" d="M-51.1,287v7.7c3.7,0.7,7.4,1.5,11.1,2.2v-9.8
				C-43.7,287-47.3,287-51.1,287"/>
			<path id="Fill-4_23_" sketch:type="MSShapeGroup" class="st0" d="M-52,286.1v-7.6c-2.3,0.5-4.6,0.9-7,1.4v6.3
				C-56.7,286.1-54.3,286.1-52,286.1"/>
			<path id="Fill-5_15_" sketch:type="MSShapeGroup" class="st0" d="M-52,287c-2.3,0-4.6,0-7-0.1v6.2c2.3,0.5,4.6,0.9,7,1.4V287"/>
		</g>
		<g transform="translate(3394.000000, 523.000000)" sketch:type="MSLayerGroup">
			<path id="Fill-1_35_" sketch:type="MSShapeGroup" class="st0" d="M362.3,463.8H327c-1.8,0-3.4,1.5-3.4,3.4v46.6
				c0,1.9,1.5,3.4,3.4,3.4h35.3c1.8,0,3.4-1.5,3.4-3.4v-46.6C365.7,465.4,364.2,463.8,362.3,463.8L362.3,463.8z M327.9,468h33.6
				v39.7h-33.6V468z M347.4,514.3h-6.7c-0.5,0-1-0.4-1-1v-0.6c0-0.5,0.4-1,1-1h6.7c0.5,0,1,0.4,1,1v0.6
				C348.4,513.8,347.9,514.3,347.4,514.3L347.4,514.3z"/>
		</g>
		<g id="Speaker">
			<path class="st0" d="M3453.6,784.5h-34c-1.6,0-3,1.3-3,3v48.9c0,1.7,1.4,3,3,3h34c1.6,0,3-1.3,3-3v-48.9
				C3456.6,785.9,3455.3,784.5,3453.6,784.5z M3419.6,836.9c-0.6,0-1.1-0.5-1.1-1.1s0.5-1.1,1.1-1.1s1.1,0.5,1.1,1.1
				C3420.6,836.4,3420.1,836.9,3419.6,836.9z M3419.6,788.7c-0.6,0-1.1-0.5-1.1-1.1s0.5-1.1,1.1-1.1s1.1,0.5,1.1,1.1
				C3420.6,788.2,3420.1,788.7,3419.6,788.7z M3437.1,834.8c-7.4,0-13.4-6-13.4-13.4s6-13.4,13.4-13.4s13.4,6,13.4,13.4
				C3450.4,828.7,3444.4,834.8,3437.1,834.8z M3441.8,806.2c-4.8,0-8.7-3.9-8.7-8.7s3.9-8.7,8.7-8.7s8.7,3.9,8.7,8.7
				C3450.4,802.4,3446.6,806.2,3441.8,806.2z M3453.8,836.9c-0.6,0-1.1-0.5-1.1-1.1s0.5-1.1,1.1-1.1s1.1,0.5,1.1,1.1
				S3454.3,836.9,3453.8,836.9z M3453.8,788.7c-0.6,0-1.1-0.5-1.1-1.1s0.5-1.1,1.1-1.1s1.1,0.5,1.1,1.1
				C3454.8,788.2,3454.3,788.7,3453.8,788.7z"/>
			<circle class="st0" cx="3437.1" cy="821.3" r="5.2"/>
			<circle class="st0" cx="3441.8" cy="797.6" r="3.3"/>
		</g>
		<g transform="translate(3287.000000, 530.000000)" sketch:type="MSLayerGroup">
			<path id="Fill-1_36_" sketch:type="MSShapeGroup" class="st0" d="M-19.6,52.7h-43.8c-1.7,0-3.1,1.5-3.1,3.3v26.5
				c0,1.8,1.4,3.3,3.1,3.3h43.8c1.7,0,3.1-1.5,3.1-3.3V56.1C-16.6,54.2-18,52.7-19.6,52.7L-19.6,52.7z M-21.7,79.8
				c0,1.4-1.1,2.6-2.5,2.6H-59c-1.4,0-2.5-1.2-2.5-2.6v-21c0-1.5,1.1-2.6,2.5-2.6h34.9c1.4,0,2.5,1.2,2.5,2.6L-21.7,79.8L-21.7,79.8
				z"/>
			<path id="Fill-2_32_" sketch:type="MSShapeGroup" class="st0" d="M-13,87.5h-57.3c0,0.2-0.1,0.4-0.1,0.6v0.8
				c0,1.8,1.4,3.3,3.1,3.3H-16c1.7,0,3.1-1.5,3.1-3.3v-0.8C-12.9,87.9-13,87.7-13,87.5L-13,87.5z M-22.6,90.7h-2.7
				c-0.3,0-0.6-0.3-0.6-0.6s0.3-0.6,0.6-0.6h2.7c0.3,0,0.6,0.3,0.6,0.6S-22.4,90.7-22.6,90.7L-22.6,90.7z M-18,90.7h-2.7
				c-0.3,0-0.6-0.3-0.6-0.6c0-0.3,0.3-0.6,0.6-0.6h2.7c0.3,0,0.6,0.3,0.6,0.6S-17.7,90.7-18,90.7L-18,90.7z"/>
			<path id="Fill-6_14_" sketch:type="MSShapeGroup" class="st0" d="M-41.6,63.7L-41.6,63.7c0.1,0,0.2,0.1,0.3,0.1
				c0.2,0.2,0.2,0.4,0.1,0.5c-0.1,0.1-0.3,0.1-0.5-0.1c-0.2-0.2-0.2-0.4-0.1-0.5C-41.7,63.7-41.7,63.7-41.6,63.7
				c-0.4,0.1-0.7,0.5-0.7,1.1s0.3,1.1,0.7,1.1s0.7-0.5,0.7-1.1S-41.2,63.7-41.6,63.7"/>
			<path id="Fill-7_8_" sketch:type="MSShapeGroup" class="st0" d="M-39.7,64.7c-0.2-0.4-0.7-0.6-0.9-0.4s-0.2,0.6,0.1,1
				s0.7,0.5,0.9,0.3C-39.4,65.5-39.4,65-39.7,64.7L-39.7,64.7z M-39.9,64.7c-0.1,0.1-0.2,0.1-0.3,0s-0.1-0.2-0.1-0.3
				c0.1-0.1,0.2-0.1,0.3,0C-39.8,64.5-39.8,64.6-39.9,64.7L-39.9,64.7z"/>
			<path id="Fill-8_8_" sketch:type="MSShapeGroup" class="st0" d="M-42.9,66.5c-0.4,0.5,2,2.7,2,2.7h0.2c0,0,2.7-2,2.2-2.5
				c-0.7-0.4-1.5-0.6-2.4-0.6C-41.6,66.1-42.3,66.2-42.9,66.5"/>
			<path id="Fill-9_7_" sketch:type="MSShapeGroup" class="st0" d="M-33.8,68.3c-1-0.7-1.1-2.8-1.1-2.8c-0.1-3.8-2.7-6.8-5.9-6.8
				s-5.9,3-6,6.8c0,0-0.1,2.1-1.1,2.8s-3.2,2.5-3.2,3.5s1.6-1,2.9-0.8c0,0.1,0,0.2,0,0.3c0,1.7,0.5,3.2,1.5,4.5
				c-1.2,0.5-1.9,1.4-1.9,2.4c0,0.3,0,0.5,0.1,0.8h6.9c0.1-0.2,0.1-0.5,0.1-0.8c0-1.5-1.6-2.8-3.6-2.8c-0.5,0-0.9,0.1-1.3,0.2
				c-0.2-0.7-0.3-1.5-0.3-2.4c0-2.6,1.1-4.8,2.8-6c-0.6-0.4-1.1-1.3-1.1-2.3c0-1.4,0.9-2.6,2-2.6s2,1.2,2,2.6c0,0.5-0.1,0.9-0.3,1.3
				c0.1,0,0.2,0,0.2,0c0.2,0,0.5,0,0.7,0.1C-40.7,66-41,65.5-41,65c0-0.1,0-0.2,0-0.2c0-1.1,1-2,2.2-2c1,0,1.8,0.6,2.1,1.4
				c-0.3-0.7-1.1-1.2-2-1.2c-0.5,0-1,0.2-1.4,0.5c0.3-0.2,0.7-0.3,1.1-0.3c1.1,0,2,0.8,2,1.8c0,0.9-0.8,1.7-1.7,1.8
				c2,1.1,3.5,3.6,3.5,6.5c0,0.8-0.1,1.6-0.3,2.4c-0.4-0.1-0.8-0.2-1.3-0.2c-2,0-3.6,1.2-3.6,2.8c0,0.3,0,0.5,0.1,0.7h6.9
				c0.1-0.2,0.1-0.5,0.1-0.8c0-1.1-0.8-2-2-2.5c0.9-1.2,1.5-2.8,1.5-4.4c0-0.1,0-0.2,0-0.3c1.3-0.2,2.9,1.8,2.9,0.8
				C-30.7,70.8-32.9,69-33.8,68.3L-33.8,68.3z M-40.9,64.5c-0.1-1.4-1-2.4-2.2-2.5c-1.2,0-2.1,1.1-2.2,2.4c0-0.1,0-0.1,0-0.2
				c0-1.4,1-2.6,2.2-2.6s2.2,1.2,2.2,2.6C-40.9,64.4-40.9,64.5-40.9,64.5L-40.9,64.5z"/>
		</g>
	</g>
</g>
</svg>
