<?xml version="1.0" encoding="UTF-8" standalone="no"?>
<svg width="72px" height="72px" viewBox="0 0 72 72" version="1.1" xmlns="http://www.w3.org/2000/svg" xmlns:xlink="http://www.w3.org/1999/xlink" xmlns:sketch="http://www.bohemiancoding.com/sketch/ns">
    <!-- Generator: Sketch 3.3.3 (12081) - http://www.bohemiancoding.com/sketch -->
    <title>ClientList/icon_Laptop Copy@fw</title>
    <desc>Created with Sketch.</desc>
    <defs></defs>
    <g id="1111" stroke="none" stroke-width="1" fill="none" fill-rule="evenodd" sketch:type="MSPage">
        <g id="Artboard-5" sketch:type="MSArtboardGroup" transform="translate(-3777.000000, -310.000000)" fill="#2F383B">
            <g id="Imported-Layers-Copy-90" sketch:type="MSLayerGroup" transform="translate(3784.000000, 326.000000)">
                <path d="M50.7157949,0.3125 L6.98478632,0.3125 C5.28692308,0.3125 3.89789744,1.8055 3.89789744,3.6305 L3.89789744,30.1765 C3.89789744,32.0015 5.28692308,33.495 6.98478632,33.495 L50.7157949,33.495 C52.4136581,33.495 53.8026838,32.0015 53.8026838,30.1765 L53.8026838,3.6305 C53.8026838,1.8055 52.4136581,0.3125 50.7157949,0.3125 L50.7157949,0.3125 Z M48.7071111,27.466 C48.7071111,28.9185 47.601641,30.1065 46.2507863,30.1065 L11.4502906,30.1065 C10.0989402,30.1065 8.99347009,28.9185 8.99347009,27.466 L8.99347009,6.341 C8.99347009,4.889 10.0989402,3.7005 11.4502906,3.7005 L46.2507863,3.7005 C47.601641,3.7005 48.7071111,4.889 48.7071111,6.341 L48.7071111,27.466 L48.7071111,27.466 Z" id="Fill-1" sketch:type="MSShapeGroup"></path>
                <path d="M57.4665983,35.156 L0.234478632,35.156 C0.205726496,35.338 0.181931624,35.5225 0.181931624,35.713 L0.181931624,36.5475 C0.181931624,38.384 1.57988034,39.8865 3.28815385,39.8865 L54.4129231,39.8865 C56.1211966,39.8865 57.5191453,38.384 57.5191453,36.5475 L57.5191453,35.713 C57.5191453,35.5225 57.4953504,35.338 57.4665983,35.156 L57.4665983,35.156 Z M47.7791111,38.356 L45.0937607,38.356 C44.7735214,38.356 44.5112821,38.0745 44.5112821,37.73 C44.5112821,37.386 44.7735214,37.104 45.0937607,37.104 L47.7791111,37.104 C48.0993504,37.104 48.3615897,37.386 48.3615897,37.73 C48.3615897,38.0745 48.0993504,38.356 47.7791111,38.356 L47.7791111,38.356 Z M52.3417778,38.3215 L49.6559316,38.3215 C49.3356923,38.3215 49.073453,38.0395 49.073453,37.6955 C49.073453,37.351 49.3356923,37.069 49.6559316,37.069 L52.3417778,37.069 C52.6620171,37.069 52.9242564,37.351 52.9242564,37.6955 C52.9242564,38.0395 52.6620171,38.3215 52.3417778,38.3215 L52.3417778,38.3215 Z" id="Fill-2" sketch:type="MSShapeGroup"></path>
            </g>
        </g>
    </g>
</svg>