<?xml version="1.0" encoding="utf-8"?>
<!-- Generator: Adobe Illustrator 19.0.0, SVG Export Plug-In . SVG Version: 6.00 Build 0)  -->
<svg version="1.1" id="圖層_1" xmlns="http://www.w3.org/2000/svg" xmlns:xlink="http://www.w3.org/1999/xlink" x="0px" y="0px"
	 viewBox="0 0 39.4 39.7" enable-background="new 0 0 39.4 39.7" xml:space="preserve">
<path id="XMLID_20_" fill="#00E0F4" d="M35.6,8.6c-0.3-0.4-0.6-0.8-0.9-1.2c-3.6-4.3-9-7-15-7c0,0,0,0,0,0s0,0,0,0c0,0,0,0-0.1,0
	c-6,0-11.3,2.8-14.9,7C4.4,7.8,4.1,8.2,3.8,8.6c-2.3,3.2-3.6,7.1-3.6,11.2c0,4.2,1.3,8.1,3.6,11.2c0.3,0.4,0.6,0.8,0.9,1.2
	c3.6,4.3,8.9,7,14.9,7c0,0,0,0,0.1,0c0,0,0,0,0,0c0,0,0,0,0,0c6,0,11.4-2.7,15-7c0.3-0.4,0.6-0.8,0.9-1.2c2.3-3.2,3.6-7.1,3.6-11.2
	C39.2,15.7,37.9,11.8,35.6,8.6L35.6,8.6z M14,2.9c-1.8,1.7-3.3,4.3-4.3,7.3C8.3,9.7,7.1,9,6,8.3C8.1,5.8,10.9,3.9,14,2.9L14,2.9z
	 M5.1,9.6c1.2,0.8,2.6,1.5,4.2,2.1c-0.7,2.4-1.1,5.2-1.1,8H1.8C1.8,15.9,3.1,12.4,5.1,9.6L5.1,9.6z M1.9,21.3h6.3
	c0.1,2.4,0.5,4.7,1,6.7c-1.6,0.6-3,1.3-4.2,2.1C3.3,27.6,2.1,24.6,1.9,21.3L1.9,21.3z M6,31.3c1.1-0.7,2.3-1.3,3.7-1.8
	c1,3,2.5,5.6,4.3,7.3C10.9,35.7,8.1,33.8,6,31.3L6,31.3z M18.9,37.7c-3.3-0.4-6.1-3.8-7.7-8.7c2.3-0.7,4.9-1.1,7.7-1.2V37.7z
	 M18.9,26.2c-2.9,0.1-5.7,0.5-8.2,1.3c-0.5-1.9-0.8-4-0.9-6.2h9.1V26.2z M18.9,19.7H9.8c0-2.7,0.4-5.2,1-7.5
	c2.5,0.8,5.2,1.2,8.2,1.3V19.7z M18.9,11.8c-2.8-0.1-5.4-0.5-7.7-1.2c1.6-4.8,4.4-8.2,7.7-8.7V11.8z M37.6,19.7h-6.5
	c0-2.9-0.4-5.6-1.1-8c1.6-0.6,3-1.3,4.3-2.1C36.4,12.4,37.6,15.9,37.6,19.7L37.6,19.7z M33.4,8.3C32.3,9,31,9.7,29.6,10.2
	c-1-3.1-2.5-5.6-4.4-7.4C28.5,3.9,31.3,5.8,33.4,8.3L33.4,8.3z M20.5,2c3.3,0.5,6,3.9,7.6,8.7c-2.3,0.7-4.9,1.1-7.6,1.2V2z
	 M20.5,13.4c2.9-0.1,5.6-0.5,8.1-1.3c0.6,2.3,0.9,4.8,1,7.5h-9V13.4z M20.5,21.3h9c-0.1,2.2-0.4,4.3-0.9,6.2
	c-2.4-0.7-5.2-1.2-8.1-1.3L20.5,21.3L20.5,21.3z M20.5,37.7v-9.8c2.8,0.1,5.3,0.5,7.6,1.2C26.5,33.8,23.7,37.2,20.5,37.7L20.5,37.7z
	 M25.3,36.9c1.8-1.7,3.3-4.3,4.4-7.4c1.4,0.5,2.7,1.1,3.8,1.9C31.3,33.9,28.5,35.8,25.3,36.9L25.3,36.9z M34.3,30.1
	c-1.2-0.8-2.7-1.5-4.3-2.1c0.6-2.1,0.9-4.3,1-6.7h6.4C37.3,24.6,36.1,27.6,34.3,30.1L34.3,30.1z M34.3,30.1"/>
</svg>
