<?xml version="1.0" encoding="utf-8"?>
<!-- Generator: Adobe Illustrator 18.1.1, SVG Export Plug-In . SVG Version: 6.00 Build 0)  -->
<!DOCTYPE svg PUBLIC "-//W3C//DTD SVG 1.1//EN" "http://www.w3.org/Graphics/SVG/1.1/DTD/svg11.dtd">
<svg version="1.1" id="Layer_1" xmlns="http://www.w3.org/2000/svg" xmlns:xlink="http://www.w3.org/1999/xlink" x="0px" y="0px"
	 viewBox="0 0 17.7 17.7" enable-background="new 0 0 17.7 17.7" xml:space="preserve">
<g>
	<g>
		<path fill="#A9A9A9" d="M9,10.7L14.7,5l-2-2L7,8.7l-1,3L9,10.7z M6,11.7"/>
		<path fill="#A9A9A9" d="M13.8,1.9l2,2l1.5-1.5c0.5-0.6,0.5-1.4,0-2c-0.6-0.5-1.4-0.5-2,0L13.8,1.9z M15.3,0.4"/>
	</g>
	<path fill="#A9A9A9" d="M1.1,3.3C0.5,3.3,0,3.8,0,4.4l0,12.2c0,0.6,0.5,1.1,1.1,1.1h12.2c0.6,0,1.1-0.5,1.1-1.1V8.7l-1.1,1.1v6.7
		H1.1V4.4h6.7l1.1-1.1H1.1L1.1,3.3z M1.1,3.3"/>
</g>
</svg>
