<?xml version="1.0" encoding="utf-8"?>
<!-- Generator: Adobe Illustrator 19.1.0, SVG Export Plug-In . SVG Version: 6.00 Build 0)  -->
<svg version="1.1" xmlns="http://www.w3.org/2000/svg" xmlns:xlink="http://www.w3.org/1999/xlink" x="0px" y="0px"
	 viewBox="-336 202.5 285.3 156.5" style="enable-background:new -336 202.5 285.3 156.5;" xml:space="preserve">
<style type="text/css">
	.st0{fill:none;stroke:#B2B2B2;stroke-width:0.85;stroke-miterlimit:10;}
	.st1{opacity:0.75;fill:none;stroke:#B2B2B2;stroke-width:0.85;stroke-miterlimit:10;enable-background:new    ;}
	.st2{fill:#B2B2B2;stroke:#B2B2B2;stroke-width:0.1;stroke-miterlimit:10;}
	.st3{fill:#B2B2B2;}
	.st4{enable-background:new    ;}
	.st5{fill:#E6E6E6;}
</style>
<g id="圖層_3_1_">
</g>
<g id="圖層_1">
	<g>
		<path class="st0" d="M-248.7,266.7h-27.7v-1c0-1,0.8-1.8,1.7-1.8h24.3c0.9,0,1.7,0.8,1.7,1.8
			C-248.7,265.7-248.7,266.7-248.7,266.7z"/>
		<polygon class="st0" points="-270.8,263.8 -254.3,263.8 -255.9,257.6 -269.2,257.6 		"/>
	</g>
	<g>
		<path class="st1" d="M-80.3,212.8h-16.8c-2.2,0-3.9,1.7-3.9,3.9v38.7c0,2.2,1.7,3.9,3.9,3.9h16.8c2.2,0,3.9-1.7,3.9-3.9v-38.7
			C-76.4,214.6-78.1,212.8-80.3,212.8z"/>
		<path class="st1" d="M-90.9,214.1h4.4c0.2,0,0.3,0.2,0.3,0.3c0,0.2-0.1,0.3-0.3,0.3h-4.4c-0.2,0-0.3-0.2-0.3-0.3
			C-91.2,214.3-91,214.1-90.9,214.1z"/>
		<rect x="-99.3" y="216.4" class="st1" width="21.2" height="37.6"/>
	</g>
	<g>
		<path class="st0" d="M-58.8,325.7l0.8-29.9c0,0-0.2-0.7-0.4-1c-0.2-0.3-0.5-0.4-0.5-0.4l-4.6-0.1l0,0h-1h-1l0,0l-4.6,0.1
			c0,0-0.4,0-0.5,0.4c-0.2,0.3-0.4,1-0.4,1l0.8,29.9l-0.9,16c0,0,0.2,1.3,0.9,1.4c0.5,0.1,3.6,0.1,5.1,0.1l0,0c0,0,0.2,0,0.6,0
			s0.6,0,0.6,0l0,0c1.8,0,4.7,0,5.2-0.1c0.7-0.1,1-1.4,1-1.4L-58.8,325.7z"/>
		<circle class="st0" cx="-64.6" cy="325.7" r="2.5"/>
		<path class="st0" d="M-72.4,323.5c-0.1-8.2-2.8-13.3-4-15.1c-0.2-0.3-0.7-0.8-1-1c-2.7-1.8-5.2-1.5-6.5-1.2
			c-0.2,0-0.6,0.4-0.8,0.6l-1.8,2.3c-0.6,0.8-1.7,1.3-2.7,1.3H-103c-1,0-2.1-0.5-2.7-1.3l-1.8-2.3c-0.2-0.3-0.7-0.6-0.8-0.6
			c-0.5-0.1-1.2-0.3-1.9-0.3c-1.3,0-2.8,0.3-4.5,1.4c-0.3,0.2-0.8,0.7-1,1c-1.1,1.8-3.8,6.8-4,15.1c-0.2,11.4,1.5,12.5,4.3,12.9
			c2.6,0.4,5.7-5.3,6.8-7.5l0.2-0.3c0.3-0.7,1.1-1.6,1.8-2c1.6-0.9,4.6-2,10.2-2.1l0,0c0.2,0,0.4,0,0.6,0l0,0
			c5.6,0.1,8.7,1.2,10.2,2.1c0.7,0.4,1.4,1.3,1.8,2l0.2,0.3c1.1,2.2,4.2,7.9,6.8,7.5C-73.9,336-72.2,334.9-72.4,323.5z"/>
		<path class="st0" d="M-107.5,319.3c0,0.2-0.2,0.3-0.3,0.3h-2v2c0,0.2-0.2,0.3-0.3,0.3h-2c-0.2,0-0.3-0.2-0.3-0.3v-2h-2
			c-0.2,0-0.3-0.2-0.3-0.3v-1.9c0-0.2,0.2-0.3,0.3-0.3h2v-2c0-0.2,0.2-0.3,0.3-0.3h1.9c0.2,0,0.3,0.2,0.3,0.3v2h2
			c0.2,0,0.3,0.2,0.3,0.3v1.9H-107.5z"/>
		<circle class="st0" cx="-81.5" cy="315.8" r="1.7"/>
		<circle class="st0" cx="-84.2" cy="318.4" r="1.7"/>
		<circle class="st0" cx="-81.5" cy="320.9" r="1.7"/>
		<circle class="st0" cx="-78.8" cy="318.4" r="1.7"/>
	</g>
	<path class="st0" d="M-303.5,266.3h-23.7c-2.2,0-4-1.9-4-4.2v-53.8c0-2.3,1.8-4.2,4-4.2h23.7c2.2,0,4,1.9,4,4.2v53.9
		C-299.5,264.5-301.3,266.3-303.5,266.3z"/>
	<path class="st0" d="M-315.4,262.2c-0.7,0-1.3-0.2-1.8-0.7c-0.5-0.4-0.8-1-0.8-1.6s0.3-1.2,0.8-1.6c1-0.9,2.7-0.9,3.6,0
		c0.5,0.4,0.8,1,0.8,1.6s-0.3,1.2-0.8,1.6C-314,262-314.7,262.2-315.4,262.2z"/>
	<g>
		<rect x="-324.8" y="226.9" class="st0" width="18.8" height="2"/>
	</g>
	<g>
		<rect x="-324.8" y="236" class="st0" width="18.8" height="2"/>
	</g>
	<g>
		<path class="st0" d="M-305,216.8h-20.7v-7.9h20.7V216.8z M-323.8,214.9h16.9v-4h-16.9V214.9z"/>
	</g>
	<path class="st0" d="M-150.6,290.9h-44c-1.4,0-2.6,1.2-2.6,2.6v59c0,1.4,1.2,2.6,2.6,2.6h44c1.4,0,2.6-1.2,2.6-2.6v-59
		C-148,292.1-149.1,290.9-150.6,290.9z M-172.6,353.8c-0.8,0-1.4-0.6-1.4-1.4c0-0.8,0.6-1.4,1.4-1.4c0.8,0,1.4,0.6,1.4,1.4
		C-171.1,353.1-171.8,353.8-172.6,353.8z M-151.3,348.3H-194v-53.6h42.7V348.3z"/>
	<path class="st0" d="M-143.3,213.3c1.3,0,2.4,0.9,2.4,2v32c0,1.1-1.1,2-2.4,2h-58.6c-1.3,0-2.4-0.9-2.4-2v-32c0-1.1,1.1-2,2.4-2
		C-201.9,213.3-143.3,213.3-143.3,213.3z M-143.6,215.5h-58.1v31.3h58.1V215.5z"/>
	<path class="st0" d="M-230.4,217.9c1.5,0,2.6,1,2.6,2.2v35.2c0,1.2-1.2,2.2-2.6,2.2h-64.3c-1.5,0-2.6-1-2.6-2.2v-35.2
		c0-1.2,1.2-2.2,2.6-2.2C-294.7,217.9-230.4,217.9-230.4,217.9z M-230.6,220.3h-63.9v34.4h63.8L-230.6,220.3L-230.6,220.3z"/>
	<g>
		<path class="st2" d="M-141.2,246.6l4.7,25.3c0,0.7-0.9,1.3-2,1.3h-68c-1.1,0-2-0.6-2-1.2l4.7-25.3h-0.8l-4.7,25.3
			c0,1.1,1.2,2,2.8,2h68c1.5,0,2.8-0.9,2.7-2.1l-4.7-25.2L-141.2,246.6L-141.2,246.6z"/>
	</g>
	<path class="st3" d="M-164.3,260.1c-0.1-0.5-0.5-0.9-1.1-0.9h-14.3c-0.5,0-1,0.4-1.1,0.9l-1.3,7.4c-0.1,0.3,0,0.6,0.2,0.9
		c0.2,0.2,0.5,0.4,0.8,0.4h17c0.3,0,0.6-0.1,0.8-0.3s0.3-0.5,0.3-0.8l0,0c0-0.1,0-0.2,0-0.2L-164.3,260.1z M-163.8,267.7
		c0,0.1,0,0.1-0.1,0.2c0,0-0.1,0.1-0.2,0.1H-181c-0.1,0-0.1,0-0.2-0.1c0-0.1-0.1-0.1-0.1-0.2l1.3-7.4c0-0.1,0.1-0.2,0.2-0.2h14.4
		c0.1,0,0.2,0.1,0.2,0.2L-163.8,267.7C-163.8,267.6-163.8,267.7-163.8,267.7L-163.8,267.7z"/>
	<path class="st0" d="M-252.5,295.1c1.3,0,2.4,0.9,2.4,2v32c0,1.1-1.1,2-2.4,2h-58.6c-1.3,0-2.4-0.9-2.4-2v-32c0-1.1,1.1-2,2.4-2
		H-252.5z M-252.8,297.3h-58.1v31.3h58.1C-252.8,328.6-252.8,297.3-252.8,297.3z"/>
	<g>
		<path class="st2" d="M-250.5,328.4l4.7,25.3c0,0.7-0.9,1.3-2,1.3h-68c-1.1,0-2-0.6-2-1.2l4.7-25.3h-0.8l-4.7,25.3
			c0,1.1,1.2,2,2.8,2h68c1.5,0,2.8-0.9,2.7-2.1l-4.7-25.2h-0.7V328.4z"/>
	</g>
	<path class="st3" d="M-273.6,341.9c-0.1-0.5-0.5-0.9-1.1-0.9H-289c-0.5,0-1,0.4-1.1,0.9l-1.3,7.4c-0.1,0.3,0,0.6,0.2,0.9
		c0.2,0.2,0.5,0.4,0.8,0.4h17c0.3,0,0.6-0.1,0.8-0.3c0.2-0.2,0.3-0.5,0.3-0.8l0,0c0-0.1,0-0.2,0-0.2L-273.6,341.9z M-273.1,349.4
		c0,0.1,0,0.1-0.1,0.2c0,0-0.1,0.1-0.2,0.1h-16.9c-0.1,0-0.1,0-0.2-0.1c0-0.1-0.1-0.1-0.1-0.2l1.3-7.4c0-0.1,0.1-0.2,0.2-0.2h14.4
		c0.1,0,0.2,0.1,0.2,0.2L-273.1,349.4L-273.1,349.4L-273.1,349.4z"/>
	<line class="st0" x1="-281.8" y1="347.2" x2="-281.8" y2="349.7"/>
	<line class="st0" x1="-290.5" y1="347.1" x2="-273.2" y2="347.1"/>
</g>
<g id="圖層_2_1_">
	<g>
		<g>
			<g class="st4">
				<path class="st5" d="M-275.2,240.4v-6.5h2.1v5h2.9v1.5H-275.2z"/>
				<path class="st5" d="M-269.3,233.7h1.9v1.3h-1.9V233.7z M-269.3,240.4v-4.7h1.9v4.7H-269.3z"/>
				<path class="st5" d="M-266.5,235.7h1.7v0.7c0.2-0.3,0.4-0.5,0.7-0.6s0.5-0.2,0.9-0.2c0.6,0,1.1,0.2,1.4,0.5
					c0.3,0.3,0.4,0.8,0.4,1.5v2.8h-1.9v-2.5c0-0.1,0-0.2,0-0.3c0-0.1-0.1-0.2-0.1-0.3s-0.1-0.1-0.2-0.2s-0.2-0.1-0.3-0.1
					c-0.3,0-0.5,0.1-0.6,0.3c-0.1,0.2-0.1,0.4-0.1,0.7v2.4h-1.9V235.7z"/>
				<path class="st5" d="M-255.3,240.4h-1.7v-0.7c-0.1,0.2-0.2,0.3-0.4,0.4s-0.2,0.2-0.4,0.3c-0.1,0.1-0.3,0.1-0.4,0.1
					c-0.2,0-0.3,0-0.5,0c-0.5,0-0.9-0.2-1.2-0.5c-0.3-0.3-0.5-0.8-0.5-1.5v-2.9h1.9v2.5c0,0.3,0.1,0.5,0.2,0.7s0.3,0.2,0.5,0.2
					c0.3,0,0.5-0.1,0.6-0.3c0.1-0.2,0.2-0.5,0.2-0.8v-2.3h1.9V240.4z"/>
				<path class="st5" d="M-252.9,237.9l-1.6-2.3h2.1l0.6,1.2l0.6-1.2h2.1l-1.6,2.2l1.6,2.5h-2.1l-0.7-1.3l-0.7,1.3h-2.1
					L-252.9,237.9z"/>
			</g>
		</g>
	</g>
	<g>
		<g>
			<path class="st5" d="M-180.5,319h1.9v1.3h-1.9V319z M-180.5,325.7v-4.7h1.9v4.7H-180.5z"/>
			<path class="st5" d="M-174.3,319c0.6,0,1.1,0.1,1.5,0.3c0.4,0.2,0.8,0.4,1.1,0.8c0.3,0.3,0.5,0.7,0.6,1.1
				c0.1,0.4,0.2,0.8,0.2,1.2c0,0.6-0.1,1-0.3,1.5c-0.2,0.4-0.4,0.8-0.7,1.1c-0.3,0.3-0.7,0.5-1.1,0.7s-0.9,0.2-1.3,0.2
				c-0.5,0-1-0.1-1.4-0.2s-0.8-0.4-1.1-0.7c-0.3-0.3-0.5-0.7-0.7-1.1c-0.2-0.4-0.2-0.9-0.2-1.5c0-0.5,0.1-1,0.2-1.4
				c0.2-0.4,0.4-0.8,0.7-1.1c0.3-0.3,0.7-0.5,1.1-0.7C-175.3,319.1-174.9,319-174.3,319z M-174.4,320.6c-0.2,0-0.4,0.1-0.6,0.2
				s-0.3,0.3-0.4,0.4s-0.2,0.4-0.2,0.6c0,0.2-0.1,0.4-0.1,0.6c0,0.2,0,0.4,0.1,0.6c0,0.2,0.1,0.4,0.2,0.6c0.1,0.2,0.2,0.3,0.4,0.4
				c0.2,0.1,0.4,0.2,0.6,0.2c0.2,0,0.4,0,0.6-0.1c0.2-0.1,0.3-0.2,0.4-0.4c0.1-0.2,0.2-0.4,0.2-0.6c0-0.2,0.1-0.5,0.1-0.7
				c0-0.2,0-0.4-0.1-0.7c0-0.2-0.1-0.4-0.2-0.6c-0.1-0.2-0.2-0.3-0.4-0.4C-173.9,320.6-174.1,320.6-174.4,320.6z"/>
			<path class="st5" d="M-166.6,321.1c0-0.1-0.1-0.2-0.1-0.3c-0.1-0.1-0.1-0.1-0.2-0.2c-0.2-0.1-0.3-0.1-0.5-0.1
				c-0.2,0-0.4,0-0.5,0.1s-0.2,0.2-0.2,0.3s0.1,0.2,0.2,0.3s0.2,0.1,0.4,0.2c0.2,0.1,0.4,0.1,0.6,0.2c0.2,0.1,0.5,0.1,0.7,0.2
				c0.2,0.1,0.5,0.1,0.7,0.2c0.2,0.1,0.4,0.2,0.6,0.4c0.2,0.1,0.3,0.3,0.4,0.5c0.1,0.2,0.2,0.5,0.2,0.8c0,0.4-0.1,0.7-0.2,1
				c-0.1,0.3-0.4,0.5-0.6,0.7c-0.3,0.2-0.6,0.3-1,0.4s-0.8,0.1-1.2,0.1c-0.4,0-0.8-0.1-1.2-0.2c-0.3-0.1-0.6-0.3-0.9-0.5
				c-0.2-0.2-0.4-0.4-0.6-0.7c-0.1-0.3-0.2-0.5-0.2-0.8h2c0,0.2,0.2,0.4,0.4,0.5c0.1,0.1,0.2,0.1,0.3,0.1c0.1,0,0.2,0,0.3,0
				c0.3,0,0.5,0,0.6-0.1c0.2-0.1,0.2-0.2,0.2-0.4c0-0.2-0.1-0.3-0.3-0.4c-0.2-0.1-0.4-0.2-0.7-0.2c-0.3-0.1-0.6-0.1-0.9-0.2
				s-0.6-0.2-0.9-0.3c-0.3-0.2-0.5-0.4-0.7-0.6c-0.2-0.3-0.3-0.6-0.3-1c0-0.3,0.1-0.6,0.2-0.9c0.1-0.3,0.3-0.5,0.6-0.6
				s0.5-0.3,0.9-0.4s0.7-0.1,1.1-0.1c0.5,0,0.8,0.1,1.2,0.2c0.3,0.1,0.6,0.3,0.8,0.4c0.2,0.2,0.4,0.4,0.5,0.7s0.2,0.5,0.2,0.8
				H-166.6z"/>
		</g>
	</g>
	<g>
		<g>
			<path class="st5" d="M-117.3,355.1h-1.4l-0.1-0.6c-0.1,0.1-0.2,0.2-0.3,0.3c-0.1,0.1-0.3,0.2-0.4,0.3c-0.2,0.1-0.3,0.1-0.5,0.2
				c-0.2,0-0.4,0.1-0.7,0.1c-0.4,0-0.8-0.1-1.2-0.2c-0.4-0.1-0.7-0.3-1-0.6c-0.3-0.3-0.5-0.6-0.7-1s-0.3-0.9-0.3-1.5
				c0-0.5,0.1-1,0.2-1.4c0.2-0.4,0.4-0.8,0.7-1.1c0.3-0.3,0.7-0.5,1.1-0.7s0.9-0.3,1.4-0.3c0.4,0,0.8,0.1,1.1,0.2
				c0.3,0.1,0.6,0.3,0.9,0.5c0.3,0.2,0.5,0.5,0.7,0.8c0.2,0.3,0.3,0.6,0.4,1h-2c-0.1-0.3-0.2-0.5-0.4-0.6c-0.2-0.1-0.4-0.2-0.7-0.2
				c-0.2,0-0.4,0-0.5,0.1c-0.2,0.1-0.3,0.2-0.4,0.4c-0.1,0.2-0.2,0.4-0.2,0.6c-0.1,0.2-0.1,0.5-0.1,0.8c0,0.2,0,0.4,0.1,0.7
				c0,0.2,0.1,0.4,0.2,0.6c0.1,0.2,0.2,0.3,0.4,0.4c0.2,0.1,0.4,0.1,0.7,0.1c0.1,0,0.2,0,0.3-0.1s0.2-0.1,0.3-0.2
				c0.1-0.1,0.2-0.1,0.3-0.2c0.1-0.1,0.1-0.2,0.2-0.3h-0.9v-1.4h2.9V355.1z"/>
			<path class="st5" d="M-112.9,355.1l-0.1-0.5c-0.3,0.2-0.5,0.4-0.8,0.5s-0.6,0.1-0.9,0.1c-0.2,0-0.4,0-0.6-0.1
				c-0.2-0.1-0.4-0.1-0.5-0.3c-0.2-0.1-0.3-0.3-0.4-0.4c-0.1-0.2-0.1-0.4-0.1-0.6c0-0.4,0.1-0.6,0.2-0.8s0.4-0.4,0.6-0.5
				c0.2-0.1,0.5-0.2,0.8-0.2s0.6-0.1,0.8-0.1s0.5-0.1,0.6-0.1c0.2-0.1,0.2-0.2,0.2-0.3c0-0.1,0-0.2-0.1-0.2c0-0.1-0.1-0.1-0.2-0.1
				c-0.1,0-0.1,0-0.2-0.1c-0.1,0-0.1,0-0.2,0c-0.1,0-0.1,0-0.2,0c-0.1,0-0.1,0-0.2,0.1c-0.1,0-0.1,0.1-0.2,0.1
				c0,0.1-0.1,0.1-0.1,0.2h-1.8c0-0.3,0-0.5,0.1-0.7c0.1-0.2,0.2-0.4,0.5-0.5s0.5-0.2,0.8-0.3s0.7-0.1,1.2-0.1c0.6,0,1,0,1.3,0.1
				c0.3,0.1,0.6,0.2,0.7,0.4s0.3,0.4,0.3,0.6c0,0.2,0.1,0.5,0.1,0.8v2.2c0,0.1,0,0.2,0,0.3c0,0.1,0.1,0.2,0.2,0.3v0.1H-112.9z
				 M-114,354.2c0.2,0,0.3,0,0.4-0.1c0.1-0.1,0.2-0.1,0.3-0.2c0.1-0.1,0.1-0.2,0.1-0.4c0-0.1,0-0.3,0-0.5c-0.2,0.1-0.3,0.1-0.5,0.2
				s-0.3,0.1-0.5,0.1s-0.3,0.1-0.3,0.2c-0.1,0.1-0.1,0.2-0.1,0.3c0,0.1,0.1,0.2,0.2,0.3C-114.3,354.2-114.1,354.2-114,354.2z"/>
			<path class="st5" d="M-110.3,350.4h1.7v0.7c0.1-0.1,0.1-0.2,0.2-0.3c0.1-0.1,0.2-0.2,0.3-0.3c0.1-0.1,0.3-0.1,0.4-0.2
				c0.2-0.1,0.3-0.1,0.5-0.1c0.4,0,0.8,0.1,1,0.2c0.2,0.2,0.4,0.4,0.5,0.6c0.2-0.3,0.4-0.5,0.7-0.6c0.3-0.1,0.6-0.2,0.9-0.2
				c0.3,0,0.6,0,0.9,0.1c0.2,0.1,0.4,0.2,0.6,0.4c0.1,0.2,0.2,0.4,0.3,0.6c0.1,0.3,0.1,0.5,0.1,0.9v2.8h-1.9v-2.4
				c0-0.3,0-0.6-0.1-0.7c-0.1-0.2-0.3-0.2-0.5-0.2c-0.1,0-0.2,0-0.3,0.1c-0.1,0.1-0.1,0.1-0.2,0.2c0,0.1-0.1,0.2-0.1,0.3
				c0,0.1,0,0.3,0,0.4v2.3h-1.9v-2.4c0-0.3,0-0.6-0.1-0.7s-0.3-0.2-0.5-0.2c-0.1,0-0.2,0-0.3,0.1c-0.1,0.1-0.2,0.1-0.2,0.2
				c0,0.1-0.1,0.2-0.1,0.3c0,0.1,0,0.3,0,0.4v2.3h-1.9V350.4z"/>
			<path class="st5" d="M-99.6,353.2c0,0.1,0,0.3,0.1,0.4c0.1,0.1,0.1,0.2,0.2,0.3c0.1,0.1,0.2,0.1,0.3,0.2s0.2,0.1,0.4,0.1
				c0.2,0,0.3,0,0.4-0.1s0.2-0.2,0.3-0.3h1.8c-0.1,0.3-0.2,0.5-0.4,0.7c-0.2,0.2-0.4,0.4-0.6,0.5s-0.5,0.2-0.8,0.3
				c-0.3,0.1-0.6,0.1-0.8,0.1c-0.4,0-0.7-0.1-1.1-0.2s-0.6-0.3-0.8-0.5c-0.2-0.2-0.4-0.5-0.6-0.8c-0.1-0.3-0.2-0.7-0.2-1.1
				c0-0.4,0.1-0.7,0.2-1c0.1-0.3,0.3-0.6,0.6-0.8c0.2-0.2,0.5-0.4,0.8-0.5s0.7-0.2,1.1-0.2c0.4,0,0.8,0.1,1.2,0.2
				c0.3,0.1,0.6,0.3,0.9,0.6c0.2,0.3,0.4,0.6,0.5,0.9c0.1,0.4,0.2,0.7,0.2,1.2H-99.6z M-97.9,352.2c0-0.1,0-0.2-0.1-0.3
				c0-0.1-0.1-0.2-0.2-0.3c-0.1-0.1-0.2-0.1-0.3-0.2c-0.1,0-0.2-0.1-0.3-0.1c-0.3,0-0.5,0.1-0.6,0.2c-0.1,0.1-0.2,0.3-0.2,0.6H-97.9
				z"/>
			<path class="st5" d="M-88,351.1c0-0.3-0.1-0.6-0.3-0.8c-0.2-0.2-0.5-0.3-0.8-0.3c-0.4,0-0.7,0.2-0.9,0.5
				c-0.2,0.3-0.3,0.8-0.3,1.4c0,0.2,0,0.4,0,0.7s0.1,0.4,0.2,0.6s0.2,0.3,0.4,0.4s0.4,0.1,0.7,0.1c0.3,0,0.6-0.1,0.8-0.3
				s0.3-0.5,0.3-0.8h2c0,0.4-0.2,0.8-0.3,1.1c-0.2,0.3-0.4,0.6-0.7,0.8c-0.3,0.2-0.6,0.4-0.9,0.5c-0.4,0.1-0.8,0.2-1.2,0.2
				c-0.5,0-1-0.1-1.4-0.2c-0.4-0.2-0.8-0.4-1.1-0.7c-0.3-0.3-0.5-0.7-0.7-1.1s-0.2-0.9-0.2-1.4c0-0.5,0.1-1,0.3-1.4
				c0.2-0.4,0.4-0.8,0.7-1.1c0.3-0.3,0.6-0.5,1-0.7c0.4-0.2,0.8-0.2,1.3-0.2c1,0,1.8,0.2,2.3,0.7s0.9,1.1,0.9,1.9H-88z"/>
			<path class="st5" d="M-85.4,352.8c0-0.4,0.1-0.8,0.2-1.1c0.1-0.3,0.3-0.6,0.5-0.8c0.2-0.2,0.5-0.4,0.8-0.5s0.7-0.2,1.1-0.2
				c0.4,0,0.8,0.1,1.1,0.2s0.6,0.3,0.9,0.5c0.2,0.2,0.4,0.5,0.5,0.8c0.1,0.3,0.2,0.6,0.2,1c0,0.4-0.1,0.8-0.2,1.1
				c-0.1,0.3-0.3,0.6-0.6,0.8s-0.5,0.4-0.9,0.5c-0.3,0.1-0.7,0.2-1.1,0.2s-0.7-0.1-1.1-0.2c-0.3-0.1-0.6-0.3-0.9-0.5
				c-0.2-0.2-0.4-0.5-0.6-0.8C-85.3,353.6-85.4,353.2-85.4,352.8z M-82.7,351.5c-0.2,0-0.3,0-0.4,0.1c-0.1,0.1-0.2,0.2-0.3,0.3
				c-0.1,0.1-0.1,0.2-0.1,0.4c0,0.1,0,0.3,0,0.4c0,0.5,0.1,0.8,0.2,1s0.3,0.3,0.6,0.3c0.3,0,0.5-0.1,0.6-0.3c0.1-0.2,0.2-0.5,0.2-1
				c0-0.3-0.1-0.6-0.2-0.9C-82.3,351.6-82.4,351.5-82.7,351.5z"/>
			<path class="st5" d="M-79.3,350.4h1.7v0.7c0.2-0.3,0.4-0.5,0.7-0.6s0.5-0.2,0.9-0.2c0.6,0,1.1,0.2,1.4,0.5
				c0.3,0.3,0.4,0.8,0.4,1.5v2.8H-76v-2.5c0-0.1,0-0.2,0-0.3c0-0.1-0.1-0.2-0.1-0.3s-0.1-0.1-0.2-0.2s-0.2-0.1-0.3-0.1
				c-0.3,0-0.5,0.1-0.6,0.3c-0.1,0.2-0.1,0.4-0.1,0.7v2.4h-1.9V350.4z"/>
			<path class="st5" d="M-71.6,353.7c0,0.2,0.1,0.3,0.2,0.4c0.1,0.1,0.3,0.1,0.5,0.1c0.1,0,0.3,0,0.4-0.1c0.1-0.1,0.2-0.2,0.2-0.3
				c0-0.1-0.1-0.2-0.2-0.3c-0.1-0.1-0.3-0.1-0.5-0.2c-0.2,0-0.4-0.1-0.7-0.1s-0.5-0.1-0.7-0.2c-0.2-0.1-0.4-0.2-0.5-0.4
				c-0.1-0.2-0.2-0.4-0.2-0.7c0-0.3,0.1-0.6,0.2-0.8c0.1-0.2,0.3-0.4,0.5-0.5c0.2-0.1,0.5-0.2,0.7-0.3c0.3,0,0.5-0.1,0.8-0.1
				c0.3,0,0.5,0,0.8,0.1s0.5,0.1,0.7,0.2c0.2,0.1,0.4,0.3,0.6,0.5c0.2,0.2,0.2,0.4,0.3,0.8h-1.7c0-0.1-0.1-0.3-0.2-0.3
				c-0.1-0.1-0.2-0.1-0.4-0.1c-0.2,0-0.3,0-0.4,0.1c-0.1,0.1-0.1,0.1-0.1,0.3c0,0.1,0.1,0.2,0.2,0.3c0.1,0.1,0.3,0.1,0.6,0.2
				s0.5,0.1,0.7,0.2c0.3,0.1,0.5,0.1,0.7,0.3c0.2,0.1,0.4,0.3,0.6,0.4c0.1,0.2,0.2,0.4,0.2,0.7c0,0.5-0.2,0.9-0.6,1.2
				s-1.1,0.5-1.9,0.5c-0.3,0-0.5,0-0.8-0.1c-0.3,0-0.5-0.1-0.7-0.3c-0.2-0.1-0.4-0.3-0.6-0.5c-0.2-0.2-0.2-0.5-0.3-0.8H-71.6z"/>
			<path class="st5" d="M-67.9,352.8c0-0.4,0.1-0.8,0.2-1.1c0.1-0.3,0.3-0.6,0.5-0.8c0.2-0.2,0.5-0.4,0.8-0.5s0.7-0.2,1.1-0.2
				c0.4,0,0.8,0.1,1.1,0.2s0.6,0.3,0.9,0.5c0.2,0.2,0.4,0.5,0.5,0.8c0.1,0.3,0.2,0.6,0.2,1c0,0.4-0.1,0.8-0.2,1.1
				c-0.1,0.3-0.3,0.6-0.6,0.8c-0.2,0.2-0.5,0.4-0.8,0.5c-0.3,0.1-0.7,0.2-1.1,0.2s-0.7-0.1-1.1-0.2c-0.3-0.1-0.6-0.3-0.9-0.5
				c-0.2-0.2-0.4-0.5-0.6-0.8C-67.8,353.6-67.9,353.2-67.9,352.8z M-65.2,351.5c-0.2,0-0.3,0-0.4,0.1c-0.1,0.1-0.2,0.2-0.3,0.3
				c-0.1,0.1-0.1,0.2-0.1,0.4c0,0.1,0,0.3,0,0.4c0,0.5,0.1,0.8,0.2,1c0.1,0.2,0.3,0.3,0.6,0.3c0.3,0,0.4-0.1,0.6-0.3
				c0.1-0.2,0.2-0.5,0.2-1c0-0.3-0.1-0.6-0.2-0.9C-64.7,351.6-64.9,351.5-65.2,351.5z"/>
			<path class="st5" d="M-61.6,355.1v-6.5h1.9v6.5H-61.6z"/>
			<path class="st5" d="M-57,353.2c0,0.1,0,0.3,0.1,0.4c0.1,0.1,0.1,0.2,0.2,0.3s0.2,0.1,0.3,0.2c0.1,0,0.2,0.1,0.4,0.1
				c0.1,0,0.3,0,0.4-0.1s0.2-0.2,0.3-0.3h1.8c-0.1,0.3-0.2,0.5-0.4,0.7c-0.2,0.2-0.4,0.4-0.6,0.5c-0.2,0.1-0.5,0.2-0.8,0.3
				c-0.3,0.1-0.6,0.1-0.8,0.1c-0.4,0-0.7-0.1-1.1-0.2s-0.6-0.3-0.9-0.5s-0.4-0.5-0.6-0.8c-0.1-0.3-0.2-0.7-0.2-1.1
				c0-0.4,0.1-0.7,0.2-1c0.1-0.3,0.3-0.6,0.6-0.8c0.2-0.2,0.5-0.4,0.8-0.5s0.7-0.2,1.1-0.2c0.4,0,0.8,0.1,1.2,0.2
				c0.3,0.1,0.6,0.3,0.9,0.6s0.4,0.6,0.5,0.9c0.1,0.4,0.2,0.7,0.2,1.2H-57z M-55.3,352.2c0-0.1,0-0.2-0.1-0.3c0-0.1-0.1-0.2-0.2-0.3
				c-0.1-0.1-0.2-0.1-0.3-0.2c-0.1,0-0.2-0.1-0.3-0.1c-0.3,0-0.5,0.1-0.6,0.2c-0.2,0.1-0.2,0.3-0.2,0.6H-55.3z"/>
		</g>
	</g>
	<g>
		<g>
			<path class="st5" d="M-107.5,271.3l2.3-6.5h2.2l2.3,6.5h-2.1l-0.3-0.9h-2.1l-0.2,0.9H-107.5z M-104.1,266.8l-0.7,2.3h1.3
				L-104.1,266.8z"/>
			<path class="st5" d="M-100.2,266.6h1.7v0.7c0.2-0.3,0.4-0.5,0.7-0.6c0.3-0.2,0.6-0.2,0.9-0.2c0.6,0,1.1,0.2,1.4,0.5
				c0.3,0.3,0.4,0.8,0.4,1.5v2.8h-1.9v-2.5c0-0.1,0-0.2,0-0.3c0-0.1-0.1-0.2-0.1-0.3c-0.1-0.1-0.1-0.1-0.2-0.2s-0.2-0.1-0.3-0.1
				c-0.3,0-0.5,0.1-0.6,0.3c-0.1,0.2-0.1,0.4-0.1,0.7v2.4h-1.9V266.6z"/>
			<path class="st5" d="M-90.7,271.3v-0.6c-0.2,0.3-0.4,0.5-0.7,0.6c-0.2,0.1-0.5,0.2-0.8,0.2c-0.4,0-0.7-0.1-0.9-0.2
				c-0.3-0.1-0.5-0.3-0.7-0.5c-0.2-0.2-0.3-0.5-0.4-0.8c-0.1-0.3-0.1-0.6-0.1-0.9c0-0.4,0.1-0.7,0.2-1.1s0.2-0.6,0.4-0.8
				s0.4-0.4,0.6-0.5c0.2-0.1,0.5-0.2,0.8-0.2c0.3,0,0.6,0,0.8,0.1s0.4,0.2,0.6,0.5v-2.2h1.9v6.5H-90.7z M-91.7,270.1
				c0.2,0,0.3,0,0.4-0.1c0.1-0.1,0.2-0.1,0.3-0.2c0.1-0.1,0.1-0.2,0.1-0.4s0-0.3,0-0.4c0-0.1,0-0.3,0-0.4c0-0.1-0.1-0.2-0.1-0.3
				c-0.1-0.1-0.1-0.2-0.2-0.3c-0.1-0.1-0.2-0.1-0.4-0.1s-0.3,0-0.4,0.1c-0.1,0.1-0.2,0.2-0.2,0.3s-0.1,0.2-0.1,0.4s0,0.3,0,0.4
				c0,0.1,0,0.3,0,0.4s0.1,0.2,0.1,0.3c0.1,0.1,0.1,0.2,0.2,0.3C-92,270-91.9,270.1-91.7,270.1z"/>
			<path class="st5" d="M-88.1,266.6h1.7v1h0c0.1-0.4,0.3-0.6,0.5-0.8c0.2-0.2,0.5-0.3,0.9-0.3c0,0,0.1,0,0.1,0s0.1,0,0.1,0v1.9
				c-0.1,0-0.1,0-0.2,0c-0.1,0-0.1,0-0.2,0c-0.4,0-0.7,0.1-0.9,0.3s-0.3,0.6-0.3,1.1v1.6h-1.9V266.6z"/>
			<path class="st5" d="M-84.5,269c0-0.4,0.1-0.8,0.2-1.1c0.1-0.3,0.3-0.6,0.5-0.8c0.2-0.2,0.5-0.4,0.8-0.5s0.7-0.2,1.1-0.2
				c0.4,0,0.8,0.1,1.1,0.2s0.6,0.3,0.9,0.5s0.4,0.5,0.5,0.8c0.1,0.3,0.2,0.6,0.2,1c0,0.4-0.1,0.8-0.2,1.1c-0.1,0.3-0.3,0.6-0.6,0.8
				c-0.2,0.2-0.5,0.4-0.8,0.5c-0.3,0.1-0.7,0.2-1.1,0.2s-0.7-0.1-1.1-0.2c-0.3-0.1-0.6-0.3-0.9-0.5c-0.2-0.2-0.4-0.5-0.6-0.8
				C-84.4,269.7-84.5,269.4-84.5,269z M-81.8,267.7c-0.2,0-0.3,0-0.4,0.1s-0.2,0.2-0.3,0.3c-0.1,0.1-0.1,0.2-0.1,0.4s0,0.3,0,0.4
				c0,0.5,0.1,0.8,0.2,1s0.3,0.3,0.6,0.3c0.3,0,0.5-0.1,0.6-0.3s0.2-0.5,0.2-1c0-0.3-0.1-0.6-0.2-0.9
				C-81.3,267.8-81.5,267.7-81.8,267.7z"/>
			<path class="st5" d="M-78.2,264.6h1.9v1.3h-1.9V264.6z M-78.2,271.3v-4.7h1.9v4.7H-78.2z"/>
			<path class="st5" d="M-71.9,271.3v-0.6c-0.2,0.3-0.4,0.5-0.7,0.6c-0.2,0.1-0.5,0.2-0.8,0.2c-0.4,0-0.7-0.1-0.9-0.2
				c-0.3-0.1-0.5-0.3-0.7-0.5c-0.2-0.2-0.3-0.5-0.4-0.8s-0.1-0.6-0.1-0.9c0-0.4,0.1-0.7,0.2-1.1c0.1-0.3,0.2-0.6,0.4-0.8
				s0.4-0.4,0.6-0.5c0.2-0.1,0.5-0.2,0.8-0.2c0.3,0,0.6,0,0.8,0.1c0.2,0.1,0.4,0.2,0.6,0.5v-2.2h1.9v6.5H-71.9z M-72.9,270.1
				c0.2,0,0.3,0,0.4-0.1c0.1-0.1,0.2-0.1,0.3-0.2c0.1-0.1,0.1-0.2,0.1-0.4c0-0.1,0-0.3,0-0.4c0-0.1,0-0.3,0-0.4
				c0-0.1-0.1-0.2-0.1-0.3c-0.1-0.1-0.1-0.2-0.2-0.3c-0.1-0.1-0.2-0.1-0.4-0.1s-0.3,0-0.4,0.1c-0.1,0.1-0.2,0.2-0.2,0.3
				s-0.1,0.2-0.1,0.4s0,0.3,0,0.4c0,0.1,0,0.3,0,0.4c0,0.1,0.1,0.2,0.1,0.3c0.1,0.1,0.1,0.2,0.2,0.3C-73.2,270-73,270.1-72.9,270.1z
				"/>
		</g>
	</g>
	<g>
		<g class="st4">
			<path class="st5" d="M-153.3,231.7v-1.8h-0.6v-0.4h1.7v0.4h-0.6v1.8H-153.3z"/>
			<path class="st5" d="M-151.9,231.7v-2.1h0.6l0.4,1.5l0.4-1.5h0.7v2.1h-0.4V230l-0.4,1.7h-0.4l-0.4-1.7v1.7H-151.9z"/>
		</g>
	</g>
	<g>
		<g>
			<path class="st5" d="M-297.7,313.9L-297.7,313.9l0.7-4h2.1l-1.6,6.5h-2.1l-0.7-3.8h0l-0.7,3.8h-2.1l-1.6-6.5h2.1l0.7,4h0l0.8-4
				h1.8L-297.7,313.9z"/>
			<path class="st5" d="M-294.3,309.7h1.9v1.3h-1.9V309.7z M-294.3,316.4v-4.7h1.9v4.7H-294.3z"/>
			<path class="st5" d="M-291.4,311.6h1.7v0.7c0.2-0.3,0.4-0.5,0.7-0.6s0.6-0.2,0.9-0.2c0.6,0,1.1,0.2,1.4,0.5
				c0.3,0.3,0.4,0.8,0.4,1.5v2.8h-1.9v-2.5c0-0.1,0-0.2,0-0.3c0-0.1-0.1-0.2-0.1-0.3c-0.1-0.1-0.1-0.1-0.2-0.2s-0.2-0.1-0.3-0.1
				c-0.3,0-0.5,0.1-0.6,0.3c-0.1,0.2-0.1,0.4-0.1,0.7v2.4h-1.9V311.6z"/>
			<path class="st5" d="M-282,316.4v-0.6c-0.2,0.3-0.4,0.5-0.7,0.6c-0.2,0.1-0.5,0.2-0.8,0.2c-0.4,0-0.7-0.1-0.9-0.2
				s-0.5-0.3-0.7-0.5c-0.2-0.2-0.3-0.5-0.4-0.8c-0.1-0.3-0.1-0.6-0.1-0.9c0-0.4,0.1-0.7,0.2-1.1c0.1-0.3,0.2-0.6,0.4-0.8
				s0.4-0.4,0.6-0.5c0.2-0.1,0.5-0.2,0.8-0.2c0.3,0,0.6,0,0.8,0.1c0.2,0.1,0.4,0.2,0.6,0.5v-2.2h1.9v6.5H-282z M-282.9,315.1
				c0.2,0,0.3,0,0.4-0.1c0.1-0.1,0.2-0.1,0.3-0.2c0.1-0.1,0.1-0.2,0.1-0.4c0-0.1,0-0.3,0-0.4c0-0.1,0-0.3,0-0.4s-0.1-0.2-0.1-0.3
				c-0.1-0.1-0.1-0.2-0.2-0.3c-0.1-0.1-0.2-0.1-0.4-0.1s-0.3,0-0.4,0.1c-0.1,0.1-0.2,0.2-0.2,0.3s-0.1,0.2-0.1,0.4s0,0.3,0,0.4
				c0,0.1,0,0.3,0,0.4c0,0.1,0.1,0.2,0.1,0.3c0.1,0.1,0.1,0.2,0.2,0.3C-283.2,315.1-283.1,315.1-282.9,315.1z"/>
			<path class="st5" d="M-279.5,314.1c0-0.4,0.1-0.8,0.2-1.1c0.1-0.3,0.3-0.6,0.5-0.8c0.2-0.2,0.5-0.4,0.8-0.5s0.7-0.2,1.1-0.2
				c0.4,0,0.8,0.1,1.1,0.2s0.6,0.3,0.9,0.5s0.4,0.5,0.5,0.8c0.1,0.3,0.2,0.6,0.2,1c0,0.4-0.1,0.8-0.2,1.1c-0.1,0.3-0.3,0.6-0.6,0.8
				c-0.2,0.2-0.5,0.4-0.9,0.5c-0.3,0.1-0.7,0.2-1.1,0.2s-0.7-0.1-1.1-0.2c-0.3-0.1-0.6-0.3-0.9-0.5c-0.2-0.2-0.4-0.5-0.6-0.8
				C-279.5,314.8-279.5,314.5-279.5,314.1z M-276.8,312.8c-0.2,0-0.3,0-0.4,0.1s-0.2,0.2-0.3,0.3c-0.1,0.1-0.1,0.2-0.1,0.4
				s0,0.3,0,0.4c0,0.5,0.1,0.8,0.2,1c0.1,0.2,0.3,0.3,0.6,0.3c0.3,0,0.4-0.1,0.6-0.3s0.2-0.5,0.2-1c0-0.3-0.1-0.6-0.2-0.9
				C-276.4,312.9-276.6,312.8-276.8,312.8z"/>
			<path class="st5" d="M-268.1,314.6L-268.1,314.6l0.7-2.9h1.8l-1.5,4.7h-1.8l-0.7-2.8h0l-0.7,2.8h-1.8l-1.6-4.7h1.8l0.7,2.9h0
				l0.7-2.9h1.6L-268.1,314.6z"/>
			<path class="st5" d="M-263.3,314.9c0,0.2,0.1,0.3,0.2,0.4c0.1,0.1,0.3,0.1,0.5,0.1c0.1,0,0.3,0,0.4-0.1c0.1-0.1,0.2-0.2,0.2-0.3
				c0-0.1-0.1-0.2-0.2-0.3c-0.1-0.1-0.3-0.1-0.5-0.2c-0.2,0-0.4-0.1-0.7-0.1c-0.2-0.1-0.5-0.1-0.7-0.2c-0.2-0.1-0.4-0.2-0.5-0.4
				c-0.1-0.2-0.2-0.4-0.2-0.7c0-0.3,0.1-0.6,0.2-0.8c0.1-0.2,0.3-0.4,0.5-0.5c0.2-0.1,0.5-0.2,0.7-0.3c0.3,0,0.5-0.1,0.8-0.1
				c0.3,0,0.5,0,0.8,0.1c0.3,0,0.5,0.1,0.7,0.2c0.2,0.1,0.4,0.3,0.6,0.5c0.1,0.2,0.2,0.4,0.3,0.8h-1.7c0-0.1-0.1-0.3-0.2-0.3
				c-0.1-0.1-0.2-0.1-0.4-0.1c-0.2,0-0.3,0-0.4,0.1c-0.1,0.1-0.1,0.1-0.1,0.3c0,0.1,0.1,0.2,0.2,0.3c0.1,0.1,0.3,0.1,0.6,0.2
				c0.2,0,0.5,0.1,0.7,0.2c0.3,0.1,0.5,0.1,0.7,0.3c0.2,0.1,0.4,0.3,0.6,0.4c0.1,0.2,0.2,0.4,0.2,0.7c0,0.5-0.2,0.9-0.6,1.2
				s-1.1,0.5-1.9,0.5c-0.3,0-0.5,0-0.8-0.1c-0.3,0-0.5-0.1-0.7-0.3c-0.2-0.1-0.4-0.3-0.6-0.5c-0.2-0.2-0.2-0.5-0.3-0.8H-263.3z"/>
		</g>
	</g>
	<g>
		<g class="st4">
			<path class="st5" d="M-190.8,236.8v-6.5h2.6l1.1,4l1.1-4h2.6v6.5h-1.9v-2l0-1l0.1-1.2h0l-1.2,4.2h-1.5l-1.2-4.2h0l0.1,1l0,1v2.2
				H-190.8z"/>
			<path class="st5" d="M-179.1,236.8l-0.1-0.5c-0.3,0.2-0.5,0.4-0.8,0.5s-0.6,0.1-0.9,0.1c-0.2,0-0.4,0-0.6-0.1
				c-0.2-0.1-0.4-0.1-0.5-0.3c-0.2-0.1-0.3-0.3-0.4-0.4c-0.1-0.2-0.1-0.4-0.1-0.6c0-0.4,0.1-0.6,0.2-0.8s0.4-0.4,0.6-0.5
				c0.2-0.1,0.5-0.2,0.8-0.2s0.6-0.1,0.8-0.1s0.5-0.1,0.6-0.1c0.2-0.1,0.2-0.2,0.2-0.3c0-0.1,0-0.2-0.1-0.2c0-0.1-0.1-0.1-0.2-0.1
				c-0.1,0-0.1,0-0.2-0.1c-0.1,0-0.1,0-0.2,0c-0.1,0-0.1,0-0.2,0c-0.1,0-0.1,0-0.2,0.1c-0.1,0-0.1,0.1-0.2,0.1
				c0,0.1-0.1,0.1-0.1,0.2h-1.8c0-0.3,0-0.5,0.1-0.7c0.1-0.2,0.2-0.4,0.5-0.5s0.5-0.2,0.8-0.3s0.7-0.1,1.2-0.1c0.6,0,1,0,1.3,0.1
				c0.3,0.1,0.6,0.2,0.7,0.4s0.3,0.4,0.3,0.6c0,0.2,0.1,0.5,0.1,0.8v2.2c0,0.1,0,0.2,0,0.3c0,0.1,0.1,0.2,0.2,0.3v0.1H-179.1z
				 M-180.1,235.9c0.2,0,0.3,0,0.4-0.1c0.1-0.1,0.2-0.1,0.3-0.2c0.1-0.1,0.1-0.2,0.1-0.4c0-0.1,0-0.3,0-0.5
				c-0.2,0.1-0.3,0.1-0.5,0.2s-0.3,0.1-0.5,0.1s-0.3,0.1-0.3,0.2c-0.1,0.1-0.1,0.2-0.1,0.3c0,0.1,0.1,0.2,0.2,0.3
				C-180.4,235.9-180.3,235.9-180.1,235.9z"/>
			<path class="st5" d="M-173.2,233.9c0-0.2-0.1-0.4-0.2-0.5c-0.1-0.1-0.3-0.2-0.5-0.2c-0.2,0-0.3,0-0.4,0.1
				c-0.1,0.1-0.2,0.2-0.3,0.3c-0.1,0.1-0.1,0.3-0.1,0.4c0,0.2,0,0.3,0,0.4c0,0.4,0.1,0.6,0.2,0.9c0.1,0.2,0.3,0.3,0.6,0.3
				c0.2,0,0.4-0.1,0.5-0.2c0.1-0.1,0.2-0.3,0.2-0.5h1.9c0,0.4-0.1,0.7-0.3,0.9s-0.3,0.5-0.6,0.6c-0.2,0.2-0.5,0.3-0.8,0.3
				c-0.3,0.1-0.6,0.1-0.9,0.1c-0.4,0-0.7-0.1-1.1-0.2s-0.6-0.3-0.9-0.5c-0.2-0.2-0.4-0.5-0.6-0.8c-0.1-0.3-0.2-0.7-0.2-1.1
				c0-0.4,0.1-0.8,0.2-1.1c0.1-0.3,0.3-0.6,0.6-0.8c0.2-0.2,0.5-0.4,0.9-0.5c0.3-0.1,0.7-0.2,1.1-0.2c0.3,0,0.6,0,0.9,0.1
				s0.6,0.2,0.8,0.3c0.2,0.2,0.4,0.4,0.6,0.6c0.2,0.2,0.2,0.5,0.3,0.9H-173.2z"/>
			<path class="st5" d="M-164.1,230.2c0.6,0,1.1,0.1,1.5,0.3c0.4,0.2,0.8,0.4,1.1,0.8c0.3,0.3,0.5,0.7,0.6,1.1
				c0.1,0.4,0.2,0.8,0.2,1.2c0,0.6-0.1,1-0.3,1.5c-0.2,0.4-0.4,0.8-0.7,1.1c-0.3,0.3-0.7,0.5-1.1,0.7s-0.9,0.2-1.3,0.2
				c-0.5,0-1-0.1-1.4-0.2s-0.8-0.4-1.1-0.7s-0.5-0.7-0.7-1.1s-0.2-0.9-0.2-1.5c0-0.5,0.1-1,0.2-1.4c0.2-0.4,0.4-0.8,0.7-1.1
				c0.3-0.3,0.7-0.5,1.1-0.7C-165.1,230.3-164.6,230.2-164.1,230.2z M-164.1,231.8c-0.2,0-0.4,0.1-0.6,0.2s-0.3,0.3-0.4,0.4
				c-0.1,0.2-0.2,0.4-0.2,0.6s-0.1,0.4-0.1,0.6c0,0.2,0,0.4,0.1,0.6c0,0.2,0.1,0.4,0.2,0.6c0.1,0.2,0.2,0.3,0.4,0.4
				c0.2,0.1,0.4,0.2,0.6,0.2c0.2,0,0.4,0,0.6-0.1c0.2-0.1,0.3-0.2,0.4-0.4c0.1-0.2,0.2-0.4,0.2-0.6c0-0.2,0.1-0.5,0.1-0.7
				c0-0.2,0-0.4-0.1-0.7c0-0.2-0.1-0.4-0.2-0.6c-0.1-0.2-0.2-0.3-0.4-0.4C-163.7,231.8-163.9,231.8-164.1,231.8z"/>
			<path class="st5" d="M-156.3,232.2c0-0.1-0.1-0.2-0.1-0.3c-0.1-0.1-0.1-0.1-0.2-0.2c-0.2-0.1-0.3-0.1-0.5-0.1
				c-0.2,0-0.4,0-0.5,0.1s-0.2,0.2-0.2,0.3s0.1,0.2,0.2,0.3s0.2,0.1,0.4,0.2c0.2,0.1,0.4,0.1,0.6,0.2c0.2,0.1,0.5,0.1,0.7,0.2
				c0.2,0.1,0.5,0.1,0.7,0.2c0.2,0.1,0.4,0.2,0.6,0.4c0.2,0.1,0.3,0.3,0.4,0.5c0.1,0.2,0.2,0.5,0.2,0.8c0,0.4-0.1,0.7-0.2,1
				c-0.1,0.3-0.4,0.5-0.6,0.7c-0.3,0.2-0.6,0.3-1,0.4s-0.8,0.1-1.2,0.1c-0.4,0-0.8-0.1-1.2-0.2c-0.3-0.1-0.6-0.3-0.9-0.5
				c-0.2-0.2-0.4-0.4-0.6-0.7c-0.1-0.3-0.2-0.5-0.2-0.8h2c0,0.2,0.2,0.4,0.4,0.5c0.1,0.1,0.2,0.1,0.3,0.1c0.1,0,0.2,0,0.3,0
				c0.3,0,0.5,0,0.6-0.1c0.2-0.1,0.2-0.2,0.2-0.4c0-0.2-0.1-0.3-0.3-0.4c-0.2-0.1-0.4-0.2-0.7-0.2c-0.3-0.1-0.6-0.1-0.9-0.2
				s-0.6-0.2-0.9-0.3c-0.3-0.2-0.5-0.4-0.7-0.6c-0.2-0.3-0.3-0.6-0.3-1c0-0.3,0.1-0.6,0.2-0.9c0.1-0.3,0.3-0.5,0.6-0.6
				s0.5-0.3,0.9-0.4s0.7-0.1,1.1-0.1c0.5,0,0.8,0.1,1.2,0.2c0.3,0.1,0.6,0.3,0.8,0.4c0.2,0.2,0.4,0.4,0.5,0.7s0.2,0.5,0.2,0.8
				H-156.3z"/>
		</g>
	</g>
	<g>
		<g class="st4">
			<path class="st5" d="M-248.8,236.4v-1.8h-0.6v-0.4h1.7v0.4h-0.6v1.8H-248.8z"/>
			<path class="st5" d="M-247.4,236.4v-2.1h0.6l0.4,1.5l0.4-1.5h0.7v2.1h-0.4v-1.7l-0.4,1.7h-0.4l-0.4-1.7v1.7H-247.4z"/>
		</g>
	</g>
	<g>
		<g class="st4">
			<path class="st5" d="M-259.8,312.9v-1.8h-0.6v-0.4h1.7v0.4h-0.6v1.8H-259.8z"/>
			<path class="st5" d="M-258.5,312.9v-2.1h0.6l0.4,1.5l0.4-1.5h0.7v2.1h-0.4v-1.7l-0.4,1.7h-0.4l-0.4-1.7v1.7H-258.5z"/>
		</g>
	</g>
</g>
</svg>
