<?xml version="1.0" encoding="utf-8"?>
<!-- Generator: Adobe Illustrator 19.1.0, SVG Export Plug-In . SVG Version: 6.00 Build 0)  -->
<svg version="1.1" id="Layer_1" xmlns="http://www.w3.org/2000/svg" xmlns:xlink="http://www.w3.org/1999/xlink" x="0px" y="0px"
	 viewBox="-357.1 327.2 76.5 76.5" style="enable-background:new -357.1 327.2 76.5 76.5;" xml:space="preserve">
<style type="text/css">
	.st0{fill:#FFFF03;}
	.st1{fill:#7A797A;stroke:#7A797A;stroke-width:2;stroke-miterlimit:10;}
	.st2{fill:#009900;stroke:#009900;stroke-width:2;stroke-miterlimit:10;}
	.st3{fill:none;stroke:#009900;stroke-width:5;stroke-miterlimit:10;}
	.st4{fill:none;stroke:#7A797A;stroke-width:5;stroke-miterlimit:10;}
	.st5{fill:#B1ADAD;stroke:#B1ADAD;stroke-width:2;stroke-miterlimit:10;}
	.st6{fill:none;stroke:#FFFF03;stroke-width:5;stroke-miterlimit:10;}
</style>
<g>
	<circle class="st6" cx="-318.9" cy="365.4" r="33.9"/>
	<path class="st0" d="M-319.2,345.4l-16.6,11.1c-0.2,0.1-0.3,0.3-0.3,0.6c0,0.2,0.1,0.4,0.3,0.6l16.6,11.1c0.2,0.1,0.5,0.1,0.7,0
		c0.2-0.1,0.4-0.3,0.4-0.6v-4.7l0.5,0.1c3.5,0.4,7.8,3.2,8.7,8.3c0.5,2.7-0.1,5.6-1.7,7.9c-1.6,2.3-4.1,3.9-7,4.3
		c-0.3,0.1-0.6,0.4-0.6,0.7c0,0.3,0.3,0.6,0.7,0.6v0.4l0-0.4c3.3-0.1,6.9-1.5,9.7-3.8c2.2-1.9,5.1-5.1,6-10.3c0.9-5-0.5-10.1-3.7-14
		c-1.6-1.9-3.5-3.4-5.7-4.5c-2-1-4.2-1.6-6.5-1.7l-0.4,0v-4.9c0-0.2-0.1-0.5-0.4-0.6c-0.1-0.1-0.2-0.1-0.3-0.1
		C-319,345.2-319.1,345.3-319.2,345.4z"/>
</g>
</svg>
