<?xml version="1.0" encoding="UTF-8" standalone="no"?>
<!-- Created with Inkscape (http://www.inkscape.org/) -->
<svg
   xmlns:svg="http://www.w3.org/2000/svg"
   xmlns="http://www.w3.org/2000/svg"
   version="1.0"
   width="27.1cm"
   height="8.493cm"
   viewBox="6.95 1.958 34.05 10.45"
   id="svg2">
  <defs
     id="defs273" />
  <rect
     width="1.367"
     height="3.1900001"
     x="8.8730001"
     y="5"
     id="rect4"
     style="fill:#b3b3b3;stroke:none;stroke-width:0" />
  <rect
     width="1.367"
     height="3.1900001"
     x="8.8730001"
     y="5"
     id="rect6"
     style="fill:none;stroke:#000000;stroke-width:0.08" />
  <rect
     width="1.094"
     height="0.36500001"
     x="9.0100002"
     y="5.191"
     id="rect8"
     style="fill:none;stroke:#000000;stroke-width:0.01" />
  <rect
     width="1.094"
     height="0.36500001"
     x="9.0100002"
     y="5.5560002"
     id="rect10"
     style="fill:none;stroke:#000000;stroke-width:0.01" />
  <rect
     width="1.094"
     height="0.36500001"
     x="9.0100002"
     y="5.921"
     id="rect12"
     style="fill:none;stroke:#000000;stroke-width:0.01" />
  <rect
     width="1.094"
     height="0.36500001"
     x="9.0100002"
     y="6.2849998"
     id="rect14"
     style="fill:none;stroke:#000000;stroke-width:0.01" />
  <rect
     width="0.68400002"
     height="0.219"
     x="9.0100002"
     y="6.723"
     id="rect16"
     style="fill:none;stroke:#000000;stroke-width:0.01" />
  <ellipse
     cx="10.036"
     cy="6.7589998"
     rx="0.048"
     ry="0.048"
     id="ellipse18"
     style="fill:#00ff00;stroke:none" />
  <ellipse
     cx="10.036"
     cy="6.7589998"
     rx="0.048"
     ry="0.048"
     id="ellipse20"
     style="fill:none;stroke:#000000;stroke-width:0.01" />
  <ellipse
     cx="10.036"
     cy="6.9050002"
     rx="0.048"
     ry="0.048"
     id="ellipse22"
     style="fill:#ffff00;stroke:none" />
  <ellipse
     cx="10.036"
     cy="6.9050002"
     rx="0.048"
     ry="0.048"
     id="ellipse24"
     style="fill:none;stroke:#000000;stroke-width:0.01" />
  <rect
     width="0.164"
     height="0.146"
     x="9.7620001"
     y="6.796"
     id="rect26"
     style="fill:#ffffff;stroke:none;stroke-width:0" />
  <rect
     width="0.164"
     height="0.146"
     x="9.7620001"
     y="6.796"
     id="rect28"
     style="fill:none;stroke:#000000;stroke-width:0.01" />
  <path
     d="M 9.101,7.233 L 9.101,8.031"
     id="path30"
     style="fill:none;stroke:#000000;stroke-width:0.01" />
  <path
     d="M 9.329,7.233 L 9.329,8.031"
     id="path32"
     style="fill:none;stroke:#000000;stroke-width:0.01" />
  <path
     d="M 9.557,7.233 L 9.557,8.031"
     id="path34"
     style="fill:none;stroke:#000000;stroke-width:0.01" />
  <path
     d="M 9.785,7.233 L 9.785,8.031"
     id="path36"
     style="fill:none;stroke:#000000;stroke-width:0.01" />
  <path
     d="M 10.013,7.233 L 10.013,8.031"
     id="path38"
     style="fill:none;stroke:#000000;stroke-width:0.01" />
  <path
     d="M 10.241,7.233 L 10.241,8.031"
     id="path40"
     style="fill:none;stroke:#000000;stroke-width:0.01" />
  <polygon
     points="8.6,8.464 8.873,7.917 8.873,8.19 10.241,8.19 10.241,7.917 10.605,8.464 8.6,8.464 "
     id="polygon42"
     style="fill:#999999;stroke:none;stroke-width:0.01" />
  <polygon
     points="8.6,8.464 8.873,7.917 8.873,8.19 10.241,8.19 10.241,7.917 10.605,8.464 8.6,8.464 "
     id="polygon44"
     style="fill:none;stroke:#000000;stroke-width:0.01" />
  <ellipse
     cx="12.25"
     cy="6.6999998"
     rx="5.25"
     ry="3.5999999"
     id="ellipse46"
     style="fill:none;stroke:#000000;stroke-width:0.1" />
  <rect
     width="1.365"
     height="3.1860001"
     x="11.273"
     y="5"
     id="rect48"
     style="fill:#b3b3b3;stroke:none;stroke-width:0" />
  <rect
     width="1.365"
     height="3.1860001"
     x="11.273"
     y="5"
     id="rect50"
     style="fill:none;stroke:#000000;stroke-width:0.08" />
  <rect
     width="1.092"
     height="0.36399999"
     x="11.41"
     y="5.191"
     id="rect52"
     style="fill:none;stroke:#000000;stroke-width:0.01" />
  <rect
     width="1.092"
     height="0.36399999"
     x="11.41"
     y="5.5549998"
     id="rect54"
     style="fill:none;stroke:#000000;stroke-width:0.01" />
  <rect
     width="1.092"
     height="0.36399999"
     x="11.41"
     y="5.9190001"
     id="rect56"
     style="fill:none;stroke:#000000;stroke-width:0.01" />
  <rect
     width="1.092"
     height="0.36399999"
     x="11.41"
     y="6.2839999"
     id="rect58"
     style="fill:none;stroke:#000000;stroke-width:0.01" />
  <rect
     width="0.68300003"
     height="0.21799999"
     x="11.41"
     y="6.7199998"
     id="rect60"
     style="fill:none;stroke:#000000;stroke-width:0.01" />
  <ellipse
     cx="12.434"
     cy="6.757"
     rx="0.048"
     ry="0.048"
     id="ellipse62"
     style="fill:#00ff00;stroke:none" />
  <ellipse
     cx="12.434"
     cy="6.757"
     rx="0.048"
     ry="0.048"
     id="ellipse64"
     style="fill:none;stroke:#000000;stroke-width:0.01" />
  <ellipse
     cx="12.434"
     cy="6.902"
     rx="0.048"
     ry="0.048"
     id="ellipse66"
     style="fill:#ffff00;stroke:none" />
  <ellipse
     cx="12.434"
     cy="6.902"
     rx="0.048"
     ry="0.048"
     id="ellipse68"
     style="fill:none;stroke:#000000;stroke-width:0.01" />
  <rect
     width="0.164"
     height="0.146"
     x="12.161"
     y="6.7930002"
     id="rect70"
     style="fill:#ffffff;stroke:none;stroke-width:0" />
  <rect
     width="0.164"
     height="0.146"
     x="12.161"
     y="6.7930002"
     id="rect72"
     style="fill:none;stroke:#000000;stroke-width:0.01" />
  <path
     d="M 11.501,7.23 L 11.501,8.027"
     id="path74"
     style="fill:none;stroke:#000000;stroke-width:0.01" />
  <path
     d="M 11.728,7.23 L 11.728,8.027"
     id="path76"
     style="fill:none;stroke:#000000;stroke-width:0.01" />
  <path
     d="M 11.956,7.23 L 11.956,8.027"
     id="path78"
     style="fill:none;stroke:#000000;stroke-width:0.01" />
  <path
     d="M 12.183,7.23 L 12.183,8.027"
     id="path80"
     style="fill:none;stroke:#000000;stroke-width:0.01" />
  <path
     d="M 12.411,7.23 L 12.411,8.027"
     id="path82"
     style="fill:none;stroke:#000000;stroke-width:0.01" />
  <path
     d="M 12.639,7.23 L 12.639,8.027"
     id="path84"
     style="fill:none;stroke:#000000;stroke-width:0.01" />
  <polygon
     points="11,8.459 11.273,7.913 11.273,8.186 12.639,8.186 12.639,7.913 13.003,8.459 11,8.459 "
     id="polygon86"
     style="fill:#999999;stroke:none;stroke-width:0.01" />
  <polygon
     points="11,8.459 11.273,7.913 11.273,8.186 12.639,8.186 12.639,7.913 13.003,8.459 11,8.459 "
     id="polygon88"
     style="fill:none;stroke:#000000;stroke-width:0.01" />
  <rect
     width="1.322"
     height="3.086"
     x="13.764"
     y="5.0999999"
     id="rect90"
     style="fill:#b3b3b3;stroke:none;stroke-width:0" />
  <rect
     width="1.322"
     height="3.086"
     x="13.764"
     y="5.0999999"
     id="rect92"
     style="fill:none;stroke:#000000;stroke-width:0.08" />
  <rect
     width="1.058"
     height="0.35299999"
     x="13.897"
     y="5.2849998"
     id="rect94"
     style="fill:none;stroke:#000000;stroke-width:0.01" />
  <rect
     width="1.058"
     height="0.35299999"
     x="13.897"
     y="5.638"
     id="rect96"
     style="fill:none;stroke:#000000;stroke-width:0.01" />
  <rect
     width="1.058"
     height="0.35299999"
     x="13.897"
     y="5.9899998"
     id="rect98"
     style="fill:none;stroke:#000000;stroke-width:0.01" />
  <rect
     width="1.058"
     height="0.35299999"
     x="13.897"
     y="6.3429999"
     id="rect100"
     style="fill:none;stroke:#000000;stroke-width:0.01" />
  <rect
     width="0.66100001"
     height="0.212"
     x="13.897"
     y="6.7659998"
     id="rect102"
     style="fill:none;stroke:#000000;stroke-width:0.01" />
  <ellipse
     cx="14.888"
     cy="6.8010001"
     rx="0.046"
     ry="0.046"
     id="ellipse104"
     style="fill:#00ff00;stroke:none" />
  <ellipse
     cx="14.888"
     cy="6.8010001"
     rx="0.046"
     ry="0.046"
     id="ellipse106"
     style="fill:none;stroke:#000000;stroke-width:0.01" />
  <ellipse
     cx="14.888"
     cy="6.9419999"
     rx="0.046"
     ry="0.046"
     id="ellipse108"
     style="fill:#ffff00;stroke:none" />
  <ellipse
     cx="14.888"
     cy="6.9419999"
     rx="0.046"
     ry="0.046"
     id="ellipse110"
     style="fill:none;stroke:#000000;stroke-width:0.01" />
  <rect
     width="0.15899999"
     height="0.141"
     x="14.624"
     y="6.8369999"
     id="rect112"
     style="fill:#ffffff;stroke:none;stroke-width:0" />
  <rect
     width="0.15899999"
     height="0.141"
     x="14.624"
     y="6.8369999"
     id="rect114"
     style="fill:none;stroke:#000000;stroke-width:0.01" />
  <path
     d="M 13.985,7.26 L 13.985,8.031"
     id="path116"
     style="fill:none;stroke:#000000;stroke-width:0.01" />
  <path
     d="M 14.205,7.26 L 14.205,8.031"
     id="path118"
     style="fill:none;stroke:#000000;stroke-width:0.01" />
  <path
     d="M 14.426,7.26 L 14.426,8.031"
     id="path120"
     style="fill:none;stroke:#000000;stroke-width:0.01" />
  <path
     d="M 14.646,7.26 L 14.646,8.031"
     id="path122"
     style="fill:none;stroke:#000000;stroke-width:0.01" />
  <path
     d="M 14.866,7.26 L 14.866,8.031"
     id="path124"
     style="fill:none;stroke:#000000;stroke-width:0.01" />
  <path
     d="M 15.087,7.26 L 15.087,8.031"
     id="path126"
     style="fill:none;stroke:#000000;stroke-width:0.01" />
  <polygon
     points="13.5,8.45 13.764,7.921 13.764,8.186 15.087,8.186 15.087,7.921 15.439,8.45 13.5,8.45 "
     id="polygon128"
     style="fill:#999999;stroke:none;stroke-width:0.01" />
  <polygon
     points="13.5,8.45 13.764,7.921 13.764,8.186 15.087,8.186 15.087,7.921 15.439,8.45 13.5,8.45 "
     id="polygon130"
     style="fill:none;stroke:#000000;stroke-width:0.01" />
  <text
     x="10.5"
     y="2.5"
     id="text132"
     style="font-size:0.80000001px;font-style:normal;font-weight:400;text-anchor:start;fill:#000000;font-family:sans">Domain A</text>
  <text
     x="27.299999"
     y="2.8"
     id="text134"
     style="font-size:0.80000001px;font-style:normal;font-weight:400;text-anchor:start;fill:#000000;font-family:sans">Domain B</text>
  <polygon
     points="18.5,6.5 20.6,6.5 20.6,6.2 22.7,6.8 20.6,7.4 20.6,7.1 18.5,7.1 18.5,6.5 "
     id="polygon136"
     style="fill:#ffffff;stroke:none;stroke-width:0.1" />
  <polygon
     points="18.5,6.5 20.6,6.5 20.6,6.2 22.7,6.8 20.6,7.4 20.6,7.1 18.5,7.1 18.5,6.5 "
     id="polygon138"
     style="fill:none;stroke:#000000;stroke-width:0.1" />
  <polygon
     points="18.5,6.5 20.6,6.5 20.6,6.2 22.7,6.8 20.6,7.4 20.6,7.1 18.5,7.1 18.5,6.5 "
     id="polygon140"
     style="fill:none;stroke:#000000;stroke-width:0.01" />
  <text
     x="19.299999"
     y="5.9000001"
     id="text142"
     style="font-size:0.80000001px;font-style:normal;font-weight:400;text-anchor:start;fill:#000000;font-family:sans">Trusts</text>
  <rect
     width="1.367"
     height="3.1900001"
     x="25.372999"
     y="5.0999999"
     id="rect144"
     style="fill:#b3b3b3;stroke:none;stroke-width:0" />
  <rect
     width="1.367"
     height="3.1900001"
     x="25.372999"
     y="5.0999999"
     id="rect146"
     style="fill:none;stroke:#000000;stroke-width:0.08" />
  <rect
     width="1.094"
     height="0.36500001"
     x="25.51"
     y="5.2909999"
     id="rect148"
     style="fill:none;stroke:#000000;stroke-width:0.01" />
  <rect
     width="1.094"
     height="0.36500001"
     x="25.51"
     y="5.6560001"
     id="rect150"
     style="fill:none;stroke:#000000;stroke-width:0.01" />
  <rect
     width="1.094"
     height="0.36500001"
     x="25.51"
     y="6.0209999"
     id="rect152"
     style="fill:none;stroke:#000000;stroke-width:0.01" />
  <rect
     width="1.094"
     height="0.36500001"
     x="25.51"
     y="6.3850002"
     id="rect154"
     style="fill:none;stroke:#000000;stroke-width:0.01" />
  <rect
     width="0.68400002"
     height="0.219"
     x="25.51"
     y="6.823"
     id="rect156"
     style="fill:none;stroke:#000000;stroke-width:0.01" />
  <ellipse
     cx="26.535999"
     cy="6.8590002"
     rx="0.048"
     ry="0.048"
     id="ellipse158"
     style="fill:#00ff00;stroke:none" />
  <ellipse
     cx="26.535999"
     cy="6.8590002"
     rx="0.048"
     ry="0.048"
     id="ellipse160"
     style="fill:none;stroke:#000000;stroke-width:0.01" />
  <ellipse
     cx="26.535999"
     cy="7.0050001"
     rx="0.048"
     ry="0.048"
     id="ellipse162"
     style="fill:#ffff00;stroke:none" />
  <ellipse
     cx="26.535999"
     cy="7.0050001"
     rx="0.048"
     ry="0.048"
     id="ellipse164"
     style="fill:none;stroke:#000000;stroke-width:0.01" />
  <rect
     width="0.164"
     height="0.146"
     x="26.261999"
     y="6.8959999"
     id="rect166"
     style="fill:#ffffff;stroke:none;stroke-width:0" />
  <rect
     width="0.164"
     height="0.146"
     x="26.261999"
     y="6.8959999"
     id="rect168"
     style="fill:none;stroke:#000000;stroke-width:0.01" />
  <path
     d="M 25.601,7.333 L 25.601,8.131"
     id="path170"
     style="fill:none;stroke:#000000;stroke-width:0.01" />
  <path
     d="M 25.829,7.333 L 25.829,8.131"
     id="path172"
     style="fill:none;stroke:#000000;stroke-width:0.01" />
  <path
     d="M 26.057,7.333 L 26.057,8.131"
     id="path174"
     style="fill:none;stroke:#000000;stroke-width:0.01" />
  <path
     d="M 26.285,7.333 L 26.285,8.131"
     id="path176"
     style="fill:none;stroke:#000000;stroke-width:0.01" />
  <path
     d="M 26.513,7.333 L 26.513,8.131"
     id="path178"
     style="fill:none;stroke:#000000;stroke-width:0.01" />
  <path
     d="M 26.741,7.333 L 26.741,8.131"
     id="path180"
     style="fill:none;stroke:#000000;stroke-width:0.01" />
  <polygon
     points="25.1,8.564 25.373,8.017 25.373,8.29 26.741,8.29 26.741,8.017 27.105,8.564 25.1,8.564 "
     id="polygon182"
     style="fill:#999999;stroke:none;stroke-width:0.01" />
  <polygon
     points="25.1,8.564 25.373,8.017 25.373,8.29 26.741,8.29 26.741,8.017 27.105,8.564 25.1,8.564 "
     id="polygon184"
     style="fill:none;stroke:#000000;stroke-width:0.01" />
  <ellipse
     cx="28.75"
     cy="6.8000002"
     rx="5.25"
     ry="3.5999999"
     id="ellipse186"
     style="fill:none;stroke:#000000;stroke-width:0.1" />
  <rect
     width="1.365"
     height="3.1860001"
     x="27.773001"
     y="5.0999999"
     id="rect188"
     style="fill:#b3b3b3;stroke:none;stroke-width:0" />
  <rect
     width="1.365"
     height="3.1860001"
     x="27.773001"
     y="5.0999999"
     id="rect190"
     style="fill:none;stroke:#000000;stroke-width:0.08" />
  <rect
     width="1.092"
     height="0.36399999"
     x="27.91"
     y="5.2909999"
     id="rect192"
     style="fill:none;stroke:#000000;stroke-width:0.01" />
  <rect
     width="1.092"
     height="0.36399999"
     x="27.91"
     y="5.6550002"
     id="rect194"
     style="fill:none;stroke:#000000;stroke-width:0.01" />
  <rect
     width="1.092"
     height="0.36399999"
     x="27.91"
     y="6.0190001"
     id="rect196"
     style="fill:none;stroke:#000000;stroke-width:0.01" />
  <rect
     width="1.092"
     height="0.36399999"
     x="27.91"
     y="6.3839998"
     id="rect198"
     style="fill:none;stroke:#000000;stroke-width:0.01" />
  <rect
     width="0.68300003"
     height="0.21799999"
     x="27.91"
     y="6.8200002"
     id="rect200"
     style="fill:none;stroke:#000000;stroke-width:0.01" />
  <ellipse
     cx="28.934"
     cy="6.8569999"
     rx="0.048"
     ry="0.048"
     id="ellipse202"
     style="fill:#00ff00;stroke:none" />
  <ellipse
     cx="28.934"
     cy="6.8569999"
     rx="0.048"
     ry="0.048"
     id="ellipse204"
     style="fill:none;stroke:#000000;stroke-width:0.01" />
  <ellipse
     cx="28.934"
     cy="7.0019999"
     rx="0.048"
     ry="0.048"
     id="ellipse206"
     style="fill:#ffff00;stroke:none" />
  <ellipse
     cx="28.934"
     cy="7.0019999"
     rx="0.048"
     ry="0.048"
     id="ellipse208"
     style="fill:none;stroke:#000000;stroke-width:0.01" />
  <rect
     width="0.164"
     height="0.146"
     x="28.660999"
     y="6.8930001"
     id="rect210"
     style="fill:#ffffff;stroke:none;stroke-width:0" />
  <rect
     width="0.164"
     height="0.146"
     x="28.660999"
     y="6.8930001"
     id="rect212"
     style="fill:none;stroke:#000000;stroke-width:0.01" />
  <path
     d="M 28.001,7.33 L 28.001,8.127"
     id="path214"
     style="fill:none;stroke:#000000;stroke-width:0.01" />
  <path
     d="M 28.228,7.33 L 28.228,8.127"
     id="path216"
     style="fill:none;stroke:#000000;stroke-width:0.01" />
  <path
     d="M 28.456,7.33 L 28.456,8.127"
     id="path218"
     style="fill:none;stroke:#000000;stroke-width:0.01" />
  <path
     d="M 28.683,7.33 L 28.683,8.127"
     id="path220"
     style="fill:none;stroke:#000000;stroke-width:0.01" />
  <path
     d="M 28.911,7.33 L 28.911,8.127"
     id="path222"
     style="fill:none;stroke:#000000;stroke-width:0.01" />
  <path
     d="M 29.139,7.33 L 29.139,8.127"
     id="path224"
     style="fill:none;stroke:#000000;stroke-width:0.01" />
  <polygon
     points="27.5,8.559 27.773,8.013 27.773,8.286 29.139,8.286 29.139,8.013 29.503,8.559 27.5,8.559 "
     id="polygon226"
     style="fill:#999999;stroke:none;stroke-width:0.01" />
  <polygon
     points="27.5,8.559 27.773,8.013 27.773,8.286 29.139,8.286 29.139,8.013 29.503,8.559 27.5,8.559 "
     id="polygon228"
     style="fill:none;stroke:#000000;stroke-width:0.01" />
  <rect
     width="1.322"
     height="3.086"
     x="30.264"
     y="5.1999998"
     id="rect230"
     style="fill:#b3b3b3;stroke:none;stroke-width:0" />
  <rect
     width="1.322"
     height="3.086"
     x="30.264"
     y="5.1999998"
     id="rect232"
     style="fill:none;stroke:#000000;stroke-width:0.08" />
  <rect
     width="1.058"
     height="0.35299999"
     x="30.396999"
     y="5.3850002"
     id="rect234"
     style="fill:none;stroke:#000000;stroke-width:0.01" />
  <rect
     width="1.058"
     height="0.35299999"
     x="30.396999"
     y="5.7379999"
     id="rect236"
     style="fill:none;stroke:#000000;stroke-width:0.01" />
  <rect
     width="1.058"
     height="0.35299999"
     x="30.396999"
     y="6.0900002"
     id="rect238"
     style="fill:none;stroke:#000000;stroke-width:0.01" />
  <rect
     width="1.058"
     height="0.35299999"
     x="30.396999"
     y="6.4429998"
     id="rect240"
     style="fill:none;stroke:#000000;stroke-width:0.01" />
  <rect
     width="0.66100001"
     height="0.212"
     x="30.396999"
     y="6.8660002"
     id="rect242"
     style="fill:none;stroke:#000000;stroke-width:0.01" />
  <ellipse
     cx="31.388"
     cy="6.901"
     rx="0.046"
     ry="0.046"
     id="ellipse244"
     style="fill:#00ff00;stroke:none" />
  <ellipse
     cx="31.388"
     cy="6.901"
     rx="0.046"
     ry="0.046"
     id="ellipse246"
     style="fill:none;stroke:#000000;stroke-width:0.01" />
  <ellipse
     cx="31.388"
     cy="7.0430002"
     rx="0.046"
     ry="0.046"
     id="ellipse248"
     style="fill:#ffff00;stroke:none" />
  <ellipse
     cx="31.388"
     cy="7.0430002"
     rx="0.046"
     ry="0.046"
     id="ellipse250"
     style="fill:none;stroke:#000000;stroke-width:0.01" />
  <rect
     width="0.15899999"
     height="0.141"
     x="31.124001"
     y="6.9369998"
     id="rect252"
     style="fill:#ffffff;stroke:none;stroke-width:0" />
  <rect
     width="0.15899999"
     height="0.141"
     x="31.124001"
     y="6.9369998"
     id="rect254"
     style="fill:none;stroke:#000000;stroke-width:0.01" />
  <path
     d="M 30.485,7.36 L 30.485,8.131"
     id="path256"
     style="fill:none;stroke:#000000;stroke-width:0.01" />
  <path
     d="M 30.705,7.36 L 30.705,8.131"
     id="path258"
     style="fill:none;stroke:#000000;stroke-width:0.01" />
  <path
     d="M 30.926,7.36 L 30.926,8.131"
     id="path260"
     style="fill:none;stroke:#000000;stroke-width:0.01" />
  <path
     d="M 31.146,7.36 L 31.146,8.131"
     id="path262"
     style="fill:none;stroke:#000000;stroke-width:0.01" />
  <path
     d="M 31.366,7.36 L 31.366,8.131"
     id="path264"
     style="fill:none;stroke:#000000;stroke-width:0.01" />
  <path
     d="M 31.587,7.36 L 31.587,8.131"
     id="path266"
     style="fill:none;stroke:#000000;stroke-width:0.01" />
  <polygon
     points="30,8.55 30.264,8.021 30.264,8.286 31.587,8.286 31.587,8.021 31.939,8.55 30,8.55 "
     id="polygon268"
     style="fill:#999999;stroke:none;stroke-width:0.01" />
  <polygon
     points="30,8.55 30.264,8.021 30.264,8.286 31.587,8.286 31.587,8.021 31.939,8.55 30,8.55 "
     id="polygon270"
     style="fill:none;stroke:#000000;stroke-width:0.01" />
</svg>
