<?xml version="1.0" encoding="UTF-8" standalone="no"?>
<!-- Created with Inkscape (http://www.inkscape.org/) -->
<svg
   xmlns:svg="http://www.w3.org/2000/svg"
   xmlns="http://www.w3.org/2000/svg"
   version="1.0"
   width="9.6999998cm"
   height="17.848cm"
   viewBox="2.95 0.95 12.65 18.798"
   id="svg2">
  <defs
     id="defs49" />
  <text
     x="3.7"
     y="1.9"
     id="text4"
     style="font-size:0.80000001px;font-style:normal;font-weight:400;text-anchor:start;fill:#000000;font-family:sans">Grou</text>
  <text
     x="3.7"
     y="2"
     id="text6"
     style="font-size:0.80000001px;font-style:normal;font-weight:400;text-anchor:start;fill:#000000;font-family:sans">group</text>
  <rect
     width="9.6000004"
     height="3"
     x="3"
     y="1"
     id="rect8"
     style="fill:#ffffff;stroke:none;stroke-width:0" />
  <rect
     width="9.6000004"
     height="3"
     x="3"
     y="1"
     id="rect10"
     style="fill:none;stroke:#000000;stroke-width:0.1" />
  <rect
     width="9.5500002"
     height="3.3"
     x="3"
     y="15.4"
     id="rect12"
     style="fill:#ffffff;stroke:none;stroke-width:0" />
  <rect
     width="9.5500002"
     height="3.3"
     x="3"
     y="15.4"
     id="rect14"
     style="fill:none;stroke:#000000;stroke-width:0.1" />
  <rect
     width="9.5500002"
     height="3.5"
     x="3"
     y="8"
     id="rect16"
     style="fill:#ffffff;stroke:none;stroke-width:0" />
  <rect
     width="9.5500002"
     height="3.5"
     x="3"
     y="8"
     id="rect18"
     style="fill:none;stroke:#000000;stroke-width:0.1" />
  <text
     x="3.75"
     y="2.05"
     id="text20"
     style="font-size:0.80000001px;font-style:normal;font-weight:700;text-anchor:start;fill:#000000;font-family:sans">group_mapping tdb</text>
  <text
     x="3.6500001"
     y="3.5"
     id="text22"
     style="font-size:0.80000001px;font-style:normal;font-weight:400;text-anchor:start;fill:#000000;font-family:sans">contains samba groups</text>
  <text
     x="5.5999999"
     y="9.0620003"
     id="text24"
     style="font-size:0.80000001px;font-style:normal;font-weight:700;text-anchor:start;fill:#000000;font-family:sans">idmap gid</text>
  <text
     x="4.25"
     y="10.25"
     id="text26"
     style="font-size:0.80000001px;font-style:normal;font-weight:400;text-anchor:start;fill:#000000;font-family:sans">maps UNIX groups to</text>
  <text
     x="4.25"
     y="11.05"
     id="text28"
     style="font-size:0.80000001px;font-style:normal;font-weight:400;text-anchor:start;fill:#000000;font-family:sans">samba groups</text>
  <text
     x="5.0500002"
     y="16.5"
     id="text30"
     style="font-size:0.80000001px;font-style:normal;font-weight:700;text-anchor:start;fill:#000000;font-family:sans">UNIX groups</text>
  <text
     x="4.8499999"
     y="17.6"
     id="text32"
     style="font-size:0.80000001px;font-style:normal;font-weight:400;text-anchor:start;fill:#000000;font-family:sans">/etc/group or other</text>
  <text
     x="4.8499999"
     y="18.4"
     id="text34"
     style="font-size:0.80000001px;font-style:normal;font-weight:400;text-anchor:start;fill:#000000;font-family:sans">NSS backend</text>
  <polygon
     points="7.183,6.963 7.183,5.01 6.694,5.01 7.671,4.034 8.647,5.01 8.159,5.01 8.159,6.963 8.647,6.963 7.671,7.939 6.694,6.963 7.183,6.963 "
     id="polygon36"
     style="fill:#ffffff;stroke:none;stroke-width:0.1" />
  <polygon
     points="7.183,6.963 7.183,5.01 6.694,5.01 7.671,4.034 8.647,5.01 8.159,5.01 8.159,6.963 8.647,6.963 7.671,7.939 6.694,6.963 7.183,6.963 "
     id="polygon38"
     style="fill:none;stroke:#000000;stroke-width:0.1" />
  <polygon
     points="7.183,6.963 7.183,5.01 6.694,5.01 7.671,4.034 8.647,5.01 8.159,5.01 8.159,6.963 8.647,6.963 7.671,7.939 6.694,6.963 7.183,6.963 "
     id="polygon40"
     style="fill:none;stroke:#000000;stroke-width:0.01" />
  <polygon
     points="7.196,14.421 7.196,12.521 6.721,12.521 7.671,11.571 8.621,12.521 8.146,12.521 8.146,14.421 8.621,14.421 7.671,15.371 6.721,14.421 7.196,14.421 "
     id="polygon42"
     style="fill:#ffffff;stroke:none;stroke-width:0.1" />
  <polygon
     points="7.196,14.421 7.196,12.521 6.721,12.521 7.671,11.571 8.621,12.521 8.146,12.521 8.146,14.421 8.621,14.421 7.671,15.371 6.721,14.421 7.196,14.421 "
     id="polygon44"
     style="fill:none;stroke:#000000;stroke-width:0.1" />
  <polygon
     points="7.196,14.421 7.196,12.521 6.721,12.521 7.671,11.571 8.621,12.521 8.146,12.521 8.146,14.421 8.621,14.421 7.671,15.371 6.721,14.421 7.196,14.421 "
     id="polygon46"
     style="fill:none;stroke:#000000;stroke-width:0.01" />
</svg>
